<?xml version="1.0" encoding="utf-8"?>
<!-- Generator: Adobe Illustrator 19.0.0, SVG Export Plug-In . SVG Version: 6.00 Build 0)  -->
<svg version="1.1" id="Layer_1" xmlns="http://www.w3.org/2000/svg" xmlns:xlink="http://www.w3.org/1999/xlink" x="0px" y="0px"
	 viewBox="0 0 423.6 193.9" style="enable-background:new 0 0 423.6 193.9;" xml:space="preserve">
<style type="text/css">
	.st0{fill:#1B1B19;}
	.st1{fill:#858686;}
	.st2{fill:#0F0F0F;}
	.st3{fill:#828282;}
	.st4{fill:#4A4A4A;}
	.st5{fill:#1B1A19;}
	.st6{fill:#868686;}
	.st7{fill:#838381;}
	.st8{fill:#928F8F;}
	.st9{fill:#121211;}
	.st10{fill:#757474;}
	.st11{fill:#E4E3E3;}
	.st12{fill:#E1DFDF;}
	.st13{fill:#DBDBDB;}
	.st14{fill:#F1F0EF;}
	.st15{fill:#868687;}
	.st16{fill:#656565;}
	.st17{fill:#50504F;}
	.st18{fill:#888889;}
	.st19{fill:#0F0F0E;}
	.st20{fill:#10100F;}
	.st21{fill:#0D0D0D;}
	.st22{fill:#84807F;}
	.st23{fill:#999695;}
	.st24{fill:#6F6F6F;}
	.st25{fill:#E5E4E3;}
	.st26{fill:#E4E3E2;}
	.st27{fill:#101010;}
	.st28{fill:#D5D4D4;}
	.st29{fill:#111110;}
	.st30{fill:#848483;}
	.st31{fill:#131312;}
	.st32{fill:#858586;}
	.st33{fill:#545151;}
	.st34{fill:#807D7C;}
	.st35{fill:#BEBCBC;}
	.st36{fill:#4C4C4A;}
	.st37{fill:#131313;}
	.st38{fill:#F7941E;}
	.st39{font-family:'MyriadPro-Regular';}
	.st40{font-size:6.9987px;}
	.st41{letter-spacing:40.5;}
	.st42{font-size:6px;}
</style>
<path id="XMLID_137_" class="st0" d="M381.5,173.8c-2.9-2.9-6.4-3.6-10-4.3c-6.1-1.1-12-3.1-17.7-5.9c-3.8-1.9-6.1-5.8-8.9-9
	c-0.2-0.2-0.4-0.4-0.3-1c0.8-3.6,0.1-5.5-2.6-7.3c-6.3-4.2-12.9-7.3-20.1-9c-0.1-1.6,2.8-0.5,1.8-2.8c1.3-0.8,2.8,0.1,4.1-0.5
	c4.6,0.4,8.8,2.4,13,4.5c3.4,1.7,6.7,3.4,10,5.4c1.9,1.1,2.5,1.1,3.4-1.5c1.5-4.4,3.1-8.7,3.3-13.6c0.4,0.2,0.4-0.2,0.4-0.4
	c-0.1-1.4,0.2-2.9-0.2-4.3c0-4,0-8.1,0-12.8c6.4,7.1,10.1,14.9,10.4,24.5c-0.3,0.8-0.1,1.7-0.2,2.6c0,0.2,0,0.4,0.2,0.5
	c-0.3-0.4-0.1-0.6,0.2-0.9c0.9,2.4,0.1,4.6-0.6,6.8c-0.3,0.8-1.1,1.7-0.3,2.5c0.6,0.7,1.6,0.3,2.3,0.1c6.8-2.5,14-3.1,20.9-5.2
	c3.6-1.1,7.4-1.8,11.5-2.8c-3.2,5.5-7.4,8.9-11.9,11.9c-4.5,3.1-9.1,5.5-14.8,5.3c1.3,3.2,3.4,4.1,5.5,5.1c3.9,1.7,6.3,4.8,6.4,9.8
	c-0.4,0.6-1,0.8-1.6,0.7C384.1,171.8,382.8,172.6,381.5,173.8z"/>
<path id="XMLID_136_" class="st1" d="M381.5,173.8c0.9-3,3.4-1.7,5.3-1.9c-0.1,2.2,2.2,3.4,2,5.6c0.2,0.7-0.1,1.3-0.6,1.8
	c-1.1-0.9-1.6-3.3-3-2.8c-1.1,0.3,0.6,2.2,0.3,3.4c0,0.1-0.1,0.3-0.2,0.6C383.4,178.4,383.1,175.7,381.5,173.8z"/>
<path id="XMLID_114_" class="st2" d="M360,134.9c0.8,1.3,0.4,2.7,0.3,4c-0.1,0.6-0.3-0.2-0.4-0.4C359.9,137.3,359.9,136.1,360,134.9
	z"/>
<path id="XMLID_112_" class="st3" d="M388.2,179.2c0.2-0.6,0.4-1.2,0.6-1.8c0.6,0.5,0.5,1.2,0.4,1.7
	C389,180.7,388.5,179.6,388.2,179.2z"/>
<path id="XMLID_95_" class="st4" d="M384.4,169.1c0.5,0,0.8,0.3,0.8,0.7c0,0.5-0.4,0.6-0.8,0.8c-0.4,0.1-0.7-0.1-0.7-0.4
	C383.6,169.7,383.9,169.3,384.4,169.1z"/>
<path id="XMLID_110_" class="st5" d="M103.5,87.6c-2.8-0.5-5.4,0.5-7.8,1.6c-5.8,2.7-11.9,4.5-18.2,5.7c-2.5,0.5-4.9,0.6-7-1.4
	c-0.8-0.8-2-1-3.1-1.2c-1-0.2-2.2-0.3-2.9-0.9c-4-3.3-8.4-1.9-12.8-1.3c-4.7,0.7-9.3,1.9-13.8,3.6c-0.1-1.1,2.7-2.1,0-3.2
	c0,0,0.7-0.7,1.1-1c4.7-3,10-4,15.3-5c4.3-0.7,8.7-1,12.9-2c0.2-0.7-0.2-1.2-0.6-1.6c-3.3-4.1-6.3-8.4-11-11.1
	c-3.3-1.9-6-4.4-8.3-7.6c1-0.4,1.8,0.3,2.7,0.3c1,0,1.9,0.3,2.8,0.4c3.8,0.7,7.5,1.3,11.2,2.4c3.7,1,6.9,2.9,9.6,5.7
	c0.4,0.4,0.8,0.8,1.2,1.2c4.2,4.1,5.2,4.2,9.9,0.6c5.7-4.2,12.1-6.2,19.2-6.4c1.1,0.7,2.4-0.7,3.4,0.4c-1.3,1.7-3.1,2.7-5,3.4
	c-2.5,0.9-4.7,2.3-6.4,4.4c-1.1,1.3-2.4,2.4-3.8,3.3c-0.4,0.3-1.2,0.5-1.1,1.1c0.1,0.8,1,0.6,1.5,0.8c2.3,0.9,4.4-0.4,6.5-0.4
	c1,0.2,1.9,0.3,2.9,0c2.4,0.4,4.4,1.6,5.7,3.7c-0.4,0.7-1.2,1-1.7,1.5C104.7,85.1,105.1,87.2,103.5,87.6z"/>
<path id="XMLID_109_" class="st6" d="M106,84.1c0.5-0.5,1.2-0.8,1.9-1c2.7,2.1,5.9,3.9,8.2,7.3c-4.3-0.6-7.8-1.9-11.5-2.8
	c-0.6-0.7-0.2-1.2,0.4-1.5C105.8,85.6,105.8,84.8,106,84.1z"/>
<path id="XMLID_108_" class="st7" d="M106,84.1c0.7,1,1.4,1.9-0.5,2.3c-0.6,0.1-0.9,0.6-0.9,1.3c-0.4,0.4-0.7,0.5-1.1,0
	C104.1,86.3,104.4,84.7,106,84.1z"/>
<path id="XMLID_99_" class="st2" d="M107.5,66.9c-1.1-0.2-2.4,0.4-3.4-0.4c0.5,0,0.9-0.1,1.4-0.1c0.8-0.2,1.7-0.3,2.5,0.1
	C108,66.7,107.8,66.8,107.5,66.9z"/>
<path id="XMLID_98_" class="st8" d="M107.9,66.4c-0.8,0-1.7-0.1-2.5-0.1c0.8-0.6,1.6-0.3,2.5-0.3c0.1,0,0.2,0.1,0.2,0.1
	C108,66.2,108,66.3,107.9,66.4z"/>
<path id="XMLID_97_" class="st9" d="M102.1,79.4c-0.9,0.6-1.9,0.6-2.9,0C100.2,79.4,101.2,79.4,102.1,79.4z"/>
<path id="XMLID_128_" class="st0" d="M167.2,58.6c0-0.1,0-0.2,0-0.2c-0.3-3.1-1.6-5.1-4.7-6.3c-2.8-1.1-4.9-3.3-6.7-5.7
	c-1.6-2.2-3.5-3.9-5.7-5.4c-2-1.4-3.6-3.1-4.6-5.4c-0.6-1-1.1-2.1-0.9-3.4c3.8-3.4,7.8-3.1,12.2-1.2c7.8,3.4,14.9,8.1,22.3,12.4
	c1.8,1,3.6,2.1,5.4,3.1c0.5,0.3,1.5,0.3,1.4,1c-0.1,0.8-1,0.9-1.7,1.1c-0.4,0.1-0.7,0.3-1.5,0.5c4.5,2.7,8.7,5.1,13.1,7.3
	c0.6,0.3,2.4-0.1,1.6,1.9c-0.7,1.8-1.5,1.8-2.8,1.2c-0.4-0.2-0.8-0.5-1.3-0.3c-0.3,0.9,1.2,1.1,0.6,2.3c-3.6-1.4-6.9-3.4-10.2-5.3
	c-3.3-1.8-6.8-1.7-10.4-0.9c-0.5,0.1-0.8,0.9-1.3,1.3c-0.7,0.6-1.1,1.7-2.3,1.3c-0.6-0.5-0.6-1-0.1-1.6
	C168.5,57,168.8,58.9,167.2,58.6z"/>
<path id="XMLID_127_" class="st10" d="M144.6,32.3c0.7,1,1.3,2.1,0.9,3.4c-0.5-0.1-1-0.1-1.4-0.2c-0.7-0.3-1.3-0.2-1.9,0.2
	c-0.9,0.5-1.9,0.6-3.4,0.8C139.8,33.4,142.6,33.5,144.6,32.3z"/>
<path id="XMLID_126_" class="st11" d="M167.2,58.6c1.1-0.5,1.1-1.9,2.2-2.8c0.1,0.9,0.1,1.6,0.2,2.3c-0.2,0.3-0.3,0.7-0.5,1
	c-0.5,0.6-0.7,1.4-1.4,1.8c-0.5,0.3-1,0.5-1.6,0.4c-0.9-0.7-0.3-1.2,0.2-1.7C166.5,59.3,166.8,58.9,167.2,58.6z"/>
<path id="XMLID_125_" class="st12" d="M167.6,60.7c0.3-0.7,0.8-1.2,1.5-1.5c0.3,1.2-0.9,1.7-1.1,2.8c0.7,0.1,1.4,0.1,2.1,0.2
	c0,0.2,0,0.3,0,0.5c-1.9,0-3.8,0-5.7,0c0-0.1-0.1-0.2-0.1-0.3c0.1-0.5,0.6-0.6,1-0.7C166.1,61.7,166.9,61.3,167.6,60.7z"/>
<path id="XMLID_124_" class="st13" d="M166.2,59.6c0.1,0.5-0.6,1,0.1,1.5c0,0.8-0.6,0.6-1.1,0.7c-0.5-0.1-1,0.2-1.4-0.2
	C164.4,60.7,164.9,59.7,166.2,59.6z"/>
<path id="XMLID_123_" class="st14" d="M164.2,62.6c-1.4,1-2.9-0.2-4.6,0.5c0.9-1.2,1.9-1.1,2.8-1.1c0.5,0.5,1.3-0.1,1.9,0.4
	L164.2,62.6z"/>
<path id="XMLID_122_" class="st15" d="M164.2,62.5c-0.6-0.1-1.4,0.4-1.9-0.4c0.5-0.1,1,0,1.4-0.5c0.5,0,1,0,1.4,0
	c0.2,0.1,0.2,0.2,0.2,0.3c-0.1,0.1-0.1,0.1-0.2,0.1C164.9,62.2,164.5,62.3,164.2,62.5z"/>
<path id="XMLID_121_" class="st16" d="M142.2,35.7c0.6-0.4,1.2-1.3,1.9-0.2C143.4,35.6,142.8,35.6,142.2,35.7z"/>
<path id="XMLID_120_" class="st17" d="M148.8,32.9c-0.3,0.1-0.5,0.3-0.7,0.3c-0.4,0-0.6-0.3-0.4-0.6c0.1-0.1,0.4-0.2,0.6-0.2
	C148.5,32.4,148.6,32.7,148.8,32.9z"/>
<path id="XMLID_119_" class="st18" d="M165.2,62c0-0.1,0-0.3,0-0.4c0.4-0.2,0.7-0.3,1.1-0.5c0.4-0.2,0.9-0.3,1.3-0.5
	C167.2,61.9,166.4,62.3,165.2,62z"/>
<path id="XMLID_106_" class="st0" d="M32.8,163.5c1.3-3.3,3.6-5.3,7.2-5.7c1.7-0.2,3.5-0.5,5-1.5c1.1-0.8,1.1-1.5,0-2.2
	c-0.7-0.4-1.4-0.9-2.1-1.1c-4.4-1-7.8-3.4-11-6.4c-1.5-1.4-3.1-2.7-4.9-3.8c1-0.8,1.7,0,2.3,0c4-0.2,7.7,1.3,11.2,2.6
	c1.8,0.7,4.1-0.4,5.5,1.6c2.8-1,4.4,1.5,6.6,2.3c2.7,1,2.6,1.1,2.4-1.6c0.2-1.1,0.2-2.2,0-3.3c1.1-4.1,3.9-6.7,7.3-8.7
	c5-3,10.2-5.8,15.5-8.9c-0.8,3.7-2.5,6.8-5.4,8.8c-4,2.8-5.4,6.3-5.1,11c0.3,4.9,0.1,4.9,4.8,3.3c5-1.7,9.8-4.1,15-5.3
	c0.5-0.1,0.9-0.1,1.4-0.2c1.3,0.3,2.5,0.2,3.8,0.1c0.9,2.7,1,5.6,3.1,8c-6.3-0.5-12,0.2-17.7,1.5c-1.9,0.4-3.3,1.5-4.3,3.1
	c-3,4.5-3,4.5-8.5,7.3c-0.2,0.1-0.3,0.3-0.5,0.5c-0.1,0.3-0.2,0.3-0.4,0c-3,0.2-6.1,0.4-9.1,0.6c-0.2,0-0.3,0.3-0.6,0.3
	c-0.6-0.3-1.6,1-2-0.4c-1.6-0.5-3.1-0.3-4.7-0.1c-2.4-0.2-4.7-0.3-6.4,1.9c-0.5,0.7-1.4,0.5-2.2,0.7c-0.9,0.3-1.4-0.1-1.6-0.9
	c-0.5-2-1.9-2.9-3.9-3.1C33.2,164,33,163.7,32.8,163.5z"/>
<path id="XMLID_105_" class="st6" d="M32.4,163.6c2.8-0.1,5,0.6,5.3,3.9c0,0.4,0.6,0.5,0.9,0.6c-3.3,1-6,3-9,4.5
	c-0.5,0.2-0.8,1-1.4,0.5c-0.6-0.5-0.1-1.2,0.2-1.7C29.7,168.8,31,166.2,32.4,163.6z"/>
<path id="XMLID_104_" class="st19" d="M47.2,165.5c1.6-0.7,3.2-0.3,4.8-0.2c0,0,0.1,0.1,0.1,0.2c0,0.1-0.1,0.1-0.1,0.2
	C50.3,166,48.8,165.8,47.2,165.5z"/>
<path id="XMLID_103_" class="st20" d="M91.8,144.6c-1.3,0.5-2.5,0.6-3.8-0.1C89.3,144.4,90.5,143.9,91.8,144.6z"/>
<path id="XMLID_102_" class="st21" d="M54.5,144.5c0.6,1.1,0.6,2.2,0,3.3C54.3,146.7,54.2,145.6,54.5,144.5z"/>
<path id="XMLID_101_" class="st22" d="M63.5,165.1c0.1-0.1,0.2-0.1,0.4,0c0.1,0.8,0.2,1.5-0.1,2.3C63.3,166.6,63.6,165.8,63.5,165.1
	z"/>
<path id="XMLID_100_" class="st23" d="M53.9,166.1c0.2-0.1,0.4-0.2,0.6-0.3c-0.1,0.6-0.1,1.3-0.2,2C53.7,167.2,54,166.6,53.9,166.1z
	"/>
<path id="XMLID_134_" class="st5" d="M297.5,97.9c-0.9-0.2-2.5,0.7-2.1-1.4c0-0.1-1-0.4-1.5-0.6c5.6-2.2,11.7-3.1,17.1-6
	c-0.3-0.9-1.2-0.5-1.5-1c-1.1-0.6-2.2-0.2-3.3-0.1c-1.4-0.2-2.9-0.2-4.2-0.6c-0.4-0.1-1.7,0.2-1.3-1.1c0.2-0.8,0.1-1.5,1.4-1.7
	c4.2-0.7,8.4-1.4,12.5-2.8c4.5-1.5,8.4-4,12.4-6.5c5-3.1,10-6.2,15.7-7.8c1.6-0.9,2.8-2.1,2.5-4.2c0.6-0.5,1.1-0.9,1.9-0.9
	c1.3,0,2.5,0.2,3.8,0c4.6,1.6,6.3,4.6,4.3,9c-4.5,9.8-10.5,18.5-21.7,21.6c-3.3,0.9-3.4,3.2-3.8,5.6c-1.3,1.4-1.6-0.1-2.2-0.7
	c-0.6,0.5-0.6,2.1-2,1.2c-1.5-3-4.5-3.4-7.2-4.2c-0.5-0.1-1.2,0.3-1.8,0.4c-5.9,1.7-11.7,3.5-17.8,5.3c0.4-1.5,2.4-1.8,2.3-3.4
	C299.8,97.5,298.7,97.8,297.5,97.9z"/>
<path id="XMLID_133_" class="st24" d="M345.1,64c1.1,3,1,3.3-2.5,4.2c-0.2-1.5-1.4-0.6-2.1-0.8c-0.9-0.2-1.9,0.2-2.8-0.3
	c1.1-2.1,3.2-2.4,5.1-2.4C343.8,64.7,344.3,64.2,345.1,64z"/>
<path id="XMLID_132_" class="st25" d="M325.4,99.9c2.4,0.2,0.7-2,1.6-2.7c0.8,0.5,0.9,1.5,1.4,2.3c0.5,0.9,0.9,0.2,1.2-0.1
	c0.4,1.2,2.2,1.6,1.9,3.2c0.5,1.9-0.5,1.4-1.6,1.1c-1.1-0.3-1.3-2-2.7-1.8C326.5,101.4,325.8,100.8,325.4,99.9z"/>
<path id="XMLID_131_" class="st6" d="M327.3,101.9c0-0.7,0.1-1.2,0.9-0.5c0.8,0.7,1.5,1.4,2.3,2c1,0.8,1.2,0.1,1.2-0.8
	c0.6,0.5,1.6,1,1.4,1.7c-0.4,1-1.5,0.3-2.3,0.4c-1.2-0.1-1.9-0.9-2.5-1.8C327.9,102.6,327.6,102.2,327.3,101.9z"/>
<path id="XMLID_130_" class="st26" d="M328.2,102.9c0.9,0.5,1.4,1.5,2.5,1.8c-1.1,0-2.2,0-3.3,0
	C328.1,104.3,328.7,103.9,328.2,102.9z"/>
<path id="XMLID_118_" class="st27" d="M350.8,63.1c-1.3,0.6-2.5,0.6-3.8,0C348.3,62.3,349.5,62.8,350.8,63.1z"/>
<path id="XMLID_117_" class="st28" d="M334.3,104.5c0.6-0.3,1.2-0.4,1.7,0.1c0.1,0.1-0.1,0.7-0.3,0.8
	C334.9,105.7,334.8,104.9,334.3,104.5z"/>
<path id="XMLID_116_" class="st29" d="M306.2,88.8c1.1-0.7,2.2-0.4,3.3-0.2c0,0,0.1,0.1,0,0.2c0,0.1-0.1,0.1-0.1,0.2
	C308.4,88.9,307.3,88.9,306.2,88.8z"/>
<path id="XMLID_115_" class="st19" d="M297.5,97.9c1.1-0.6,2.3-0.7,3.3,0.1C299.8,98,298.7,98,297.5,97.9z"/>
<path id="XMLID_156_" class="st0" d="M273.7,49c3.5-0.2,5.9,1.5,7.6,4.4c0.2,0.8-0.3,1.1-0.9,1.4c-2.7,0.3-2.6,2.7-3.5,4.4
	c-1.7,0.1-3.3-0.1-4.6-1.4c-0.9-0.9-2.2-1-3.4-0.6c-2.3,0.7-4.7,1.1-7,1.6c-1.6,0.4-3.7,0-5.6-0.1c-1.1-0.2-2.2-0.4-3.3,0.1
	c-0.5,1.6-1.7-0.1-2.4,0.4c-0.2,0.2-0.3,0.2-0.4,0c-2.2-1.6-5-1.8-7.2-3.4c-1-0.7-2.2-0.8-2.3-2.8c0-1.5-1.9-2.8-3.7-3.3
	c-1.4-0.4-2.9-0.7-4.4-1c-2.2-0.5-4.4-0.6-6.6,0c-0.9,0.2-1.8,0.5-2.7,0.7c1.5-1.2-2.1-4.3,1.7-4.6c4-0.2,8,0.2,12,0
	c0.9-0.1,1.7-0.1,2.6,0.3c0.9,0.6,1.8,0.3,2.7,0.1c3.1-0.1,3-0.1,2.9-3.3c-0.1-5.3-2-9.5-7-12.1c-3-1.5-4.8-4.3-6.1-7.4
	c0.7-0.6,1.1-0.1,1.6,0.1c4.9,2.1,9.8,4.1,14.7,6.3c3.9,1.8,7.3,4.2,8.7,8.6c0.2,1.6-0.5,3.2,0.2,4.7c0.8,0.7,1.5,0.1,2.1-0.3
	c1.3-0.9,2.5-2,4-2.6c1.8-0.8,3.5-1.8,5.8-1.9c1.3-0.1,3-0.9,4.1-1.8c3.1-2.5,6.9-2.6,10.3-4c0.6-0.2,0.7,0.1,0.6,0.6
	c-1.6,1.8-3.3,3.7-4.9,5.5c-2.5,2.9-5.4,5.1-9,6.5c-1.2,0.5-3,1.2-2.7,2.6c0.3,1.3,2.1,1.6,3.6,1.8C271.9,48.8,272.8,48.5,273.7,49
	c-0.6,0.6-1.4,0.2-1.6,0.3C272.2,49.2,273,49.6,273.7,49z"/>
<path id="XMLID_155_" class="st6" d="M280.3,54.4c0.3-0.3,0.7-0.7,1-1c0.9,2.5,3.1,4.1,4.4,6.4c0.5,1,1.1,1.9,1.5,3.4
	c-1.9-1.4-3.5-2.5-4.9-3.7c-0.7-0.6-1.5-0.9-2.4-0.8C279.9,57.3,280.2,55.9,280.3,54.4z"/>
<path id="XMLID_154_" class="st30" d="M280.3,54.4c0.8,1.5,0.5,3-0.5,4.3c0,0,0,0,0,0c-0.3,0.3-0.5,0.7-1.1,0.7
	c-0.4-0.9-1-0.1-1.5-0.2l-0.2,0c0,0-0.2-0.1-0.2-0.1C276.9,55.5,277.3,54.9,280.3,54.4z"/>
<path id="XMLID_153_" class="st31" d="M237.1,44.9c-4,0.7-8,0.6-12,0C229.1,44.1,233.1,44.5,237.1,44.9z"/>
<path id="XMLID_152_" class="st6" d="M278.8,59.2c0.3-0.2,0.7-0.3,1-0.5c-0.3,1.1,1,1.7,1,2.7c0.2,0.7-0.2,0.8-0.7,0.7
	c-0.4-0.4-0.9-0.9-1.3-1.3C278.6,60.3,278.4,59.7,278.8,59.2z"/>
<path id="XMLID_151_" class="st27" d="M226.1,48.7c2.1-1.2,4.4-0.4,6.7-0.4c0,0,0.1,0.1,0,0.2c0,0.1-0.1,0.1-0.1,0.2
	C230.4,48.7,228.2,48.7,226.1,48.7z"/>
<path id="XMLID_150_" class="st20" d="M257.3,42.4c-1-1.5-0.7-3.1-0.2-4.7C257.7,39.2,257.3,40.8,257.3,42.4z"/>
<path id="XMLID_149_" class="st6" d="M278.8,59.2c0,0.5,0,1.1-0.1,1.6c-0.5-0.5-1-1-1.5-1.6C277.8,58.6,278.2,57.7,278.8,59.2z"/>
<path id="XMLID_148_" class="st20" d="M242.3,45.3c-0.9,0.8-2.1,0.5-3.1,0.3c-0.7-0.2,0.2-0.3,0.3-0.4
	C240.5,45.2,241.4,45.3,242.3,45.3z"/>
<path id="XMLID_147_" class="st2" d="M252.9,58.8c1.1-0.9,2.2-0.7,3.3-0.1C255.1,58.7,254,58.7,252.9,58.8z"/>
<path id="XMLID_146_" class="st32" d="M280.1,62.1c0.2-0.2,0.5-0.5,0.7-0.7c0.5,0.7,0.9,1.4,1.4,2.1c-0.3,0.3-0.6,0.3-1,0
	C280.9,63,280.5,62.6,280.1,62.1z"/>
<path id="XMLID_145_" class="st33" d="M284.1,32.3c-0.2-0.2-0.4-0.4-0.6-0.6c0.4-0.5,1.1-0.8,1.4-0.5
	C285.4,31.9,284.5,32,284.1,32.3z"/>
<path id="XMLID_144_" class="st34" d="M250.1,59.2c0.1,0.1,0.3,0.1,0.4,0c0,0.7,0,1.4,0,2.1c-0.1,0-0.3,0-0.4,0
	C250.1,60.6,250.1,59.9,250.1,59.2z"/>
<path id="XMLID_143_" class="st35" d="M281.2,63.5c0.3,0,0.6,0,1,0c0.3,0.2,0.5,0.5,0.2,0.7C281.8,64.6,281.5,63.9,281.2,63.5z"/>
<path id="XMLID_142_" class="st36" d="M278.4,53.7c-0.5-0.1-0.5-0.5-0.5-0.9c0-0.3,0.1-0.7,0.5-0.7c0.4,0,0.7,0.3,0.7,0.8
	C279.1,53.4,278.8,53.6,278.4,53.7z"/>
<path id="XMLID_141_" class="st37" d="M273.7,49c-0.8,0.8-1.6,0.6-2.5,0.2C272,49.2,272.8,49.1,273.7,49C273.6,49,273.7,49,273.7,49
	z"/>
<text id="XMLID_166_" transform="matrix(0.7527 0.4724 -0.5316 0.847 352.9237 136.6311)"><tspan x="0" y="0" class="st38 st39 st40 st41">	</tspan><tspan x="42" y="0" class="st38 st39 st40"> </tspan><tspan x="9.5" y="8.4" class="st38 st39 st40">SOCIAL </tspan><tspan x="2" y="16.8" class="st38 st39 st40">ATTRACTION</tspan></text>
<text id="XMLID_20_" transform="matrix(1 0 0 1 242.5994 51.9627)" class="st38 st39 st42">GALLERY</text>
<text id="XMLID_21_" transform="matrix(0.9397 -0.3419 0.3419 0.9397 318.5376 90.224)" class="st38 st39 st42">CONTACT</text>
<text id="XMLID_22_" transform="matrix(0.869 -0.4947 0.4947 0.869 47.5998 163.6198)" class="st38 st39 st42">EVENTS</text>
<text id="XMLID_23_" transform="matrix(1 0 0 1 68.8976 86.7394)" class="st38 st39 st42">ABOUT</text>
<text id="XMLID_24_" transform="matrix(1 0 0 1 158.1561 45.8664)" class="st38 st39 st42">TEAM</text>
</svg>
