<?xml version="1.0" encoding="utf-8"?>
<!-- Generator: Adobe Illustrator 19.0.0, SVG Export Plug-In . SVG Version: 6.00 Build 0)  -->
<svg version="1.1" id="Layer_1" xmlns="http://www.w3.org/2000/svg" xmlns:xlink="http://www.w3.org/1999/xlink" x="0px" y="0px"
	 viewBox="-90 182.7 841.9 349.3" style="enable-background:new -90 182.7 841.9 349.3;" xml:space="preserve">
<style type="text/css">
	.st0{fill:#9F9D9D;}
	.st1{fill:#F9B958;}
	.st2{fill:#F8B958;}
	.st3{fill:#FAF4E7;}
	.st4{fill:#F7B858;}
	.st5{fill:#F9F4E7;}
	.st6{fill:#9E9D9D;}
	.st7{fill:#9F9D9C;}
	.st8{fill:#F6B859;}
	.st9{fill:#F6B858;}
	.st10{fill:#A09D9D;}
	.st11{fill:#F7F0E2;}
	.st12{fill:#D5A357;}
	.st13{fill:#C4985A;}
	.st14{fill:#E1AB5E;}
	.st15{fill:#AC9683;}
	.st16{fill:#A29C98;}
	.st17{fill:#9F9D9B;}
	.st18{fill:#F4B658;}
	.st19{fill:#DEC9BC;}
	.st20{fill:#030202;}
	.st21{fill:#F5EFE2;}
	.st22{fill:#A09D9C;}
	.st23{fill:#A19D9C;}
	.st24{fill:#EFDBCD;}
	.st25{fill:#E9DED1;}
	.st26{fill:#F9F3E6;}
	.st27{fill:#EDCCBF;}
	.st28{fill:#CBA177;}
	.st29{fill:#A29C9A;}
	.st30{fill:#090405;}
	.st31{fill:#F8B957;}
	.st32{fill:#F8F2E5;}
	.st33{fill:#9F9FA2;}
	.st34{fill:#9D9C9C;}
	.st35{fill:#A4A4A4;}
	.st36{fill:#C1BCB4;}
	.st37{fill:#F9F6E6;}
	.st38{fill:#F8B858;}
	.st39{fill:#B7B8B5;}
	.st40{fill:#B78B86;}
	.st41{fill:#9E9C99;}
	.st42{fill:#E2AC57;}
	.st43{fill:#070305;}
	.st44{fill:#BBB4AE;}
	.st45{fill:#D9A762;}
	.st46{fill:#8C8A8A;}
	.st47{fill:#BA9361;}
	.st48{fill:#ECB35B;}
	.st49{fill:#E2B25D;}
	.st50{fill:#E0A652;}
	.st51{fill:#9E9B99;}
	.st52{fill:#C69654;}
	.st53{fill:#9F9589;}
	.st54{fill:#D4A35C;}
	.st55{fill:#9E9D9B;}
	.st56{fill:#9B9898;}
	.st57{fill:#A29D9C;}
	.st58{fill:#F6B757;}
	.st59{fill:#F5B857;}
	.st60{fill:#F5B858;}
	.st61{fill:#F5B757;}
	.st62{fill:#9C9B9B;}
	.st63{fill:#F4B756;}
	.st64{fill:#9F9C9B;}
	.st65{fill:#9C9999;}
	.st66{fill:#F1B35A;}
	.st67{fill:#F4B759;}
	.st68{fill:#9C9898;}
	.st69{fill:#F1B558;}
	.st70{fill:#ECE7DB;}
	.st71{fill:#A29C99;}
	.st72{fill:#9D9C9A;}
	.st73{fill:#F1B55A;}
	.st74{fill:#E9B15A;}
	.st75{fill:#9C9A98;}
	.st76{fill:#9D9996;}
	.st77{fill:#9D9A98;}
	.st78{fill:#A6A4A6;}
	.st79{fill:#ECB360;}
	.st80{fill:#EAAE58;}
	.st81{fill:#979596;}
	.st82{fill:#A29998;}
	.st83{fill:#DEAB59;}
	.st84{fill:#A59E99;}
	.st85{fill:#8F8D8E;}
	.st86{fill:#D7A454;}
	.st87{fill:#898786;}
	.st88{fill:#DAD5CC;}
	.st89{fill:#C69850;}
	.st90{fill:#9D968D;}
	.st91{fill:#8E8787;}
	.st92{fill:#827F80;}
	.st93{fill:#E4A951;}
	.st94{fill:#DEAA66;}
	.st95{fill:#DCD8CE;}
	.st96{fill:#967C60;}
	.st97{fill:#D8A04E;}
	.st98{fill:#6C6766;}
	.st99{fill:#A6906B;}
	.st100{fill:#867662;}
	.st101{fill:#615D5E;}
	.st102{fill:#C9C3BA;}
	.st103{fill:#AA9F94;}
	.st104{fill:#0D0607;}
	.st105{fill:#242423;}
	.st106{fill:#D7B57D;}
	.st107{fill:#8C8A87;}
	.st108{fill:#D29D52;}
	.st109{fill:#EBA45B;}
	.st110{fill:#ED1F24;}
	.st111{stroke:#000000;stroke-miterlimit:10;}
	.st112{fill:#050000;stroke:#000000;stroke-miterlimit:10;}
	.st113{display:none;fill:#FFFFFF;}
	.st114{display:none;fill:none;stroke:#000000;stroke-miterlimit:10;}
</style>
<g>
	<path d="M258.2,331.3c0,0,9.5,13.2,13.8,17.5l6.6,6.5c0,0-12.1-8.8,4.3,12c0,0-18.8-24.7-7.8,0.9c0,0,14,31.1,56.5,31.1
		c0,0,48.4,3.2,65.1-29.2c0,0,14.1-23-3.9-3.5c0,0,14.9-23.7-3.1-3.8c0,0,16.3-25.6,17-32.3c0.8-6.7-1.5-0.1-5.3,1.4
		c0,0,9.6-13.2,11.9-13.7c2.3-0.5,5.4-18.5-8.7-2.6c0,0-14.3,13.6,4-12c0,0,6.6-9.7-8.7,3.3c0,0-6.2,0.6,5.7-13.7c0,0,8.9-4,0.8-9.9
		c0,0-5.8-1.8-5.8,7.3c0,0-6.4,8-6.7,11.1c0,0,2.6-9.6-3-11.1c0,0,7.8-17.9-5-15.3c0,0-6.6-19.7-14.3-6.9c0,0,1.4-32.1-10.6-1.3
		c0,0,4.3-30.3-10.2,0c0,0,6.8-44.1-5.9-19.3c0,0-7.4-22.2-11.7,5.3c0,0-8.5-35.2-10.2,6.5c0,0-9.2-42.3-11,0.8
		c0,0-7.7-17.1-8.6,4.2c0,0-8.9-26.4-10.2,0.4c0,0-7.5-5.3-4.2,11.6c0,0-9.2-16.4-6,6.1c0,0-13.1-20.5-7.7,3.8c0,0-1.2,5.3-3.9,6.3
		c0,0-2.3-9.9-9.8-8.5c0,0-10.3-1.2-2.5,11c0,0,1.4,1.7,0.4,3.2c0,0-9.2,4.1-1.6,8.6c0,0,2.7,6.5,2.3,7.6c-0.4,1.1,0.4-1.1,0.4-1.1
		s-7.4,7.8-1.2,12.3c0,0-4.5,3.8-1,8.6L258.2,331.3z"/>
	<path class="st0" d="M333.4,198.7c1.8,2.8,1.3,6.1,1.8,9.2c0.4,2.9,0.6,5.8,0.8,8.7c1.5,2.1,1.4,4.7,1.5,7.1c0.1,3.2,0,6.4,0.2,9.6
		c0,1.1,0.1,2.2,0.3,3.3c0.3,3.6-0.3,7.2,0.1,10.8c0.3,6.1-1.1,12.1-1.4,18.1c-0.2,4.8-0.9,9.5-0.9,14.3c0,1.8,0.2,3.3,1.5,4.7
		c1.9,2.1,2.2,4.8,0.7,7.2c-2.4,3.9-0.8,8-0.6,12c0.1,1.6,1.6,2,2.9,2.3c2.1,0.5,4.4,0.6,6.2,2.3c0.5,1.1,0.6,2.2-0.6,3
		c-3.4-0.5-6.6-1.7-10-1.8c-4.1-0.1-8.2,0.1-12.2,1.2c-1.1,0.3-2.6,0.9-3.1-0.9c-0.4-1.7,0.9-2.2,2.1-2.7c1.4-0.6,2.9-0.9,4.4-1.1
		c1.8-0.4,3-1.5,2.9-3.5c-0.1-3.8,1.2-7.6-1.1-11.3c-1.7-2.8-0.5-5.4,3.2-8.7c1.3-3.3,0.7-6.7,0.6-10c-0.4-11.3-0.2-22.6-0.2-33.9
		c0-11.8-0.3-23.7,0.5-35.5C332.9,201.7,333,200.2,333.4,198.7z"/>
	<path class="st1" d="M333.4,198.7c0,27.3,0,54.7,0,82c0,1.1,0.8,2.8-1.2,3.1c-1-0.8-1.2-2-1.3-3.2c-0.6-9.8-1.9-19.6-2.2-29.5
		c0.4-3.4,0.2-6.7,0.1-10.1c-0.1-1.9,0.1-3.7,0.5-5.5c0-0.6,0.2-1.2,0.1-1.8c-0.2-4.4-0.3-8.9,0.2-13.3c0.2-1.4,0.3-2.8,1.3-3.9
		c0.5-4.8,0.9-9.6,1.4-14.4C332.4,200.9,332.4,199.6,333.4,198.7z"/>
	<path class="st2" d="M344.8,217.1c0.8-4.4,1.6-8.8,2.5-13.2c0.2-1,0.1-2.4,1.5-2.8c0.6,12-1.1,23.8-1.8,35.7
		c-0.4,6.7-1.5,13.4-1.8,20.1c0,2.8-1.1,5.5-0.4,8.3c0,3.3-0.8,6.5-1.2,9.7c-0.2,1.3-0.5,3.1-1.8,3c-1.6-0.1-1.3-1.9-1.3-3.2
		c-0.1-7.9,0-15.9,0-23.8c0-4.9,0.6-9.7,1.2-14.5c0-0.8,0-1.5,0.1-2.3c0.6-4.3,1.1-8.5,1.6-12.8
		C343.5,219.7,343.8,218.2,344.8,217.1z"/>
	<path class="st3" d="M304.3,219.7c0.4-3.7-0.7-7.4,0.2-11.1c0-0.1,0.1-0.1,0.2-0.1c0.1,0,0.2,0.1,0.2,0.2c4,15.5,5.8,31.5,8.2,47.3
		c0.7,4.5,1.1,9,2.3,13.4c0.6,4.5,1.9,9,0.7,13.6c-0.6,0.8-1.2,0.3-1.8-0.1c-1.7-2.6-1.9-5.7-2.5-8.6c-1-5.2-3.5-10.2-2.2-15.8
		c0.4-1.6-1.2-2.6-1.9-3.9c-1.7-6.1-2.3-12.3-2.6-18.6c-0.2-0.7-0.4-1.4-0.5-2.2c-0.4-3.5-0.8-7.1-1.1-10.6
		C303.7,221.9,303.5,220.7,304.3,219.7z"/>
	<path class="st0" d="M317.7,202.1c0.1-0.4,0.1-1.1,0.2-1.1c0.9-0.3,0.9,0.5,1.1,1.1c0.8,3.6,1.5,7.1,2.3,10.7
		c0.3,1.5,0.5,3,0.8,4.4c1.1,1.2,1.3,2.6,1.5,4.2c0.5,4.2,1,8.4,1.6,12.6c0.1,0.7,0.1,1.5,0.1,2.2c0.9,3,0.1,6.2,1.1,9.2
		c0.3,2.4,0.4,4.9-0.1,7.3c-0.1,0.4-0.2,0.7-0.4,1c-1.2,2.8-0.7,5.6-0.1,8.4c0.2,4.1,0.1,8.2,0,12.3c0,0.9,0,2.2-1.2,2.2
		c-0.9,0.1-1.2-1-1.5-1.8c-0.5-1.3-0.7-2.7-0.7-4.1c0.3-2.2,0.8-4.3,0-6.5c-0.2-1.8,0-3.7-0.7-5.5c-1-15-2.6-29.9-3.6-44.9
		C317.9,209.8,318.2,205.9,317.7,202.1z"/>
	<path class="st3" d="M317.7,202.1c1.5,3.5,1.2,7.4,1.4,11.1c1.1,15.2,2.9,30.4,3.4,45.6c0.2,0.9,0.7,1.8-0.6,2.3
		c-1.3-0.6-1.5-2-1.7-3.2c-0.8-4.7-1.9-9.3-2.9-13.9c-0.1-2.6-1.1-5.2-0.6-7.8c-0.1-0.8,0-1.6,0-2.3c-0.2-3.5-0.4-7.1-0.7-10.6
		c-0.2-1.9-0.3-3.9,1-5.5C317.5,212.5,316.7,207.2,317.7,202.1z"/>
	<path class="st4" d="M358.2,218.7c0.8-2.5,1.7-5,2.5-7.5c1.4,0.1,1,1.2,1.2,2.1c0.1,3.6-0.5,7.1-1.1,10.6
		c-1.6,9.9-2.9,19.9-4.8,29.8c-1.1,3.5-0.9,7.3-1.6,10.9c-0.3,1.6-0.3,3.3-1.7,4.3c-1.9-0.8-1.1-2.8-1.6-4.2
		c0-5.4-0.3-10.9,0.2-16.3c1.2-4,1.3-8.3,2.4-12.3c0-0.9,0.4-1.7,0.5-2.6c0.6-3.9,1.6-7.8,2.5-11.7
		C357,220.7,357.4,219.6,358.2,218.7z"/>
	<path class="st0" d="M314.7,269.4c-1.8-6.3-2.3-13-3.4-19.4c-2.2-12.9-4.2-25.8-6.2-38.8c-0.1-0.8-0.1-1.7-0.2-2.6
		c2.2,3,2.2,6.9,3.7,10.2c2,2.2,1.9,5.3,2.7,8c0.6,2.1,1,4.4,1.3,6.6c0.1,0.9,0.5,1.7,0.6,2.6c1,2.9,0.8,6.2,1.8,9.1
		c0.3,6.6,0.5,13.1,0.8,19.7C315.9,266.5,316,268.2,314.7,269.4z"/>
	<path class="st5" d="M283.9,234c-0.1-1.1-0.1-2.2-0.2-3.3c-0.1-0.8-0.6-1.8,0.8-1.8c4.5,10.7,7,22.2,10.4,33.3
		c1.2,3.9,2.1,7.9,3.6,11.7c0.7,2.2,1.3,4.4,1.2,6.7c-0.2,0.7-0.4,1.3-1.2,1.5c-1-0.3-1.4-1.2-1.8-2.1c-1.9-5.1-4.6-9.9-6.5-15
		c-0.6-2.3-1.2-4.5-1.9-6.7c-1.9-3.7-1.3-7.9-1.8-11.9c-0.8-3.5-1.5-7.1-2.3-10.6C284.2,235.1,284,234.5,283.9,234z"/>
	<path class="st6" d="M344.4,257c0.6-8.3,1.2-16.6,1.8-24.9c0.8-10.4,1.7-20.7,2.6-31.1c1.2,4.2,0.8,8.5,0.9,12.8
		c0,1.3,0.1,2.6,0.2,3.9c1.1,1.4,1.2,3,1,4.6c-0.5,3.8-0.4,7.6-0.7,11.4c0,0.8,0,1.5,0,2.3c0.4,2.3-0.6,4.4-0.6,6.6
		c-0.8,4.1-2,8.2-2.7,12.3c-0.2,1-0.5,1.9-1.4,2.4C345,257.3,344.7,257.2,344.4,257z"/>
	<path class="st0" d="M382.5,231.6c0,0.8,0,1.6,0,2.4c-0.2,0.6-0.3,1.2-0.5,1.8c-0.3,1.6-0.6,3.2-0.8,4.8c0.7,1.1,0.1,2.3,0,3.4
		c-0.5,2.6-1.4,5-1.7,7.6c-0.5,1.5-1,3-1.2,4.6c-0.2,0.8-0.4,1.5-0.5,2.3c-0.6,2.3-1.3,4.7-1.8,7c-1.6,4.7-3.9,9.1-5.7,13.7
		c-0.4,0.9-0.8,1.8-1.8,2.1c-0.5,0-0.9-0.4-1.1-0.9c-0.6-2.5,0.3-4.8,0.9-7.1c0.4-0.9,0.7-1.8,0.8-2.8c0.4-1.1,0.7-2.2,1-3.3
		c3-11.1,6.3-22.1,9.7-33.1c0.5-1.7,0.5-4.1,2.8-4.8C382.8,230.2,382.8,230.9,382.5,231.6z"/>
	<path class="st0" d="M373.7,222.5c-0.5,3.8-1,7.6-1.5,11.4c0.2,0.9,0.3,1.7,0.2,2.6c-0.7,6.2-2,12.2-3.2,18.3
		c-2.6,5.8-4.9,11.6-6.7,17.7c-0.3,1.2-0.7,2.6-2.4,2.3c-0.3-0.2-0.4-0.5-0.5-0.9c0.7-4.2,1.9-8.3,2.6-12.4c0.6-1.4,0.5-3,1-4.5
		c2.8-12.8,5.5-25.7,8.9-38.4c0.5-0.8,0.4-2,1.3-2.7C374.4,218.2,373.5,220.3,373.7,222.5z"/>
	<path class="st7" d="M355.2,253.7c1.7-11,3.4-22.1,5.1-33.1c0.4-2.5,0.7-4.9,1-7.4c1-0.9-1-2.9,1.1-3.3c0,3.3,0.1,6.5,0.1,9.8
		c1.3,2.5,0.3,5.1,0.3,7.6c0,2.1-0.4,4.3-0.7,6.4c-0.1,0.9-0.5,1.8-0.5,2.7c-0.6,6-1,12.1-2.6,17.9c-1.2,1.2-1.9,3-3.6,3.4
		C354.5,256.5,354.9,255.1,355.2,253.7z"/>
	<path class="st2" d="M372.9,218.5c-2.8,12.5-5.6,25-8.4,37.5c-0.1,0.5-0.2,1.1-0.3,1.6c-0.6,0.3-1.1,0-1.6-0.4
		c-0.9-0.9-1.7-1.8-1.8-3.3c0.9-6.1,3-11.9,4.5-17.8c0.1-0.8,0.5-1.6,0.6-2.4c0.9-3,1.8-6.1,2.8-9.2c0.4-1.1,0.9-2.2,1.8-2.9
		c0.6-1.3,1.2-2.6,1.8-3.9C372.8,217.7,373.1,217.8,372.9,218.5z"/>
	<path class="st7" d="M293.5,216.5c1.7,1.2,1.8,3.5,2.9,5.2c1.8,1.3,2.1,3.6,2.7,5.5c0.7,2.1,1.3,4.3,1.9,6.4c0,0.9,0.5,1.6,0.6,2.4
		c1.6,6,3.7,11.9,4.5,18.1c-0.2,1.4-0.9,2.3-2,2.9c-0.7,0.3-1.3,0.4-1.9-0.1c-0.8-0.8-1.1-1.8-1.3-2.9c-2.3-11.2-5.3-22.3-7.3-33.6
		c-0.1-0.6,0-1.3-0.2-1.9C293.2,217.9,293.1,217.2,293.5,216.5z"/>
	<path class="st8" d="M276.5,275c-1.1-5.9-3.7-11.1-5.5-16.7c-0.2-0.6-0.4-1.2-0.6-1.8c0-2.7-2.3-5-1.2-7.9
		c2.6,3.3,3.9,7.3,5.5,11.1c2.9,6.7,5.7,13.4,8.4,20.1c0.3,0.8,0.6,1.6,0.5,2.5c-0.1,0.5-0.4,0.9-0.8,1.1
		C279.8,281.4,278.2,278.2,276.5,275z"/>
	<path class="st7" d="M395.4,258.3c-1.2,5.9-3.8,11.3-5.6,17c-0.4,4.2-2.7,7.1-5.8,9.3c-1.1-0.5-1.1-1.6-1.1-2.6
		c2.8-7.1,5.4-14.4,9-21.1c0.7-1,1.7-1.8,1.5-3.3c0.6-2.3,0.7-4.9,3.2-6c0.8,0.4,0.7,1,0.4,1.7c-0.2,1.1-0.4,2.1-0.6,3.2
		C396.1,257,395.7,257.7,395.4,258.3z"/>
	<path class="st9" d="M391.8,276.6c3.6-5.7,7.1-11.4,10.7-17.1c0.4-0.2,0.8-0.4,1.3-0.5c0.4,0.8-0.1,1.6-0.2,2.4
		c-2.3,5.7-5.4,11.1-8.1,16.5c-1.1,2.3-2.1,4.6-3.4,6.8c-0.6,1.1-1.1,2.3-2.5,2.6c-0.5-0.1-0.8-0.5-1-1
		C389.1,282.8,389.5,279.3,391.8,276.6z"/>
	<path class="st10" d="M264.4,259.3c3.4,5.5,6.9,11.1,10.3,16.6c1.7,3.4,3.1,6.8,2.9,10.8c-1.7,1.1-2-0.7-2.5-1.6
		c-2.8-5.3-5.6-10.5-8-16c-1.1-2.5-2.7-4.8-3.6-7.5c-0.3-1.2-0.7-2.2-1.3-3.2l-0.2-0.2C263.4,256.6,263.4,259.3,264.4,259.3z"/>
	<path class="st11" d="M260.3,315.7c-2.9-4.1-5.8-8.3-8.7-12.4c-0.4-0.4-0.7-0.8-1.1-1.1c-0.3-0.3-0.7-0.5-1-0.8
		c-0.8-1.2-2-2.2-1.3-4c1.9-0.8,2.6,1,3.6,1.9c0.8,0.8,1.3,1.8,2,2.7c0.3,0.3,0.6,0.6,0.8,1c0.6,0.8,1.3,1.4,2,2.1
		c1.6,1.7,3.1,3.3,3.9,5.7c0.5,1.4,1.7,1.8,2.7,2.5c0.9,0.9,1.6,1.9,0.4,3.1C262.4,316.9,261.2,317,260.3,315.7z"/>
	<path class="st12" d="M362.5,209.9c-1,0.8-0.3,2.4-1.1,3.3c-0.1-0.7,0-1.5-0.6-2c0.1-1,0.2-2,1.1-2.4
		C362.4,208.6,362.5,209.4,362.5,209.9z"/>
	<path class="st13" d="M293.5,216.5c0,0.6,0,1.1,0,1.7c0.3,1.4,0.7,2.9-0.1,4.3c-0.1,0-0.3-0.1-0.4-0.1
		C293.3,220.4,292,218.4,293.5,216.5z"/>
	<path class="st14" d="M372.9,218.5c-0.2-0.2-0.4-0.5-0.6-0.7c0.2-0.8,0.4-1.6,1.3-1.7C373.4,216.9,373.5,217.8,372.9,218.5z"/>
	<path class="st15" d="M403.1,261c0.2-0.7,0.4-1.4,0.6-2c0.2-0.1,0.4-0.1,0.6,0c-0.1,0.9-0.2,1.8-0.3,2.7c-0.2,0.1-0.4,0.1-0.6,0
		C403.3,261.4,403.2,261.2,403.1,261z"/>
	<path class="st4" d="M392.6,300.8c-1.8-0.6-2.2-1.8-1.2-3.6c0.6-1.1,1-2.3,1.4-3.5c1.8-4.8,5.1-8.5,7.7-12.7
		c0.5-0.7,0.9-1.4,1.5-2.1c0.7-0.7,1.2-1.6,2.3-1.7c1.3-1.5,2.5-3,3.8-4.4c0.3-0.4,0.8-0.9,1.2-0.4c0.6,0.6-0.1,1.1-0.3,1.6
		c-2.1,3.7-3.5,7.9-6.6,10.8c-0.6,0.9-1.2,1.9-1.8,2.8C398.8,292.6,396.4,297.1,392.6,300.8z"/>
	<path class="st16" d="M402.4,284.7c1.9-3.8,3.7-7.7,6.6-10.8c0.3,2-1.1,3.4-1.5,5.1c-0.3,0.6-0.5,1.3-0.8,1.9
		c0.2,1.3-0.4,2.1-1.4,2.7C404.3,284.1,403.4,284.4,402.4,284.7z"/>
	<path class="st17" d="M274.1,293.8c0.4,1,0.7,2,1.2,2.9c0.9,1.8,0.3,2.8-1.3,3.3c-3.6-2.4-5-6.4-6.5-10.4c-0.6-1.9-1.4-3.7-3-4.8
		c-3.5-3.8-5.7-8.3-7.2-13.3c2.3,1.2,3.4,3.8,5.3,5.4c1.1,0.3,1.7,1.3,2.3,2.1c0.4,0.7,1,1.3,1.5,2
		C269.1,285.2,272.4,288.9,274.1,293.8z"/>
	<path class="st18" d="M257.3,271.5c1.9,4.7,5.4,8.5,7.2,13.3c-0.8-0.2-1.7-0.4-2.5-0.6c-1.4-0.5-1.8-1.7-1.8-3.2
		c-0.2-0.4-0.4-0.8-0.5-1.2c-0.1-0.2-0.1-0.5-0.2-0.7c-0.8-2-1.6-4.1-2.4-6.1C256.9,272.5,256.4,271.8,257.3,271.5z"/>
	<path class="st19" d="M263.2,262.3c-0.1,0-0.3-0.1-0.4-0.2c-0.3-1.2-0.5-2.4-0.8-3.6c1.3,0.2,1.3,1.5,1.8,2.4
		C263.5,261.3,263.8,262.1,263.2,262.3z"/>
	<path class="st20" d="M260.3,315.7c1.2,0,2.4,0.1,3.6,0.1c1.9,0.1,2.2,1.9,3,3.2c0.2,2.6,1.5,4.3,3.4,5.8c1.9,1.5,3.8,3.2,5,5.5
		c-0.4,2.9-1.9,4.6-4.7,4.9c-1.5-0.7-2.6-2.1-3.6-3.4c-2-2.6-4-5.1-7.3-6c-2.1-0.6-3.1-2.6-3.4-5c0-1.3,0.2-2.5,1.4-3.2
		C258.6,317,259.5,316.4,260.3,315.7z"/>
	<path class="st21" d="M257.2,321.1c0.3,1.8,1.1,3.6,2.8,3.8c3.7,0.5,5.5,3.5,7.6,6.1c1.1,1.3,2.1,2.6,3.2,3.8
		c-0.1,0.5-0.4,0.8-0.8,1c-4.1-1.2-7.1-4.6-10.6-6.9c-0.7-0.9-1.3-1.9-2-2.8c-0.4-0.6-0.8-1.1-0.9-1.9c-3.1-4.2-6.8-7.8-9.6-12.2
		c-0.2-0.6,0.1-0.9,0.5-1.1C251.6,313.3,255.3,316.2,257.2,321.1z"/>
	<path class="st22" d="M242,322.2c0.6-1,0.6-1.1,1.2-0.8c1.9,1,3.8,2,5.7,3.1c1.2,0.3,2.3,0.7,3.3,1.3c2.1,1.4,4.2,2.8,6.2,4.5
		c1.8,2.2,3.3,4.6,5.3,6.6c0.6,0.7,1.3,1.4,0.9,2.6c-0.8,0.6-1.6,0.2-2.2-0.3c-5.7-4.8-11.8-9-17.3-14.2
		C244.1,323.9,243.1,323,242,322.2z"/>
	<path class="st23" d="M257.2,321.1c-2.8-3.7-6.4-6.6-9.5-9.9c-1.4-0.6-2.3-1.5-2.6-3.1c5,2.1,8.6,6.3,12.8,9.7
		C257.6,318.9,257.4,320,257.2,321.1z"/>
	<path class="st24" d="M245,308.1c0.9,1,1.7,2.1,2.6,3.1c-0.2,0.3-0.5,0.6-0.7,0.8C246.1,310.8,244.4,310.1,245,308.1z"/>
	<path class="st25" d="M242,322.2c1.5-0.2,2.3,1.1,3.2,2.1c-0.1,0.4-0.3,0.7-0.7,0.8c-0.4-0.3-0.8-0.6-1.2-0.8
		C242.8,323.6,242.4,322.9,242,322.2z"/>
	<path class="st0" d="M289.9,267c1.4,6.6,2.9,13.1,4.3,19.7c-1.4-3.2-4.3-5.6-4.3-9.4c-0.8-0.8-1.2-1.9-1.7-2.9
		c-3.2-6.8-5.1-14.1-7.8-21.1c-1.8-4.5-3.3-9.1-4.3-13.8c-0.1-0.5,0-1,0.3-1.4c2.9,3.1,4,7.4,6,11.1c1.2,2.4,2.2,4.8,3.3,7.3
		c0.7,0.4,1.1,1,1.4,1.7C288.6,260.9,289.3,263.9,289.9,267z"/>
	<path class="st0" d="M283,272.9c0,4.5,1.8,8.5,2.7,12.8c0.3,0.8,0.5,1.5-0.1,2.2c-0.6-0.5-1.2-1-1.2-1.9c-0.3-1.2-0.9-2.2-1.1-3.5
		c-4.4-10.7-8.8-21.3-13.2-32c-0.3-0.7-0.5-1.4-0.8-2.1c2.2,0.7,2.5,3.1,3.7,4.7c0.7,1,1.3,2.2,1.9,3.3c0.8,0.4,1.3,1.1,1.7,1.9
		c2,3.5,3.6,7.2,5.3,10.8C282.6,270.4,283.1,271.6,283,272.9z"/>
	<path class="st26" d="M276.5,239.4c4.1,11.7,8.2,23.5,12.3,35.2c0.2,0.7-0.1,0.9-0.7,0.7c-1.3-1.4-1.9-3.4-3.9-4
		c-1.4-0.7-1.6-2.2-2-3.5c-0.9-3-1.9-6-2.8-9c-0.1-0.8-0.3-1.6,0.1-2.4c-1-5.5-3.2-10.6-3.7-16.2
		C275.6,239.5,275.9,239.3,276.5,239.4z"/>
	<path class="st27" d="M276.5,239.4c-0.2,0.3-0.4,0.5-0.6,0.8c-0.6-0.7-0.7-1.6-0.4-2.3c0.4-1.3,0.7,0,1,0.2
		C276.4,238.5,276.5,238.9,276.5,239.4z"/>
	<path class="st2" d="M376.5,279.3c-0.7,1.2-1.2,2.4-1.3,3.8c-0.1,2.6-0.4,5.1-2.5,6.8c-0.9-0.2-0.9-0.9-0.5-1.6
		c1.6-7.1,3.3-14.3,4.9-21.4c0.4-3.1,1.4-5.9,2.7-8.7c0.4-0.8,0.7-1.7,1.5-2.2c2-4.2,4-8.4,6-12.6c0.9-1.9,1.7-3.9,3.1-5.5
		c0.4,0.4,0.5,0.9,0.4,1.4c-2.4,10.5-6.6,20.3-10.1,30.3C379.6,273,378.8,276.5,376.5,279.3z"/>
	<path class="st0" d="M376.5,279.3c4.7-13.3,9.3-26.6,14-39.8c0.5-0.3,0.7,0,0.7,0.5c-0.6,5.7-2.7,10.9-3.8,16.5
		c0.5,0.8,0.2,1.6,0.1,2.5c-1.6,5.3-3.2,10.7-5,16c-0.4,1.2-0.6,2.8-1.9,3.5C379,278.2,377.7,278.5,376.5,279.3z"/>
	<path class="st2" d="M383.4,282c-0.4-1.2-0.8-2.3-1.8-3.1c-0.4-0.8-0.3-1.7,0.1-2.5c2.7-6,5.2-12.2,8.5-18c0.4-0.8,1-1.5,1.8-1.9
		c1.5-2.6,3.1-5.2,4.7-7.8c0.3-0.5,0.7-1.4,1.3-0.9c0.6,0.5,0.4,1.3-0.2,1.9c-0.6,0.5-0.4,1.7-1.3,2c-1.2,2-1.9,4.2-2.6,6.5
		c-0.1,1-0.6,1.9-1.1,2.7c-3,7-6.1,14-9.1,20.9L383.4,282z"/>
	<path class="st28" d="M391.1,239.9c-0.2-0.2-0.5-0.3-0.7-0.5c0-0.5,0-1,0-1.5c0.2-0.4,0.6-0.9,0.8-0.6
		C391.9,238.1,391.6,239.1,391.1,239.9z"/>
	<path class="st29" d="M396.4,251.8c0.3-0.8,0.4-1.7,1.3-2c-0.2,1.2,0.1,2.4-0.7,3.5C396.8,252.8,396.6,252.3,396.4,251.8z"/>
	<path class="st30" d="M358.4,288.3c-1.4,1-3.1-1.4-4.5,0.3c-2.5,0.2-3.5,1.8-3.9,4.4c-0.6,4.3-1.7,8.5-2.3,12.8
		c-0.2,1.2-0.4,2.4-1.6,3c-2-0.5-3.9-1.3-5.9-1.3c-3.5,0-4.4-1.9-4.3-5.2c0.1-2.1-0.2-4.1-0.4-6.2c-0.1-1.4-0.1-2.5,1-3.8
		c2.3-2.4,2-5.8-0.7-7.5c-1.5-1-1.4-2.1-1.4-3.5c0.4-11.2,1.9-22.3,2.7-33.5c0.2-1.7,0.2-3.4,0.5-5.1c0.2-1.3,0.2-2.9,1.8-2.9
		c1.6,0.1,1.6,1.8,1.7,3c0.2,2.5-0.3,4.9-0.2,7.4c0,10.3-0.1,20.5-0.2,30.8c0,0.7,0.3,1.2,0.5,1.8c0.3,2.1,1.7,2.3,3.3,2.2
		c3.6-0.2,7.2,0.1,10.7,1C356.6,286.4,358.1,286.5,358.4,288.3z"/>
	<path class="st31" d="M346.1,308.7c1.1-5.8,2.1-11.7,3.2-17.5c0.7-4.1,0.9-4.2,4.6-2.6c-2.6,13.6-5.1,27.2-7.7,40.9
		c-2.3,12.5-4.6,24.9-6.9,37.4c-0.4,1.9-0.9,3.9-1.4,6c-0.8-1.7-0.3-3.2-0.2-4.7c0.6-1.6-0.1-3.3,0.5-4.8
		c0.9-12.8,3.2-25.4,5.2-38.1c0.8-4.8,1.7-9.6,2.5-14.4C346.2,310.2,346.3,309.5,346.1,308.7z"/>
	<path class="st32" d="M264.5,344c-6.1-4.9-11.7-10.5-17.5-15.8c-0.8-0.6-1.7-1.1-2-2.2c-0.2-0.3-0.3-0.6-0.5-0.9
		c0.2-0.3,0.5-0.5,0.7-0.8c6.4,5,12.8,10.1,19.2,15.1c0.9,0,1.4,0.6,1.8,1.4C266.2,342.3,266.2,343.7,264.5,344z"/>
	<path class="st30" d="M340.8,250.4c0.1,0,0.2,0,0.3-0.1c0,9.1,0,18.1,0,27.2c0.3,0,0.6,0.1,0.9,0.1c0.6-4.2,1.1-8.4,1.7-12.6
		c0.5-2.6,0.2-5.4,1.4-7.9c1.4-4.9,1.9-10,3.7-14.7c0.4-1.3,1.2-2,2.5-1.4c1,0.5,1.5,1.5,1.4,2.6c-0.1,1.3-0.2,2.5-0.3,3.8
		c-0.1,5.7-0.2,11.5-0.3,17.2c-0.8,2.4,0.3,4.6,0.4,6.9c0,1.2-0.2,2.4-0.3,3.6c-0.6,1.8-0.5,3.7-0.9,5.5c-0.3,1-0.2,2.1-1,3
		c-3.2,0.2-6.4,1.5-9.5-0.4c-0.6-1-1.5-1.6-0.7-3.2c1.1-2.4,0.3-5,0.2-7.6c-0.2-4.7,0.8-9.5,0.6-14.2
		C340.6,255.5,340.1,252.9,340.8,250.4z"/>
	<path class="st33" d="M345.1,257.1c-0.3,2.6-0.6,5.3-1.4,7.9c-0.2-2.7,0.3-5.3,0.6-7.9C344.6,257,344.9,257,345.1,257.1z"/>
	<path class="st30" d="M325.5,253c0.4,0.1,1,0.2,0.9,0.7c-1.5,7.2-0.5,14.4-0.6,21.6c0,2.4-0.6,4.9,0.5,7.3c0.1,0.2-0.5,0.8-0.8,1.2
		c-1.3-1.5-2.9-1-4.5-0.8c-1.6,0.2-3.3,1.3-4.9,0.1c-0.4-4.6-0.9-9.1-1.3-13.7c-0.2-8.2-0.4-16.4-0.6-24.5c0-1.6-0.3-3.4,1.8-3.8
		c1.5-0.3,2.1,0.8,2.2,2.3c1.8,5.7,2.6,11.7,4,17.5c0.8,1.2,0.7,2.7,1.1,4c-0.1,1.7,0.7,3.4,0.2,5.2c0.6,2,0.4,4.2,1.7,6.7
		c0-5.5,0-10.3,0-15.2c-0.3-2.8-0.5-5.7,0.1-8.5C325.2,253.1,325.3,253,325.5,253z"/>
	<path class="st30" d="M303.9,256.4c0.6-0.7,1.2-1.3,1.8-2c0.8-1,1.8-0.8,2.7-0.2c2.7,1.3,3.6,3.4,2.1,6.3c-0.6,1.2-0.3,2.1,0,3.1
		c1.4,6.3,2.9,12.6,4.4,18.9c-1,2.5-2.3,3.1-5.6,2.3c-1-1-0.8-2.5-1.3-3.6c-0.6-5.3-1.4-10.7-2.2-16c-0.2-1.4-0.8-2.6-1.7-3.7
		C302.8,259.8,302.6,258.1,303.9,256.4z"/>
	<path class="st34" d="M309.4,284.4c1.8-0.5,4,0.2,5.4-1.9c0.4,0.2,0.8,0.4,1.2,0.7c2.2-0.5,4.5-0.8,6.7-1.5
		c2.1-0.7,2.7,0.1,2.7,2.2c-8,1.8-16.1,3.6-24.1,5.4c-0.9,0.2-1.8,0.6-2.1-0.9c-0.2-1.4,0.2-2.4,1.5-2.8c2.5-0.8,5-1.6,7.7-1.5
		C308.8,284,309.1,284.2,309.4,284.4z"/>
	<path class="st35" d="M325.1,253.1c0,2.8-0.1,5.6-0.1,8.5C324.1,258.7,323.9,255.9,325.1,253.1z"/>
	<path class="st36" d="M323.3,270c-0.2-1.7-0.4-3.5-0.6-5.2c0.2-0.2,0.2-0.6,0.6-0.7C324.1,266.1,324.1,268.1,323.3,270z"/>
	<path class="st37" d="M323.2,264.2c-0.2,0.2-0.4,0.4-0.6,0.7c-0.2-1.3-0.4-2.6-0.6-3.9c0.6-0.6,0.5-1.4,0.6-2.1
		C323.5,260.5,323.1,262.4,323.2,264.2z"/>
	<path class="st38" d="M293.5,222.5c0-1.4,0-2.9,0.1-4.3c2.9,9.9,4.6,20.2,7.2,30.2c0.7,2.8,1.3,5.7,2,8.5c1.4,3.8,2.9,7.6,3.6,11.8
		c0.2,1.1,0.3,2.1-0.3,3.1c-0.2,0.3-0.5,0.4-0.8,0.4c-0.7-0.3-1.1-0.9-1.4-1.7c-1.8-5.8-4.2-11.3-6.3-16.9c-1.2-5.8-2.5-11.7-3-17.7
		c-0.1-0.7,0.1-1.4,0.3-2.1C294.5,230.1,293.3,226.4,293.5,222.5z"/>
	<path class="st0" d="M297.7,274c-2.3-5.7-3.6-11.7-5.4-17.6c-2.7-9.1-5.3-18.3-7.9-27.4c-0.2-0.3-0.1-0.6,0.1-0.9
		c1.5,1.7,1.9,4.1,3.1,5.9c0.6,0.7,1.4,1.2,1.8,2.2c2.4,6.3,4.9,12.7,6.8,19.2c0.6,4.7,1,9.4,1.9,14C298.5,271,299,272.7,297.7,274z
		"/>
	<path class="st39" d="M284.5,228.1c0,0.3-0.1,0.6-0.1,0.9c-0.6,0.4-0.4,1.1-0.7,1.6C283.6,229.7,282.4,228.3,284.5,228.1z"/>
	<path class="st38" d="M370.3,266.8c0.2-3.8,1-7.6,0.6-11.5c-0.1-0.8-0.2-1.5,0.1-2.2c2-5.7,3.7-11.6,6.3-17.1
		c0.3-0.8,1-1.2,1.5-1.8c1.4-2.1,1.6-4.9,3.7-6.5c0.2,0.6,0.4,1.2-0.1,1.7c-3.2,9.1-5.5,18.6-8.4,27.8c-1.1,3.6-2.1,7.2-3.2,10.9
		C369.8,268,370.1,267.4,370.3,266.8z"/>
	<path class="st40" d="M382.4,229.3c0-0.6,0.1-1.2,0.1-1.7c1,1.3,0.6,2.7,0,4C382.5,230.8,382.4,230.1,382.4,229.3z"/>
	<path class="st41" d="M350.9,280.5c0.2-1.8-0.2-3.8,0.6-5.5c0.2-1,0.5-2,0.4-3c0.1-1.2-0.3-2.4,0.7-3.3c0.9-5,1.7-10,2.6-15
		c0.2,1.3-0.3,2.7,0.5,3.9c1.7,5.3-1.1,9.9-2,14.7c-0.5,3-1.4,5.9-2.2,8.8C351,281.3,350.7,281.2,350.9,280.5z"/>
	<path class="st42" d="M352.6,268.7c-0.2,1.1-0.3,2.2-0.5,3.3c-0.1,0.3-0.3,0.4-0.5,0.1c-0.1-2.5-0.2-5,0.5-7.5
		C352.5,265.9,351.8,267.4,352.6,268.7z"/>
	<path class="st43" d="M297.7,274c-0.7-6.3-2.3-12.5-2.3-18.9c0.4-1.9,1.3-2.8,2.9-1.3c3,5.7,4.8,12,6.8,18.1c1,0.6,1.4,1.7,1.8,2.7
		c0.6,2.3,1.1,4.7,1.6,7c-0.1,0.9,0.9,1.8,0,2.7c-2.5,0.6-5,1.3-7.5,1.9c-0.8,0.2-1.6,0.2-1.6,1.4c0,1.4,0.9,1.5,1.8,1.5
		c-0.5,0.4-1.4,0.9-1.3,1.1c0.9,3.4-1.8,2.2-3.1,2.9c2.6-2.7,1-6.4,2-9.4c0.4-1.1,0.3-2.2,0-3.3C298.6,278.3,298.1,276.2,297.7,274z
		"/>
	<path class="st44" d="M299,280.5c0.5,1.1,1.3,2.2,0,3.3c-0.2-0.7-0.3-1.3-0.5-2C298.7,281.3,298.8,280.9,299,280.5z"/>
	<path class="st45" d="M370.3,266.8c0.2,0.4,0.3,0.8,0.5,1.3c-0.3,0.9-0.6,1.9-1,2.8c-0.4-0.2-0.5-0.5-0.2-0.9
		C369.7,268.9,369.6,267.7,370.3,266.8z"/>
	<path class="st46" d="M368.5,281.2c0,0.8-0.3,1.4-0.9,1.9c-0.6-1.1-0.3-1.9,0.2-2.7C368,280.6,368.3,280.9,368.5,281.2z"/>
	<path class="st47" d="M369.7,270c0.1,0.3,0.1,0.6,0.2,0.9c-0.1,0.9,0,1.9-0.8,2.6C369.1,272.2,369,271,369.7,270z"/>
	<path class="st48" d="M360,272.5c0.3-3,0.6-6,0.8-9c0.1-1.2,0.6-2,1.6-2.6c0.6-0.1,1,0.1,0.8,0.8c-0.8,4.2-1.4,8.4-3,12.3
		C359.6,273.5,359.8,273,360,272.5z"/>
	<path class="st49" d="M363.2,261.7c-0.3-0.3-0.5-0.6-0.8-0.8c0.7-1.2,0.7-2.5,0.8-3.9c0.3,0.2,0.7,0.4,1,0.6
		C363.8,259,363.5,260.3,363.2,261.7z"/>
	<path class="st50" d="M360,272.5c0.1,0.5,0.1,1,0.2,1.5c0,0.2,0,0.5,0,0.7c0,0.6-0.1,1.2-0.1,1.8c-0.1,0.3-0.3,0.3-0.5,0.1
		C359.4,275.2,359.3,273.8,360,272.5z"/>
	<path class="st51" d="M308.1,281.8c-0.7-2.3-1.3-4.6-2-6.9c-0.3-0.9-0.2-1.9-0.4-2.9c-0.5-5.2-2.4-10-3.1-15.1
		c0.4-0.2,0.8-0.4,1.2-0.6c-0.3,2.1-0.2,4.1,1.8,5.4c0.8,0.5,0.8,1.5,0.9,2.3c0.7,5.7,1.4,11.3,2.1,17
		C309,281.7,308.7,281.9,308.1,281.8z"/>
	<path class="st52" d="M283.3,282.6c0.9,1,1.3,2.1,1.1,3.5c-0.8-0.8-1.3-1.8-1.7-3C282.9,282.9,283.1,282.8,283.3,282.6z"/>
	<path class="st53" d="M383.4,282c0-0.1,0.1-0.2,0.3-0.1c0.1,0.9-0.2,1.9,0.5,2.6c-0.6,1.5-1.3,2.9-2.3,4c-0.5-0.1-0.7-0.4-0.9-0.9
		c-0.1-0.7,0.6-0.9,0.8-1.5C382.9,285,383.2,283.5,383.4,282z"/>
	<path class="st29" d="M392.7,260.9c0.1-1,0.5-1.9,1.1-2.7C394.6,259.7,393.6,260.3,392.7,260.9z"/>
	<path class="st0" d="M403.7,261.7c-0.5,1.6-0.9,3.3-1.4,4.9c-0.7,4.6-2.8,8.6-4.7,12.6c-0.4,0.8-0.9,1.6-1.1,2.5
		c-1.8,4.1-3.4,8.3-6.2,11.8c-1.3,1.3-1.8,4.9-4.2,3.3c-2-1.3,0.7-3.4,0.9-5.2c0.1-0.9,1-1.6,1-2.6c0.8-0.4,0.9-1.5,1.7-2
		c4.5-8.7,9-17.4,13.4-26.1C403.3,261.2,403.5,261.5,403.7,261.7z"/>
	<path class="st54" d="M389.7,287.1c-0.3,0.9-0.6,1.9-1.7,2c0.4-0.9,0.8-1.8,1.1-2.7C389.3,286.6,389.5,286.9,389.7,287.1z"/>
	<path class="st26" d="M263.2,262.3c0.2-0.5,0.4-0.9,0.6-1.4c4.5,8.7,8.4,17.7,13.4,26.1c0.9,2,1.7,4.1,2.6,6.1c0.4,1,1,1.9-0.2,2.8
		c-1.4,1-1.7-0.5-2.3-1.1c-0.6-0.6-1-1.3-1.4-2c-3.2-3-3.8-7.6-5.9-11.2c-0.3-0.7-0.6-1.4-0.9-2.1c-1.9-4-3.9-8-4.5-12.5
		C264.1,265.4,263.7,263.9,263.2,262.3z"/>
	<path class="st55" d="M254.1,300.9c0.5,0.5,0.7,1.3,1.6,1.1c0.5,0.5,1.1,1.1,1.6,1.6c1.8,0.6,2.4,2.4,3.6,3.7
		c2.3,2.3-0.2,2.9-1.2,4.1c-0.2-2.7-2.7-3.8-3.8-5.9c0-1.3-1.1-1.4-1.8-2c-0.2-0.2-0.4-0.5-0.6-0.7
		C253.2,302,252.9,301.2,254.1,300.9z"/>
	<path class="st56" d="M266.2,319.2c-0.8-1.1-1.6-2.3-2.4-3.4c-0.4-0.8-0.8-1.7-1.2-2.5c0.6-1.1,1.3-1.3,2-0.1
		c1.5,2.7,3.7,4.9,4.8,7.8C267.7,321.9,267.3,319.8,266.2,319.2z"/>
	<path class="st57" d="M254.1,300.9c-0.5,0.5-0.4,1.2-0.5,1.9c-2-1.5-2.7-4.5-5.4-5.3c-0.3-0.4-0.8-0.9-0.5-1.4
		c0.3-0.7,0.8-0.3,1.2,0C250.8,297.5,252.7,298.9,254.1,300.9z"/>
	<path class="st57" d="M254.2,303.4c0.9,0.3,2.5,0,1.8,2C255.4,304.8,254.8,304.1,254.2,303.4z"/>
	<path class="st2" d="M347.9,374.5c5.6-12.1,12.8-23.1,19.5-34.4c7.3-12.3,16.2-23.6,21.6-37.2c0.3-0.6,0.4-1.7,1.4-1.3
		c0.9,0.4,0.7,1.1,0.3,1.9c-0.8,1.4,0.5,1.7,1.1,2.1c1.3,0.8,1.2,1.6,0.4,2.8c-14.6,22.3-29.1,44.6-43.7,66.9
		C348,375.4,347.6,375.3,347.9,374.5z"/>
	<path class="st6" d="M327.4,372.1c-4.5-13.3-7.2-27.2-10-41c-2.7-13.3-5.1-26.6-7.8-39.9c-0.4-1.9,0.3-2.1,1.6-2.6
		c1.6-0.6,1.9,0.4,2.2,1.7c4.9,27,9.8,54,14.8,81C328.3,372.1,328,372.2,327.4,372.1z"/>
	<path class="st6" d="M336.6,387.9c0.6-4.8,2.2-9.1,3.6-13.3c7.1-21.4,15.2-42.4,23.4-63.3c0.5-1.3,0.9-2.4,2.5-1.4
		c1.3,0.7,1.8,1.2,1.1,2.9c-9.7,24.5-19.4,49-29.1,73.5C338,386.8,338,387.5,336.6,387.9z"/>
	<path class="st31" d="M328.7,387.4c-2.5,0.6-2.9-1.2-3.6-2.6c-7-15.1-13.3-30.5-19.6-45.9c-2.3-5.8-4.6-11.6-7-17.3
		c-0.5-1.3-0.9-2.3,0.8-3c1.4-0.6,2-0.6,2.7,1.1C310.9,342.2,319.7,364.7,328.7,387.4z"/>
	<path class="st0" d="M323.8,387.9c-2.3,1.6-3.4,0.9-4.4-0.1c-15.4-15.2-30.2-31.1-44.9-47.1c-1-1.1-1.2-1.8-0.1-2.9
		c1.2-1.2,1.9-1.1,2.9,0.1c8.5,9.4,17.1,18.8,25.7,28.2c6,6.6,12,13.2,18,19.8C321.7,386.6,322.7,387.1,323.8,387.9z"/>
	<path class="st0" d="M342.7,389c-0.4-0.3-0.8-0.4-1-0.7c-0.7-0.8,0-1.4,0.4-1.9c1.9-2.4,3.8-4.8,5.8-7.1c12.5-15,25.6-29.6,38.7-44
		c1.1-1.2,1.8-2.1,3.3-0.4c1.6,1.7,0.3,2.4-0.6,3.3c-15.1,16.5-30.1,33-45.2,49.5C343.6,388.1,343.2,388.5,342.7,389z"/>
	<path class="st0" d="M329.8,311.3c1.8-0.9,3.6-2,3.6,1.7c0,24.4,0,48.8,0,73.2c0,0.3-0.1,0.6-0.2,1c-2,0.2-2.1-1.3-2.1-2.7
		c-0.9-17-1.6-33.9-1.3-50.9C330.3,326.1,330.3,318.7,329.8,311.3z"/>
	<path class="st6" d="M312.3,370.7c-6.8-6.8-12.4-14.8-17.9-22.9c-4.4-6.5-8.8-13-13.2-19.5c0.5-2,1.9-2.1,3.4-1.8
		c8.9,13.6,17.7,27.2,26.6,40.9c0.6,0.9,1,1.8,1.6,2.8C312.7,370.4,312.5,370.6,312.3,370.7z"/>
	<path class="st6" d="M297.1,297.2c-0.7,5.7,3.1,9.7,4.8,14.5c0.4,1.2,1.2,0.8,2,0.4c2-1,4.1-1.9,6.1-2.8c0.6-0.2,1.3-1,1.8,0
		c0.5,1.1-0.5,1.2-1.1,1.4c-6.7,3.1-13.5,6.3-20.2,9.3c-0.5,0.2-1.4,1-1.8-0.1c-0.4-1.1,0.6-1.2,1.2-1.5c1.9-0.9,3.8-1.9,5.8-2.6
		c1.8-0.6,2-1.6,1.3-3.4c-1-2.6-1.9-5.3-2.8-7.9c-0.6-1.7-1.1-3.3-2.9-4.2c-1.7-0.9-2-3-1.2-4.9c0.7-1.7,2.2-2.6,3.9-2.2
		C296,293.8,297.2,295,297.1,297.2z"/>
	<path class="st58" d="M340.7,283.2c3.2-0.2,6.4-0.6,9.7-0.2c0.2-0.2,0.5-0.2,0.7,0c5.2,0.9,10.3,2.3,14.9,5
		c0.7,0.4,2.4,0.5,1.5,2.4c-0.9,1.8-1.8,1.1-2.9,0.5c-2-1.1-3.9-2.2-6.1-2.6c-4.7-2-9.6-2.5-14.6-2
		C341.3,286.6,340.2,286,340.7,283.2z"/>
	<path class="st59" d="M284.7,326.5c-1.1,0.6-2.3,1.2-3.4,1.8c-4.1,4.2-8.2,8.4-12.2,12.7c-0.6,0.6-1,1.4-1,2.3
		c-0.4,0.9-0.9,1.7-1.3,2.6c-1.2,0.1-2.1-0.4-2.1-1.9c0.6-1,1.1-2.1,1.2-3.3c0.3-2.8,1.9-4.2,4.2-5.1c0.3-0.3,0.5-0.5,0.8-0.8
		c1.7-1.2,3.1-2.6,4.2-4.5c0-0.7,0.6-0.5,0.9-0.8c1.2-1.3,2.5-2.6,3.7-3.8c0.7-1.7,1.9-2,3.5-1.6
		C284.5,324.1,285.7,324.5,284.7,326.5z"/>
	<path class="st60" d="M359.3,302.7c1.6-0.2,3.2,0.5,4.8,1.3c4.3,2.1,8.7,4.1,13,6c1.7,0.7,2.8,2.1,3.9,3.5c0.5,0.6,0.8,1.3,0.2,2
		c-0.6,0.7-1.3,0.6-1.9,0c-4.9-5.1-11.6-6.2-17.4-9.5c-1.2-0.7-2.5-0.7-3.8-0.7c-0.9,0-2,0-2.1-1.2c-0.1-1.6,1.2-1.4,2.2-1.5
		C358.5,302.6,358.8,302.7,359.3,302.7z"/>
	<path class="st34" d="M283,324.1c-1.2,0.5-2.3,1.1-3.5,1.6c-2.8-4.2-5.6-8.5-8.4-12.7c-0.9-1.3-1.7-2.2,0.1-3.6
		c1.8-1.4,2.2,0,3,1.1C277.1,315.1,280,319.6,283,324.1z"/>
	<path class="st61" d="M423,322.5c-0.8,1.6-2.2,2.5-3.5,3.5c-6.5,5.3-13,10.5-19.5,15.8c-0.7-0.2-1-0.7-0.8-1.4
		c2.2-2.5,4.3-5,6.5-7.5c2.6-2.8,5.7-4.9,8.9-7c1.1-0.6,2.2-1,3.4-1.4C419.8,324.3,421,322.1,423,322.5z"/>
	<path class="st62" d="M349.1,388.7c6-5,12.2-9.5,18.6-13.9c0.8,2.7,0,4-2,5.2c-4.5,2.7-8.8,5.7-13.2,8.6
		C351.4,389.3,350.4,390.2,349.1,388.7z"/>
	<path class="st63" d="M299.1,374.7c6.3,4.3,12.2,8.7,18.1,13.4c-1.1,1.5-2.2,0.9-3.3,0.2c-4.6-3-9.1-6-13.7-8.9
		C298.4,378.2,299.1,376.6,299.1,374.7z"/>
	<path class="st64" d="M413.9,286.4c-0.5,3.6-2.9,6.1-4.4,9.1c-1.1,2.1-2.3,4.1-3.5,6.1c-1.6,1.5-3.3,3-4.9,4.5
		c-0.5,0.5-1,0.7-1.5,0c-0.3-1.2,0.3-2,0.9-2.9c2.4-3.7,4.8-7.4,7.9-10.4c0.1-0.2,0.3-0.3,0.4-0.5c1.3-0.9,1.2-2.6,2.1-3.7
		C411.7,287.6,412.3,286.1,413.9,286.4z"/>
	<path class="st65" d="M399.2,340.4c0.3,0.5,0.5,1,0.8,1.4c0.5,1,0.9,2,1.4,3c-0.4,0.3-0.8,0.7-1.2,1c-0.5-0.9-1.1-1.8-1.6-2.7
		c-0.5-0.3-0.9-0.6-0.8-1.3c-3.4-6.1-8.3-10.6-13.9-14.2c-0.6-0.4-1.9-0.7-1.3-1.7c0.5-1,1.4-0.1,2.1,0.3c4.9,2.9,9,6.9,12.5,11.6
		C397.9,338.7,398.6,339.5,399.2,340.4z"/>
	<path class="st66" d="M411.1,302.1c1.6-1.4,3.1-3,4.7-4.3c0.8-0.6,1.5-2.2,2.9-1c-3.9,5.7-7.8,11.4-13.3,15.4
		c-1.2-0.9-0.7-1.9-0.2-3.1C406.5,306.1,408.1,303.5,411.1,302.1z"/>
	<path class="st67" d="M260.2,300.3c-2.4-4.4-4.8-8.8-7.2-13.2c-0.3-0.6,0.1-0.8,0.5-1c1.9,0.6,2.4,2.5,3.1,4.2
		c0.5,2.4,1.6,4.2,3.7,5.3c3.2,2.5,5.6,5.6,6.7,9.7c-0.9,1.2-1.3,0.1-1.9-0.4C263.5,303.4,261.8,301.9,260.2,300.3z"/>
	<path class="st68" d="M414.5,318.3c-0.5,2.7-3,3.8-4.1,6c0,1.2-0.9,1.8-1.4,2.7c-0.7,1.6-2.4,1.9-3.5,3c-1.2,0.9-2.3,2-4,2
		C405.8,327.5,408,320.5,414.5,318.3z"/>
	<path class="st69" d="M408.4,292.7c-1.8,4-4.9,7-7.1,10.7c-0.5,0.9-1.2,1.8-1.7,2.6c-1.5-0.4-1.3-1.3-0.6-2.4
		c1.5-2.7,3.1-5.2,4.5-8C404.5,293.3,406.9,293.9,408.4,292.7z"/>
	<path class="st70" d="M275.8,329.6c-0.3,0.3-0.6,0.5-0.9,0.8c-2.1-1.9-4-3.9-6.2-5.6c-1.9-1.4-2.9-3.1-2.5-5.6
		c1.8-0.8,1.7,2.1,3.2,1.8C271.6,323.9,273.7,326.7,275.8,329.6z"/>
	<path class="st71" d="M405.4,312.2c4.4-5.1,8.9-10.3,13.3-15.4c0,2-1.6,3.1-2.1,4.8c-0.5,0.6-1.2,1-1.3,1.9
		c-1.3,1.9-2.6,3.8-3.9,5.8c-2.2,0.1-3.8,1.3-4.8,3.4c-0.3,0.4-0.7,0.4-1,0C405.4,312.5,405.4,312.4,405.4,312.2z"/>
	<path class="st72" d="M392.6,300.8c2.7-4.4,5.3-8.8,8-13.3c1.4,6.4-4.1,8.8-6.4,13C393.8,301.3,393.3,301.7,392.6,300.8z"/>
	<path class="st73" d="M267.6,289.6c2.2,3.5,4.3,6.9,6.5,10.4c-0.9,1.3-1.6,0.9-2.4-0.2c-1.3-1.8-2.6-3.6-4-5.3
		C266.1,292.8,267.5,291.2,267.6,289.6z"/>
	<path class="st74" d="M381.8,286.1c-0.1,0.5-0.3,1.1-0.4,1.6c-0.1,1-0.5,2-0.8,2.9c-1.5,3-2.7,6.2-5.2,8.6
		c1.3-3.8,2.6-7.7,3.9-11.5C379.8,286.5,381,286.7,381.8,286.1z"/>
	<path class="st75" d="M267,305.4c-2.2-3.2-4.5-6.5-6.7-9.7c2.2-0.4,3.5,0.6,4.4,2.8c0.7,1.8,1.8,3.3,2.7,5
		C267.9,304.3,268.2,305,267,305.4z"/>
	<path class="st76" d="M372.6,289.7c0.9-2.2,1.7-4.4,2.6-6.6c0.9,1.5,0.9,2.9,0.1,4.5c-1.4,2.6-2.5,5.3-3.8,8
		c-0.3,0.2-0.5,0.2-0.7-0.1c-0.4-1.1,0.3-2.1,0.5-3.1C371.4,291.3,371.7,290.4,372.6,289.7z"/>
	<path class="st77" d="M405.6,312.6c0.3,0,0.7,0,1,0c-0.5,3.8-3.6,5.3-6,6.9c-1.3,0.9-1.4-0.5-0.5-1.5c1.6-1.2,2.2-3.6,4.3-4.2
		C405.2,314.1,405.5,313.5,405.6,312.6z"/>
	<path class="st78" d="M329.8,311.3c0.8,0.9,0.6,2,0.6,3c0,5.4,0,10.8,0,16.1c0,1,0.3,2.2-0.6,3
		C329.8,326.1,329.8,318.7,329.8,311.3z"/>
	<path class="st79" d="M415.6,312.4c1.6-1.8,3.6-3.1,5.9-4.4c0.5,1.3-0.5,1.8-0.9,2.5c-1.9,0.9-2,4.1-4.7,3.9
		C415.8,313.8,415.7,313.1,415.6,312.4z"/>
	<path class="st80" d="M413.9,286.4c-2.3,1.3-2.7,4.5-5,5.9c0.7-1.2,1-2.6,1.1-4c1.1-1.1,2.1-2.2,3.2-3.2c0.4-0.4,0.9-0.7,1.2,0
		C414.5,285.3,414.1,285.9,413.9,286.4z"/>
	<path class="st81" d="M381.2,305.8c1.1-2.6,1.9-4.4,2.6-6.2c0.4-0.8,1-1.1,1.7-0.7c1.1,0.6,0.2,1.3-0.1,1.8
		C384.2,302.2,383.6,304.4,381.2,305.8z"/>
	<path class="st82" d="M415.9,314.5c1.7-1.1,2.6-3.4,4.7-3.9c-1.5,2.8-2.8,5.8-5.8,7.3C415.2,316.7,415.5,315.6,415.9,314.5z"/>
	<path class="st83" d="M404.3,313.9c-1.3,1.5-2.2,3.5-4.3,4.2c0.9-1.5,1.8-3.1,2.7-4.6C403.5,312.1,403.9,313.1,404.3,313.9z"/>
	<path class="st84" d="M256.6,290.4c-1-1.3-2-2.6-3.1-3.9c-0.4-0.4-0.9-0.7-0.5-1.5c1.8,0.3,2.6,2.2,3.8,3.3
		C256.8,288.9,256.7,289.7,256.6,290.4z"/>
	<path class="st85" d="M278.8,306.4c-0.7-1.3-2-2.3-1.8-4.1C278.2,303.3,278.9,304.6,278.8,306.4z"/>
	<path class="st86" d="M397.8,341.9c0.3,0.4,0.5,0.8,0.8,1.3c-1,0.7-2.1,1.5-3.1,2.2c-0.2-0.3-0.5-0.5-0.7-0.8
		C395.8,343.7,396.8,342.8,397.8,341.9z"/>
	<path class="st87" d="M312.3,370.7c0.2-0.2,0.3-0.4,0.5-0.6c1,0.7,1.6,1.8,2.3,3.5C313.5,372.9,312.8,371.9,312.3,370.7z"/>
	<path class="st88" d="M282,301.5c-0.1-0.1-0.2-0.1-0.2-0.2c-0.3-0.8-2-1.7-0.4-2.5c1-0.5,1.1,1.1,1.3,1.9
		C283.1,301.5,282.6,301.6,282,301.5z"/>
	<path class="st89" d="M372.6,289.7c-0.3,0.8-0.7,1.7-1,2.5c-0.1,0.5-0.3,0.5-0.6,0.1c0.1-1.4,0.4-2.8,1.1-4
		C372.3,288.8,372.4,289.2,372.6,289.7z"/>
	<path class="st90" d="M370.9,295.6c0.2,0,0.4,0,0.6,0c-0.3,1.1-0.6,2.2-1.6,2.9c-0.5-0.6-0.5-1.1-0.1-1.8c0-0.4,0.1-0.8,0.1-1.2
		C370.2,295.2,370.5,295.2,370.9,295.6z"/>
	<path class="st91" d="M285.5,287.9c0-0.7,0.1-1.5,0.1-2.2c0.3,0.8,0.6,1.5,0.9,2.3c0.1,0.4,0.1,0.9-0.4,0.8
		C285.9,288.8,285.7,288.3,285.5,287.9z"/>
	<path class="st92" d="M327.4,372.1c0.2-0.2,0.5-0.5,0.7-0.7c0.6,0.9,0.7,1.9,0.4,3.1C327.6,373.9,327.5,373,327.4,372.1z"/>
	<path class="st93" d="M338.2,363.3c0,1.6,0.5,3.3-0.5,4.8C337.7,366.5,337.5,364.9,338.2,363.3z"/>
	<path class="st94" d="M370.9,295.6c-0.3,0-0.7,0-1,0c0.4-1.1,0.8-2.1,1.2-3.2c0.2,0,0.4-0.1,0.6-0.1
		C371.3,293.3,371.1,294.4,370.9,295.6z"/>
	<path class="st95" d="M288.1,275.3c0.2-0.2,0.5-0.5,0.7-0.7c0.7,0.8,0.9,1.7,1.1,2.7C288.6,277.3,288.4,276.3,288.1,275.3z"/>
	<path class="st96" d="M359.5,276.6c0.2-0.1,0.3-0.1,0.5-0.1c0,0.8,0.2,1.7-0.6,2.4C358.5,278.1,359,277.3,359.5,276.6z"/>
	<path class="st97" d="M347.9,374.5c0.2,0.3,0.5,0.5,0.7,0.8c-0.3,0.8-0.6,1.6-1.6,1.7C346.7,376,347.2,375.3,347.9,374.5z"/>
	<path class="st98" d="M351.1,283c-0.2,0-0.5,0-0.7,0c0-0.9-0.1-1.7,0.5-2.5c0.2,0.2,0.4,0.4,0.6,0.6
		C351.7,281.8,351.4,282.4,351.1,283z"/>
	<path class="st99" d="M369.7,296.7c0,0.6,0.1,1.2,0.1,1.8c-0.1,0.5-0.1,1-0.2,1.6c-1.1,0-0.8-0.6-0.6-1.3
		C369.3,298.1,369.5,297.4,369.7,296.7z"/>
	<path class="st100" d="M369.1,298.8c0.2,0.4,0.4,0.9,0.6,1.3c-0.2,0.4-0.4,1.4-0.8,1.1C368,300.4,368.6,299.5,369.1,298.8z"/>
	<path class="st101" d="M315.7,375.5c-0.1-0.6,0.2-0.7,0.4-0.6c0.3,0.2,0.6,0.5,0.7,0.9c0.1,0.3,0,0.7-0.4,0.4
		C316.2,376,315.9,375.6,315.7,375.5z"/>
	<path class="st102" d="M282,301.5c0.2-0.3,0.5-0.6,0.7-0.8c0.4,0.7,1.4,1.5,0.5,2.2C282.7,303.2,282.3,302.1,282,301.5z"/>
	<path class="st103" d="M380.6,290.7c-0.1-1.1,0.2-2.1,0.8-2.9c0.2,0.2,0.3,0.5,0.5,0.7C381.5,289.2,381,289.9,380.6,290.7z"/>
	<path class="st104" d="M269.9,335.7c-1.4,1.7-2.8,3.4-4.2,5.1c-0.5-0.4-0.9-0.8-1.4-1.3c-2.2-2.9-4.4-5.8-6.6-8.7
		c-0.6-2.7-0.3-2.9,2.1-2.4C263.3,330.8,266.6,333.2,269.9,335.7z"/>
	<path class="st105" d="M415.2,326.4c-2.2-0.1-4.3-0.2-6.5-0.2c0.5-0.6,1.1-1.2,1.7-1.8c2.5,0.1,5.1,0.2,7.6,0.2
		C417.2,325.3,416.3,326.1,415.2,326.4z"/>
	<path class="st106" d="M351.6,272.1c0.2,0,0.4-0.1,0.5-0.1c0.1,1.1,0.1,2.1-0.6,3C351.2,274,351.5,273.1,351.6,272.1z"/>
	<path class="st107" d="M308.1,281.8c0.2-0.3,0.4-0.5,0.6-0.8c0.7,1,0.4,2.2,0.7,3.3c-0.3,0-0.6,0-0.8,0.1
		C308.4,283.6,308.3,282.7,308.1,281.8z"/>
	<path class="st108" d="M305.8,272c0.7,0.9,0.5,1.9,0.4,2.9c-0.3-1-0.7-1.9-1-2.9C305.4,272,305.6,272,305.8,272z"/>
	<path class="st109" d="M253,285c0.2,0.5,0.3,1,0.5,1.5c-0.2,0.2-0.4,0.5-0.6,0.7c-0.5-0.7-1.2-1.4-0.8-2.4
		C252.3,284.4,252.8,284.6,253,285z"/>
</g>
<g>
	<polygon points="358.5,415.8 350.2,400.8 350.2,460 355.6,460 	"/>
	<polygon points="315.5,473.8 324.7,487.1 324.7,420.7 319.2,420.7 	"/>
	<polygon points="320.3,424 355.1,467.8 356.4,447.7 351.3,454.8 323.3,418.2 	"/>
	<polygon points="355.1,461.3 319.8,413.4 318.4,431.7 322.3,426.4 351.3,463.1 	"/>
</g>
<polygon points="138.5,435.5 238.7,437.3 293.4,467.5 314.3,471.9 283.2,473.8 256.1,458 "/>
<polygon points="535.2,435.5 435,437.3 380.3,467.5 359.3,471.9 390.5,473.8 417.6,458 "/>
<path class="st110" d="M280.9,386.7c0,0-2.5,20.9,14.3,11.7L280.9,386.7z"/>
<path class="st110" d="M392.6,386.7c0,0,2.5,20.9-14.3,11.7L392.6,386.7z"/>
<g>
	<polygon class="st111" points="243.2,357.5 310.8,403.9 310.8,409.7 306.1,409.7 	"/>
	<path class="st111" d="M297.7,399.1c0,0-0.9,8.1-12.8,5.8c0,0,11.4,7.8,16.9-2.7L297.7,399.1z"/>
	<polygon class="st111" points="263,389.7 263,373.9 243.2,357.5 	"/>
	<path class="st111" d="M277,383.1l-1.5,12.9c0,0-4.7-19-18.1-25.8C257.5,370.2,268.5,374.2,277,383.1z"/>
	<path d="M265.6,401.3L277,420l29.1,10.3v-10.9l-5.1-3.2c0,0-20,8.3-27.5-3"/>
	<polygon points="267.4,411 273.7,420.9 263.6,441.4 289.3,459.5 300.5,452 290.4,463.8 246,439.7 255.8,435.8 	"/>
</g>
<g>
	<polygon class="st111" points="429.8,357.8 362.2,404.2 362.2,410 366.9,410 	"/>
	<path class="st111" d="M375.3,399.4c0,0,0.9,8.1,12.8,5.8c0,0-11.4,7.8-16.9-2.7L375.3,399.4z"/>
	<polygon class="st111" points="410,390 410,374.3 429.8,357.8 	"/>
	<path class="st111" d="M396,383.4l1.5,12.9c0,0,4.7-19,18.1-25.8C415.5,370.6,404.4,374.5,396,383.4z"/>
	<path d="M407.4,401.6L396,420.3l-29.1,10.3v-10.9l5.1-3.2c0,0,20,8.3,27.5-3"/>
	<polygon points="405.6,411.3 399.3,421.2 409.4,441.7 383.6,459.8 372.5,452.3 382.5,464.1 427,440 417.1,436.1 	"/>
</g>
<polygon points="237.5,356.4 176.4,433.2 237.7,430.6 245,439.1 232.2,401.8 219.9,408 229.3,420.5 204.1,421.1 235.6,367.4 
	254.3,419.1 261.2,403.4 "/>
<polygon class="st112" points="468.7,426.5 489.6,433.5 436.8,357.6 410.8,402.6 441.6,406.5 435.4,428.5 431.1,421.9 423,432.4 
	429.3,428.4 437.2,433.5 454.2,396.5 "/>
<polygon class="st113" points="419.9,398.4 436.8,369.1 447.7,385.8 443.4,400.8 "/>
<g>
	<path d="M-1.3,362.1c-4.7-5.6-8.8-12-14.2-16.7c-8.8-7.7-18.4-14.3-27.7-21.3c-1.6-1.2-3.1-2.4-4.2-4.6c2.9,1.7,5.8,3.4,9.8,5.7
		c-1.2-2.1-1.7-3-2.3-4c15.3,13.3,30.8,26.1,48.5,35.3c-1.3,0-2.6,0.1-3.9,0.1c8.4,8.5,17,16.3,26,23.3c10.8,8.3,21.6,16.5,33,23.8
		c7.5,4.7,15.6,8.9,24,10.8c5.2,1.2,8.4,3.9,11.8,7.3c2.1,2.1,3.8,4.7,5.7,7c-0.7-4.7-3.4-9.5-9.5-15.9c-1.8-1.9-3.6-4.1-5.8-5.3
		c-6.3-3.3-12.7-6.2-19.1-9.2c3.5,1.4,6.9,2.9,10.4,4.1c2.7,0.9,5.8,0.9,8.2,2.4c3.3,1.9,6.6,4.3,8.9,7.4c3.6,4.9,6.4,10.5,9.6,15.8
		c1.3,2.2,2.9,4.3,4.9,6c-5.2-17.5-16.7-29.3-29.6-39.9c7.2,1.9,14.4,3.8,21.6,5.8c0.3-0.6,0.5-1.2,0.8-1.8
		c-7.6-4.3-15-8.9-22.8-12.9c-5.8-3-6.6-5.3-3.3-11.7c0.4-0.7,0.1-2.6-0.5-3.2c-6.8-6.4-15.3-8.6-23.5-11.8
		c-1.7-0.7-3.4-1.5-5.2-2.3c1.4-1.2,2.9-2.3,4.7-3.8c-0.3-0.5-0.8-1.5-1.4-2.3c-2.8-3.2-5.6-6.5-8.7-9.3c-1.4-1.3-3.8-2.3-5.6-1.9
		c-7.4,1.5-11.4-3.4-15.4-8.5c5.5,4,11.1,7.4,18.3,7c5.9-0.3,8,5.9,11.4,9.8c2.5,2.8,4.2,5.2,1.4,9.1c11.3,3.9,22.6,7.1,31,18
		c-3,0.7-5,1.2-7.7,1.8c1.1,2.4,1.5,5.4,3,6.3c4.5,2.7,9.3,4.6,15,7.3c-3.2-6-6.4-10.6-8.3-15.8c-2.2-6.2-6.1-9.6-11.4-12.2
		c-4.9-2.4-9.4-5.9-14.1-8.8c1.5,0.5,2.9,0.9,4.4,1.4c0.2-0.3,0.4-0.7,0.6-1c-4.2-3.7-8.3-7.4-12.5-11.2
		c-12.1-7.1-24.2-14.2-36.3-21.3c-0.2,0.3-0.5,0.7-0.7,1c0.8,1.5,1.6,3,2.4,4.5c-4.1-3.6-7.9-7.9-12.5-10.7
		c-14.1-8.5-28.4-16.5-42.8-24.5c-6.3-3.5-12.9-6.5-19.1-10.6c5,1.8,10.1,3.2,14.9,5.6c13.2,6.7,26.2,13.9,39.5,20.6
		c2.5,1.3,5.7,0.9,8.6,1.3c0.3-0.4,0.6-0.9,0.9-1.3c-4.2-5-8.3-10-12.5-14.9c0-0.2,0.1-0.3,0.1-0.5c2.7,1.9,5.2,4.1,8.1,5.6
		c8.5,4.4,17.2,8.5,25.8,12.6c2.8,1.4,5.8,2.6,9.6,4.2c-0.6-3.1-0.9-4.8-1.6-7.9c2.5,2.3,4.2,3.9,5.9,5.4c-1.2-0.2-2.3-0.5-3.9-0.8
		c0.6,1.6,1.1,2.9,1.9,5.1c-3.9-1.2-7.2-1.9-10.3-3.3c-8.5-3.9-16.9-8.1-25.3-12.2c-0.2,0.4-0.4,0.7-0.6,1.1c2.7,3,5.3,6.1,8,9.1
		c-0.2,0.3-0.4,0.5-0.6,0.8c-2.7-0.7-5.4-1.4-8.1-2.1c0.4,1.7,1.1,2.6,2.1,3c11.6,5,23.4,9,35.8,11.2c4.7,0.8,10.3,2.5,13.3,6.1
		c3.4,4,7.3,6.2,11.5,7.3c9.8,2.5,16.8,9.3,23.4,16.8c4.6,5.2,9.8,9,16,11.6c-6-8.6-12.7-16.4-18.9-24.5c-2.6-3.4-5.4-4.9-9.4-5.1
		c-8.2-0.3-12.2-7.5-17.3-13c5.8,3.4,11.5,7,17.4,10.3c2.5,1.4,5.3,1.9,8,2.8c0.4-0.5,0.8-0.9,1.2-1.4c-3.7-4.5-6.8-9.7-11.1-13.3
		c-4.8-4.1-10.7-6.8-16.1-10.1c-0.5-0.3-1.3-0.5-1.6-0.9c-8.1-12.2-22.4-14-32.6-22.5c-2.1-1.8-4.2-3.7-6.3-5.6
		c1.9,0.8,3.7,1.5,5.6,2.3c2.9,2,6,3.8,8.8,6.1c7.7,6.3,19.4,5.8,24.1,17.1c0.3,0.6,1.2,1.1,1.9,1.2c7.2,0.8,12.1,6.3,17.3,10.5
		c5.8,4.7,12.9,9.2,11.7,19.5c-0.1,0.8,0.8,1.8,1.4,2.5c2.1,2.4,4,5.2,6.4,7.1c3.1,2.3,5.3,8,10.7,4.5c0.3-0.2,1.4,0.4,1.6,0.8
		c1.3,3.1,2.4,6.3,3.6,9.5c-0.9-1.1-2.3-2.1-2.5-3.3c-0.5-4.6-2.6-3.5-5.7-1.7c2.5,3,4.7,5.6,7.4,8.8c0.3-2,0.4-3,0.6-3.9
		c2.3,2,5.2,3.7,6.9,6.2c5.8,8.5,16,8.2,23.2,14.1c4.8,3.9,12.4,3.2,16.6,9.3c0.1,0.1,0.5,0,1-0.1c0.1-1.5,0.3-3.1,0.4-4.6l-0.1,0.1
		c0.3,1.1,0.9,2.2,0.9,3.3c0,1.6-0.5,3.1-0.8,4.7c-1.2-0.6-2.4-1.1-3.5-1.9c-1.7-1.2-3.2-2.7-4.7-3.9c3.8,9,7.7,17.6,11,26.5
		c1,2.8,0.3,6.4,0.3,9.6c-1.9-1.9-3.9-3.7-5.7-5.8c-2.7-3.2-4.9-7-7.9-9.7c-7.1-6.5-19-6.7-27.2-0.9c-6.2,4.4-12.1,2.6-17.9-0.2
		c-1.2-0.6-2.3-1.1-3.5-1.7c-0.2,0.4-0.5,0.8-0.7,1.2c2,1.8,4,3.6,5.9,5.5c7.1,6.9,9.9,16.8,14.1,25.8c0.5,1,1.3,2,2.2,2.5
		c7,4.1,14,8.1,22.2,12.8c-4.6,2.1-8.3,4.5-12.2,5.4c-7.8,1.9-15.8,4.1-23.6,0.3c-0.4-0.2-1-0.7-1.3-0.6c-6.2,4.3-12.2,0-18.3-0.1
		c-0.4,0-0.7,0.5-1.8,1.4c6,1.7,11.4,3.2,17,4.8c-2.1,2.2-2.1,2.2-9.7,0.1c-3.3-0.9-6.5-1.9-10.1-2.9c0.1,7.1,5.3,8,9,10.1
		c4.7,2.7,9.9,4.6,14.8,7c0.8,0.4,1.1,1.6,1.7,2.4c-0.9,0.5-1.7,1.4-2.6,1.4c-11.5,1-23.1,1.8-34.6,3c-3.4,0.4-6.8,2.7-10.1,2.6
		c-6.4-0.2-12.8-1.6-19.1-2.5c0.1-0.6,0.2-1.2,0.2-1.7c6.2,0.9,12.5,1.8,18.7,2.6c-9.6-3.3-20.5-2.9-28.6-11.4
		c10,3.1,19.6,6.1,29.3,9.1c0.3-0.6,0.5-1.2,0.8-1.8c-6.6-4.5-15.4-6.5-16.9-16.9c1.1,0.5,2.4,0.7,3.2,1.6
		c3.5,3.7,6.7,7.8,10.3,11.3c1.5,1.4,4,1.6,6.1,2.4c-12.8-18.2-32.2-25.4-48.4-37.8c1.1,2,2.6,3.5,4,5.1
		c5.2,5.8,10.6,11.3,18.4,13.1c2.4,0.5,4.3,3,6.5,4.5c-11.9-1.6-19.7-10.4-28.5-17.9c-7.1-6.1-15-11.2-23-15.8
		c-9.3-5.5-19.3-9.8-25.9-19.7c1.5,1.2,3,2.5,4.6,3.4c9.5,5.3,19.1,10.5,28.7,15.7c6.3,3.4,12.8,4.2,20.1,3.9
		c5.6-0.3,11.2,4.1,16.9,6.5c-2.8-0.7-5.5-1.5-8.3-2.2c-3.7-0.9-7.4-1.6-11.1-2.4c-0.1,0.5-0.2,1-0.3,1.5
		c17.7,7.2,35.4,14.3,53.1,21.5c0.3-0.6,0.6-1.2,0.9-1.8c-6.8-4.2-13.6-8.4-20.5-12.5c-1.8-1.1-4.3-3-5.6-2.4
		c-3.6,1.7-5.7-0.1-8.2-1.9c1.2-0.7,2.4-1.3,4.4-2.5c12.1,5.2,26.1,9.6,34.7,23.8c0.6-0.7,1.3-1.5,1.9-2.2
		c-4.8-5.5-9.6-10.9-14.2-16.4c-1.9-2.2-4.8-3.9-3.7-8.1c0.2-0.6-0.7-1.8-1.4-2.3c-6.9-5.4-13.7-11.1-20.9-16.1
		c-3.2-2.2-7.2-3-10.8-4.4c-3.3-1.2-5.3-3.5-7.1-7.1c-2.8-5.5-6.6-10.5-10.8-14.8c-5.4-5.5-8.2-12.4-11.2-19.4
		c-0.9-2.2-1.6-4.5-2.3-6.8c0.8,1.2,1.7,2.4,2.5,3.6c4.9,7.6,9.7,15.4,14.9,22.9c2.8,4,7.6,6.8,8.9,11.2c1.9,6.6,5.8,8.5,11.1,9.6
		c4.7,1,8.6,3,11.2,7.9c1.2,2.2,4.1,3.4,6.2,5c2.5,1.9,5.2,3.7,7.5,5.9c2.8,2.6,4.8,6.6,7.9,8.1c5,2.3,10.6,3.1,16.5,4.6
		c-4-3.7-7.3-7-10.8-10.1c-8.1-7.1-16.4-14-24.3-21.3c-3.6-3.3-6-8.1-9.6-11.2c-3.9-3.4-9-5.2-13-8.5c-5.3-4.3-10.4-9.2-15-14.4
		c-5.2-5.8-9.8-12.3-14.7-18.4C0.8,362-0.4,362.3-1.3,362.1z M162,411.9c-1.3-7.4-10.7-23.6-19.4-27.4c-9.2-4-18.5-7.9-27.8-11.7
		c-1.5-0.6-3.2-0.4-4.9-0.7c-3.5-0.6-5,2.4-4.4,4.9c0.4,1.9,3.5,4.7,5,4.4c6-1.3,10.1,2.2,14.7,4.9c1.9,1.1,4.3,2.8,6.2,2.4
		c7.8-1.7,12.5,2.6,17.1,8.3C153.3,402.9,158.6,408.2,162,411.9z M128.1,459.9c0.1-0.7,0.1-1.4,0.2-2c-0.3-0.3-0.6-0.8-1-0.9
		c-8.1-3.4-16.4-6.2-24.1-10.4c-3.1-1.7-9.4-3.5-5.9-10.8c0.2-0.5-0.4-1.7-0.9-2.3c-2.1-2.4-4.3-4.7-6.6-6.9c-3-3-4.3-1-4.9,2.4
		c-1.4,7.7,2.7,12.6,7.6,16c7.5,5.3,15.4,10,23.6,14C119.5,460.6,124.1,459.7,128.1,459.9z M136.3,454.8c0.1-0.4,0.3-0.8,0.4-1.2
		c-8.2-5-16.5-10-24.7-15.2c-2.6-1.6-4.7-3.9-7.1-5.8c-4-3.2-6.5-8.8-11.6-9.2c2.5,3.9,5.1,7.9,7.6,12c1.5,2.5,2.2,6.1,4.2,7.7
		C114.4,450.2,125.7,451.6,136.3,454.8z M107.5,389.8c1.6,2.2,2.8,3.9,4.1,5.5c4.3,5.4,8.9,8.5,16.3,5.9c4.4-1.5,9.5-0.6,14.3-0.5
		c1.4,0,2.9,0.7,4.3,1.1c-3.7-5-7.9-8.1-13.7-7.1c-4.5,0.7-8.4-0.7-12.3-3.1C116.8,389.5,112.8,387.3,107.5,389.8z M78.4,355.9
		c-0.3,0.4-0.5,0.8-0.8,1.2c1,0.9,2.1,1.6,3,2.6c2.7,3.1,6.4,5.8,7.8,9.5c3.4,9.4,10.3,15.8,15.2,23.8c0.5,0.8,1.8,0.9,3.7,1.8
		c-1-1.6-1.3-2.1-1.7-2.6c-5.1-7.8-12-14.9-7.9-26.5c0.4-1.1-1.5-3.3-2.7-4.6c-0.4-0.4-1.9,0.4-2.1,0.4
		C88.8,356.6,83.3,357,78.4,355.9z M100,481c0.3-0.8,0.6-1.5,0.8-2.3C90,473.1,79.1,467.4,68.1,462c-1.8-0.9-4.3-0.2-7.2-0.2
		c4.2,6.3,8.8,8.8,14.9,8.9c3.3,0.1,6.6,2.2,9.9,3.6C90.5,476.4,95.2,478.7,100,481z M95.5,452.9c0.1-0.6,0.3-1.2,0.4-1.7
		c-8.1-2.1-16.1-4.2-24.9-6.5c10.4,11.7,24,13,37.3,14.7c-3-1.8-6.4-2.7-9.7-3.7c-3.3-1-6.5-2.2-9.8-3.3c0.1-0.3,0.2-0.6,0.3-0.9
		C91.3,451.9,93.4,452.4,95.5,452.9z M65.6,472.4c4.9,6.6,10.2,10.8,16.6,11.6c6.3,0.7,12.9-0.7,19.3-1.1c-1.1-0.4-2.1-0.5-3.2-0.7
		c-5.3-1.1-11.8-0.6-15.6-3.9C77.5,473.9,71.9,474.8,65.6,472.4z M91.6,420.1c-3.8-1.6-7.5-3.4-11.4-4.6c-0.8-0.2-3.1,2-3.4,3.4
		c-0.6,2.3-0.2,4.8-0.2,8.3c1.5-1.9,2.3-2.8,2.8-3.4c0.6,2.8,1.1,5.3,1.7,7.8C82.8,422.3,83.1,422,91.6,420.1z M87.1,352.7
		c0.3-0.4,0.6-0.8,0.9-1.2c-4.9-6.9-11.7-10.4-19-13.1c-0.2,0.4-0.5,0.8-0.7,1.3C74.6,344,80.8,348.3,87.1,352.7z M121.8,409.4
		c-4-1.6-7.6-3.2-11.3-4.6c-3.5-1.4-7.2-2.6-10.7-3.9C106.3,407.1,114.4,411.2,121.8,409.4z M71.1,421.6c0.5,0,1.1,0,1.6-0.1
		c-1.9-3.4,3.2-8.6-3.8-10.6C69.6,414.5,70.4,418,71.1,421.6z"/>
	<path d="M27.8,283.7c-1.9-0.8-3.7-1.5-5.6-2.3c-10.4-11-24.2-15-37.3-20.5c-8.4-3.6-16.9-6.8-25.4-10.2c0.2-0.6,0.5-1.3,0.7-1.9
		c5.5,2.2,10.9,4.4,16.4,6.6c13.9,5.6,27.6,11.9,41.9,16.5c7.1,2.3,15,2.1,22.6,1.9c4.7-0.2,8.5-0.1,11.7,3.8
		c1.3,1.6,3.1,2.6,4.7,3.8c-1.1-0.2-2.5,0.1-3.2-0.6c-4.7-5-10.1-5.9-16.5-4.6c-3.7,0.7-7.6-0.3-11.4-0.6c7.4,3.1,15.3,5,22.5,8.3
		c11.2,5.2,22.2,11.2,33,17.3c6.9,3.9,13.7,8.2,19.9,13.1c6.3,5,11.7,11.3,17.9,16.4c4,3.4,8.7,5.8,13.1,8.6
		c0.4-0.6,0.7-1.2,1.1-1.7c-6.8-6.4-13.3-13.1-20.3-19.1c-4.7-4.1-9.3-7.7-9.7-15.1c-0.1-1.8-1.1-3.6-1.9-5.8
		c-0.9,2.9-1.6,4.9-2.3,7c-4.6,0.1-4.6,0.1-6.1-4.2c1.4,0.7,2.7,1.4,3.2,1.6c2-2.4,3.8-6.2,5.3-6.1c3.8,0.2,2.6,4.8,3.6,7.6
		c1.7,4.4,3.5,10.6,6.7,12.1c9.6,4.2,14.4,13.7,21.7,20.3c0.3,0.3,0.7,0.4,1.1,0.6c0.3-0.3,0.7-0.6,1-1c-4.3-5.9-8.5-11.8-12.8-17.7
		c0.1-0.1,0.2-0.3,0.4-0.4c2,1.5,3.9,2.9,5.9,4.4l-0.2-0.2c3.1,5.3,5.8,11,9.5,15.8c1.2,1.6,5.2,1.3,7.7,0.7c5.8-1.5,9.8,0.3,13,5.6
		c4.1,6.6,8.9,12.8,12.9,19.5c1.7,2.8,2.4,6.5,2.8,10c0.6,5.1,0.7,10.4,1,15.6c-0.4,0.1-0.8,0.3-1.2,0.4c-5-6.4-10-12.8-14.9-19.2
		c1,6.2,1.8,11.9,2.7,17.6l0.1-0.1c-2.3-5.6-4.7-11.3-7.2-17.4c-3.8,10.7-5.7,12.5-8.9,9.1c7-5.9,7.6-8,3.9-12
		c-4.9,3.8-9.9,7.6-16.3,3.5c1.5-0.4,2.9-0.8,4.5-1.2c-7.3-5.2-14.4-9.7-20.8-15c-3.9-3.3-6.9-8-10.2-12.1
		c-12-14.6-24.1-28.9-39.3-39.7C56.3,293.5,41.8,289.1,27.8,283.7z M171.6,377.3c-0.3-2.3-0.5-3.4-0.7-4.6c-0.1-0.5-0.4-0.9-0.7-1.3
		c-5.3-8.1-12.1-14.1-20.8-17.4c-1-0.4-2.3,0-3.4,0.4c-1.5,0.6-2.9,2.1-4.3,2.2c-7.1,0.3-12.8-3-17.6-8.5c-1.1-1.3-2.9-1.8-4.3-2.6
		c2.4,8.6,7.7,14,13.9,17.9c2.3,1.5,5.9,1,8.8,0.9c3.6-0.2,7.2-1.6,10.7-1.4C161.7,363.4,166.2,370.4,171.6,377.3z M137.4,345.5
		c13.7,1.8,24.2,6.8,31.1,19c-2.9-10.1-9.1-17.2-16.1-23.4c-1.3-1.1-3.9-1.5-5.6-0.9c-7.4,2.7-14.4,1.2-21.4-0.8
		c-1.5-0.4-3.3-0.1-4.9-0.1c-0.1,0.5-0.1,0.9-0.2,1.4c7.7,0.3,9.8,12.7,19.4,9.9C139,348.9,138.5,347.8,137.4,345.5z M118.6,334.2
		c-6-2-12.1-4.1-19.2-6.5c5.8,5.8,10.8,10.8,15.6,15.6C116.3,340.1,117.4,337.2,118.6,334.2z"/>
	<path d="M68.7,396.9c-7.5-3.9-15.7-7.1-16.8-18c-3.7,1.2-3.7,1.2-10.8-8.3c-0.3,2-0.7,4.2-1,6.4c-2.6-0.9-5.4-1.2-7.6-2.7
		c-8.1-5.7-15.9-11.8-23.9-17.8c3.6,2,7.3,3.6,10.7,6c6.1,4.2,12,8.9,19.3,14.2c-0.2-5.3-0.3-8.7-0.5-12.2c0.3-0.1,0.7-0.2,1-0.3
		c2.1,3,4.1,6.1,6.2,9.1c0.7,0.9,1.7,2.4,2.4,2.3c5.3-1.3,6.1,3.7,7.1,6.8c1.3,4.2,4,6,6.9,8.1C64.1,392.3,66.3,394.7,68.7,396.9z"
		/>
	<path d="M34.1,424.7c9.3,3.1,18.7,6,25.2,14.4c0.1,0.1,0,0.4,0,0.6C50.8,434.6,42.5,429.7,34.1,424.7z"/>
	<path d="M93.7,300.6c-3.8-1.9-7.6-3.9-11.4-5.7c-3.7-1.7-4.6-5.3-5.4-9.1c3.8,6.4,10,9.2,15.8,12.7
		C93.2,298.8,93.4,299.8,93.7,300.6z"/>
	<path d="M112,414c6.7,0,13.9,0,20.5,0C126.2,417.7,119.3,417.7,112,414z"/>
	<path d="M76.9,285.9c-0.9-0.8-1.9-1.6-2.8-2.4c-2.9,5-5.9,5-13.2,0.3c1.8,0.5,3.5,1,5.3,1.3c1.6,0.3,3.3,0.2,5.2,0.4
		c0.2-2.2,0.3-3.9,0.5-5.7c0.3-0.2,0.7-0.4,1-0.7C74.3,281.4,75.6,283.6,76.9,285.9z"/>
	<path d="M-43.5,401.2c5.1,3.8,10.2,7.7,15.3,11.5c-0.3,0.4-0.5,0.8-0.8,1.3c-5-4-10-7.9-15-11.9C-43.8,401.8-43.7,401.5-43.5,401.2
		z"/>
	<path d="M59.9,320.1c-4.8-3.1-9.6-6.2-14.5-9.3c4.4,2.1,8.8,4.2,13.1,6.5C59.2,317.7,59.4,319.2,59.9,320.1z"/>
	<path d="M129.8,321.7c-1.1-1.9-2.1-3.8-3.2-5.7c0.3-0.3,0.5-0.5,0.8-0.8c3.3,3.8,6.5,7.7,9.8,11.5c-0.2,0.3-0.5,0.5-0.7,0.8
		c-2.3-2-4.6-4.1-6.9-6.1C129.7,321.5,129.8,321.7,129.8,321.7z"/>
</g>
<g>
	<path d="M666.6,372.9c-5.3,5.8-10.3,12-15.8,17.5c-4.9,4.9-10.3,9.4-15.9,13.4c-4.2,3-9.4,4.5-13.5,7.6c-3.8,2.9-6.6,7.5-10.3,10.6
		c-8.4,6.8-17.1,13.1-25.6,19.7c-3.7,2.9-7.2,5.9-11.4,9.4c6-1.2,11.6-1.6,16.7-3.6c3.2-1.3,5.5-5.2,8.4-7.6c2.5-2,5.3-3.6,7.9-5.4
		c2.2-1.5,5.1-2.4,6.5-4.6c2.9-4.7,7-6.5,11.7-7.2c5.3-0.8,9.3-2.4,11.6-8.9c1.6-4.3,6.6-6.8,9.6-10.6c5.6-7.1,10.9-14.6,16.3-21.9
		c0.9-1.2,1.8-2.3,2.7-3.4c-0.9,2.2-1.7,4.5-2.8,6.7c-3.4,6.8-6.7,13.6-12.4,18.7c-4.5,4-8.6,8.8-11.8,14.1c-2,3.4-4.2,5.6-7.6,6.6
		c-3.7,1.1-7.8,1.7-11.1,3.7c-7.5,4.5-14.6,9.7-21.8,14.7c-0.7,0.5-1.6,1.6-1.5,2.2c0.9,4.2-2.2,5.7-4.2,7.8
		c-5,5.3-10.2,10.3-15.3,15.5c0.6,0.8,1.2,1.5,1.7,2.3c9.5-13.6,23.7-17.1,36.2-21.5c2,1.3,3.1,2,4.3,2.8c-2.6,1.6-4.9,3.3-8.3,1.4
		c-1.3-0.7-3.9,1.1-5.8,2c-7.1,3.7-14.2,7.4-21.2,11.2c0.3,0.6,0.5,1.2,0.8,1.9c18.1-6,36.2-12.1,54.3-18.1c-0.1-0.5-0.1-1-0.2-1.5
		c-3.8,0.6-7.5,1.1-11.3,1.7c-2.8,0.5-5.6,1.1-8.4,1.6c5.8-2,11.7-6,17.3-5.4c7.3,0.8,13.8,0.4,20.3-2.6c9.9-4.6,19.8-9.2,29.6-13.9
		c1.7-0.8,3.2-2.1,4.8-3.1c-7.2,9.5-17.4,13.1-27,18c-8.3,4.2-16.5,8.7-24,14.4c-9.2,7-17.6,15.2-29.5,16.1c2.2-1.4,4.3-3.7,6.7-4.1
		c7.9-1.3,13.6-6.4,19.2-11.9c1.5-1.5,3.1-2.9,4.3-4.8c-16.9,11.3-36.7,17.3-50.7,34.6c2.1-0.6,4.6-0.7,6.2-2
		c3.9-3.2,7.3-7.1,11-10.6c0.8-0.8,2.2-0.9,3.3-1.4c-2.2,10.2-11,11.7-17.9,15.8c0.2,0.6,0.5,1.2,0.7,1.8c9.8-2.4,19.6-4.8,29.8-7.3
		c-8.7,8-19.5,6.9-29.3,9.6c6.3-0.5,12.6-1,18.9-1.5c0,0.6,0.1,1.2,0.1,1.7c-6.4,0.5-12.8,1.5-19.3,1.3c-3.3-0.1-6.6-2.7-9.9-3.3
		c-11.4-1.9-22.9-3.4-34.4-5.2c-0.9-0.1-1.7-1.1-2.5-1.6c0.6-0.8,1.1-2,1.9-2.3c5-2.1,10.3-3.6,15.2-6c3.8-1.9,9.1-2.4,9.7-9.5
		c-3.6,0.8-6.9,1.6-10.2,2.3c-7.7,1.6-7.7,1.6-9.7-0.7c5.7-1.2,11.2-2.4,17.3-3.8c-1.1-0.9-1.4-1.4-1.8-1.5
		c-6.1-0.3-12.3,3.6-18.2-1.1c-0.2-0.2-0.8,0.3-1.3,0.5c-8,3.2-15.9,0.5-23.6-1.8c-3.9-1.2-7.4-3.8-11.8-6.2
		c8.5-4.2,15.8-7.7,23-11.4c0.9-0.5,1.8-1.4,2.4-2.4c4.8-8.7,8.2-18.4,15.7-24.8c2-1.7,4.2-3.4,6.2-5.1c-0.2-0.4-0.4-0.8-0.6-1.2
		c-1.2,0.5-2.4,1-3.6,1.5c-6,2.4-12,3.9-17.9-0.9c-7.7-6.3-19.7-6.9-27.2-0.8c-3.2,2.6-5.6,6.2-8.5,9.2c-1.9,1.9-4,3.6-6,5.4
		c0.3-3.2-0.2-6.8,0.9-9.5c3.8-8.7,8.3-17.1,12.6-25.8c-1.6,1.1-3.2,2.5-5,3.6c-1.1,0.7-2.4,1.1-3.6,1.7c-0.2-1.6-0.6-3.2-0.5-4.8
		c0-1.1,0.7-2.1,1.1-3.2l-0.1-0.1c0,1.5,0.1,3.1,0.1,4.6c0.5,0.1,0.9,0.3,1,0.1c4.6-5.8,12.2-4.6,17.2-8.2
		c7.6-5.5,17.8-4.5,24.1-12.6c1.9-2.4,4.8-3.9,7.3-5.8c0.1,1,0.2,2,0.3,4c2.9-3,5.3-5.5,7.9-8.3c-3-1.9-5-3.2-5.8,1.4
		c-0.2,1.2-1.7,2.1-2.7,3.2c1.4-3.1,2.7-6.2,4.1-9.2c0.2-0.5,1.3-1,1.6-0.7c5.2,3.8,7.7-1.7,10.9-3.8c2.6-1.7,4.6-4.4,6.9-6.7
		c0.7-0.7,1.6-1.6,1.6-2.4c-0.5-10.3,6.8-14.4,12.9-18.7c5.5-3.9,10.7-9.1,17.9-9.4c0.7,0,1.7-0.4,2-1c5.4-11,17.1-9.8,25.1-15.5
		c2.9-2.1,6.1-3.7,9.1-5.5c1.9-0.6,3.8-1.3,5.7-1.9c-2.2,1.7-4.4,3.5-6.6,5.2c-10.8,7.9-25.1,8.7-34,20.4c-0.4,0.5-1.1,0.5-1.7,0.8
		c-5.6,3-11.6,5.3-16.7,9.1c-4.5,3.3-8,8.3-11.9,12.5c0.4,0.5,0.7,1,1.1,1.4c2.7-0.7,5.6-1.1,8.2-2.3c6.1-2.8,12-6.1,18-9.1
		c-5.3,5.2-9.8,12.1-18,11.9c-4-0.1-6.9,1.3-9.7,4.5c-6.8,7.8-13.9,15.1-20.4,23.3c6.3-2.2,11.8-5.7,16.7-10.6
		c7.1-7,14.5-13.3,24.4-15.3c4.3-0.8,8.3-2.8,12-6.6c3.2-3.4,8.9-4.7,13.7-5.2c12.6-1.3,24.6-4.6,36.5-8.9c1-0.4,1.8-1.2,2.3-2.9
		c-2.7,0.5-5.4,1-8.2,1.6c-0.2-0.3-0.3-0.6-0.5-0.8c2.8-2.9,5.7-5.7,8.5-8.6c-0.2-0.4-0.3-0.7-0.5-1.1c-8.7,3.5-17.3,7.2-26,10.6
		c-3.1,1.2-6.5,1.6-10.5,2.6c1-2.1,1.5-3.4,2.2-4.9c-1.6,0.2-2.7,0.4-3.9,0.6c1.8-1.5,3.6-2.9,6.2-5c-0.8,3.1-1.3,4.8-2.1,7.8
		c3.9-1.4,6.9-2.4,9.8-3.6c8.9-3.6,17.8-7.1,26.6-10.9c3-1.3,5.6-3.3,8.5-5.1c0,0.2,0,0.3,0.1,0.5c-4.5,4.7-9,9.4-13.4,14.1
		c0.3,0.4,0.5,0.9,0.8,1.3c2.9-0.2,6.1,0.3,8.6-0.8c13.6-5.8,27.1-12.2,40.7-18c4.9-2.1,10.1-3.1,15.2-4.7
		c-6.4,3.7-13.2,6.3-19.7,9.4c-14.8,7.1-29.6,14.2-44.2,21.7c-4.7,2.5-8.8,6.5-13.1,9.8c0.9-1.4,1.8-2.9,2.7-4.3
		c-0.2-0.3-0.4-0.7-0.7-1c-12.5,6.3-25.1,12.7-37.6,19c-4.4,3.4-8.8,6.9-13.1,10.3c0.2,0.3,0.4,0.7,0.6,1c1.5-0.4,3-0.7,4.4-1.1
		c-4.8,2.7-9.5,5.8-14.6,7.9c-5.5,2.3-9.5,5.5-12.1,11.5c-2.2,5.1-5.7,9.5-9.2,15.3c5.8-2.3,10.8-3.9,15.4-6.4
		c1.5-0.8,2.1-3.7,3.4-6.1c-2.7-0.8-4.6-1.4-7.5-2.3c9.1-10.3,20.6-12.8,32.1-16c-2.6-4-0.7-6.3,1.9-9c3.7-3.7,6.1-9.7,12-9
		c7.2,0.9,13-2.1,18.7-5.8c-4.3,4.9-8.7,9.5-15.9,7.5c-1.7-0.5-4.2,0.4-5.7,1.6c-3.3,2.6-6.2,5.7-9.3,8.7c-0.7,0.7-1.2,1.7-1.6,2.2
		c1.7,1.6,3.1,2.8,4.4,4.1c-1.8,0.7-3.5,1.4-5.3,2c-8.3,2.7-17.1,4.4-24.2,10.3c-0.6,0.5-1.1,2.3-0.7,3.1c2.9,6.6,1.9,8.9-4,11.5
		c-8,3.5-15.7,7.6-23.5,11.4c0.2,0.6,0.4,1.2,0.6,1.9c7.3-1.5,14.6-2.9,21.9-4.4c-13.5,9.7-25.7,20.8-32,37.9
		c2.1-1.5,3.8-3.5,5.2-5.7c3.5-5.1,6.6-10.5,10.5-15.2c2.5-3,6-5.1,9.3-6.9c2.5-1.3,5.6-1.1,8.4-1.8c3.6-1,7.1-2.3,10.7-3.4
		c-6.6,2.6-13.2,5.1-19.7,8c-2.3,1-4.2,3.1-6.1,4.9c-6.4,6.1-9.5,10.6-10.4,15.3c2-2.2,3.9-4.6,6.1-6.6c3.6-3.2,6.9-5.7,12.2-6.5
		c8.5-1.4,16.9-5.1,24.7-9.3c11.8-6.5,23.2-14,34.4-21.6c9.5-6.4,18.6-13.6,27.5-21.6c-1.3-0.1-2.6-0.2-3.9-0.4
		c18.3-8.1,34.6-19.9,50.7-32.2c-0.6,0.9-1.2,1.9-2.5,3.8c4.1-2.1,7.1-3.6,10.1-5.1c-1.2,2.1-2.8,3.2-4.4,4.3
		c-9.7,6.5-19.7,12.4-29,19.5c-5.7,4.3-10.2,10.5-15.3,15.8C668.4,372.6,667.1,372.3,666.6,372.9z M517.6,397.9
		c5-5.4,9.9-9.4,17.6-7.2c1.9,0.5,4.3-1,6.3-2c4.7-2.3,9.1-5.6,15-3.9c1.5,0.4,4.7-2.2,5.2-4.1c0.7-2.4-0.5-5.5-4.1-5.2
		c-1.6,0.2-3.4-0.1-4.9,0.4c-9.5,3.2-19,6.5-28.4,9.9c-8.9,3.2-19.4,18.8-21.1,26.1C506.7,408.5,512.4,403.5,517.6,397.9z
		 M546,461.7c8.4-3.4,16.6-7.6,24.5-12.5c5.1-3.1,9.5-7.7,8.6-15.5c-0.4-3.4-1.6-5.5-4.8-2.7c-2.4,2.1-4.7,4.3-7,6.5
		c-0.5,0.5-1.2,1.7-1,2.2c3,7.5-3.3,8.9-6.6,10.4c-7.9,3.7-16.5,6-24.7,8.9c-0.4,0.1-0.7,0.6-1,0.9c0,0.7,0,1.4,0.1,2
		C538,462,542.5,463.2,546,461.7z M558,446.7c2.1-1.4,3-5,4.7-7.4c2.7-4,5.6-7.8,8.3-11.5c-5.2,0-8,5.5-12.2,8.4
		c-2.5,1.8-4.8,3.9-7.5,5.4c-8.5,4.7-17.1,9.1-25.6,13.6c0.1,0.4,0.2,0.8,0.3,1.3C536.9,453.8,548.3,453.2,558,446.7z M545.9,394.3
		c-4.1,2.1-8,3.3-12.5,2.3c-5.8-1.3-10.2,1.5-14.1,6.3c1.4-0.3,2.9-0.9,4.3-0.8c4.8,0.2,9.9-0.4,14.2,1.4c7.2,3,12,0.2,16.6-4.9
		c1.4-1.5,2.7-3.2,4.4-5.3C553.8,390.4,549.7,392.4,545.9,394.3z M575.4,366c-0.2-0.1-1.7-0.9-2.1-0.5c-1.3,1.2-3.3,3.3-3,4.5
		c3.3,11.8-4,18.4-9.6,25.9c-0.4,0.5-0.7,1-1.8,2.5c2-0.8,3.3-0.8,3.8-1.6c5.4-7.7,12.7-13.6,16.7-22.7c1.6-3.7,5.5-6.1,8.4-9
		c0.9-0.9,2.1-1.6,3.2-2.4c-0.2-0.4-0.5-0.8-0.7-1.2C585.2,362.1,579.7,361.3,575.4,366z M575.4,479c3.3-1.2,6.7-3.1,10.1-3
		c6.1,0.3,10.8-1.9,15.4-7.9c-2.9-0.1-5.4-1-7.2-0.2c-11.3,4.7-22.5,9.7-33.7,14.6c0.2,0.8,0.5,1.6,0.7,2.3
		C565.6,482.8,570.5,480.8,575.4,479z M573.4,456c0.1,0.3,0.1,0.6,0.2,0.9c-3.3,0.9-6.6,1.8-10,2.7c-3.3,0.8-6.7,1.5-9.9,3.1
		c13.4-0.8,27-1.3,38.2-12.3c-8.9,1.7-17.1,3.3-25.3,4.9c0.1,0.6,0.2,1.2,0.3,1.8C569.1,456.7,571.2,456.4,573.4,456z M578.1,483.1
		c-4,3-10.5,2.1-15.8,2.9c-1.1,0.2-2.1,0.2-3.2,0.5c6.4,0.9,12.9,2.7,19.2,2.3c6.4-0.3,12-4.2,17.3-10.5
		C589.1,480.4,583.5,479.1,578.1,483.1z M582.6,436.7c0.7-2.5,1.4-4.9,2.2-7.6c0.5,0.7,1.2,1.6,2.6,3.6c0.2-3.4,0.8-6,0.4-8.3
		c-0.3-1.4-2.4-3.8-3.2-3.6c-4,0.9-7.8,2.5-11.6,3.8C581.3,427,581.6,427.4,582.6,436.7z M601.2,345.7c-0.2-0.4-0.4-0.9-0.7-1.3
		c-7.4,2.2-14.5,5.3-19.8,11.9c0.3,0.4,0.6,0.9,0.8,1.3C588.2,353.6,594.7,349.7,601.2,345.7z M566,404.9c-3.7,1.1-7.3,2-11,3.2
		c-3.7,1.2-7.5,2.5-11.5,3.9C550.7,414.2,559,410.7,566,404.9z M596.1,416.8c-7.1,1.6-2.3,7.1-4.4,10.4c0.5,0.1,1.1,0.1,1.6,0.2
		C594.2,423.8,595.2,420.3,596.1,416.8z"/>
	<path d="M603,308.5c-15.8,9.8-28.8,23.4-41.7,37.1c-3.6,3.9-6.8,8.4-11,11.5c-6.7,5-14,8.9-21.7,13.7c1.6,0.5,3,1,4.5,1.5
		c-6.6,3.7-11.3-0.4-16-4.5c-4,3.8-3.5,5.9,3.1,12.2c-3.4,3.2-5.2,1.3-8.3-9.6c-2.9,6-5.6,11.4-8.3,16.9l0.1,0.1
		c1.2-5.6,2.5-11.2,3.8-17.4c-5.3,6-10.7,12.1-16.1,18.2c-0.4-0.2-0.8-0.3-1.2-0.4c0.6-5.2,1-10.4,1.9-15.5c0.6-3.4,1.6-7.1,3.4-9.8
		c4.4-6.5,9.6-12.3,14.1-18.6c3.6-5,7.7-6.6,13.4-4.8c2.4,0.8,6.4,1.3,7.7-0.2c4-4.5,7-10,10.4-15.2l-0.2,0.2c2-1.3,4.1-2.7,6.1-4
		c0.1,0.1,0.2,0.3,0.3,0.4c-4.6,5.6-9.3,11.3-13.9,16.9c0.3,0.3,0.6,0.7,1,1c0.4-0.2,0.8-0.3,1.2-0.5c7.8-6.1,13.2-15.2,23-18.8
		c3.4-1.2,5.5-7.4,7.5-11.6c1.3-2.7,0.3-7.4,4.1-7.3c1.5,0,3.1,3.9,4.9,6.4c0.5-0.2,1.9-0.8,3.3-1.4c-1.8,4.3-1.8,4.3-6.3,3.9
		c-0.5-2.1-1.1-4.2-1.9-7.1c-0.9,2.2-2,3.9-2.3,5.7c-0.9,7.3-5.7,10.7-10.6,14.5c-7.4,5.6-14.3,11.9-21.5,17.8
		c0.3,0.6,0.6,1.2,1,1.8c4.6-2.5,9.4-4.6,13.6-7.7c6.5-4.8,12.3-10.7,18.9-15.3c6.6-4.5,13.6-8.4,20.7-11.9
		c11.2-5.4,22.5-10.7,34-15.2c7.4-2.9,15.4-4.3,23-6.9c-3.8,0-7.8,0.8-11.4-0.2c-6.3-1.7-11.8-1.1-16.8,3.5
		c-0.7,0.6-2.1,0.3-3.2,0.4c1.7-1.1,3.6-2,5-3.5c3.5-3.8,7.3-3.6,12-3.1c7.5,0.8,15.4,1.4,22.6-0.4c14.5-3.7,28.6-9.1,42.8-13.8
		c5.6-1.8,11.2-3.7,16.7-5.5c0.2,0.6,0.4,1.3,0.6,1.9c-8.7,2.8-17.4,5.6-26,8.6c-13.4,4.7-27.4,7.8-38.5,18.1
		c-1.9,0.6-3.8,1.3-5.7,1.9C630.8,296.9,616.1,300.4,603,308.5z M515,363.5c3.5,0,7,1.6,10.6,2.1c3,0.3,6.5,1,8.9-0.3
		c6.4-3.6,12-8.5,15-17c-1.5,0.8-3.3,1.2-4.5,2.4c-5.1,5.2-11,8.2-18.1,7.4c-1.4-0.2-2.7-1.8-4.2-2.5c-1-0.5-2.3-0.9-3.3-0.6
		c-8.9,2.7-16.1,8.3-21.9,16c-0.3,0.4-0.6,0.8-0.8,1.3c-0.3,1.1-0.5,2.3-1,4.5C501.6,370.3,506.6,363.5,515,363.5z M529.2,352
		c9.4,3.4,12.4-8.8,20-8.6c0-0.5-0.1-0.9-0.1-1.4c-1.6-0.1-3.3-0.5-4.9-0.2c-7.2,1.5-14.2,2.7-21.4-0.5c-1.6-0.7-4.3-0.5-5.6,0.6
		c-7.4,5.8-14,12.5-17.5,22.4c7.7-11.7,18.5-16.1,32.2-17C530.6,349.4,530,350.5,529.2,352z M554.4,346.5
		c5.1-4.5,10.4-9.2,16.6-14.6c-7.3,2-13.5,3.7-19.6,5.3C552.3,340.2,553.3,343.2,554.4,346.5z"/>
	<path d="M597.2,402.8c7.7-3.4,16.1-6.1,17.9-16.9c3.6,1.4,3.6,1.4,11.3-7.6c0.2,2,0.4,4.3,0.6,6.5c2.6-0.7,5.5-0.8,7.8-2.2
		c8.4-5.2,16.7-10.8,25-16.3c-3.7,1.7-7.5,3.2-11,5.3c-6.4,3.8-12.6,8.1-20.1,13c0.5-5.2,0.9-8.7,1.3-12.1c-0.3-0.1-0.7-0.2-1-0.3
		c-2.2,2.9-4.5,5.8-6.8,8.7c-0.7,0.9-1.9,2.3-2.5,2.1c-5.2-1.7-6.3,3.3-7.5,6.4c-1.6,4.1-4.4,5.7-7.4,7.7
		C602.1,398.6,599.7,400.8,597.2,402.8z"/>
	<path d="M630,432.8c-9.5,2.6-19,4.8-26.1,12.8c-0.1,0.1,0,0.4,0,0.6C612.7,441.6,621.3,437.2,630,432.8z"/>
	<path d="M578.3,305.1c3.9-1.7,7.8-3.5,11.8-5c3.8-1.5,5-5,6-8.7c-4.2,6.1-10.6,8.6-16.6,11.7C579,303.4,578.7,304.4,578.3,305.1z"
		/>
	<path d="M552.9,417.2c-6.6-0.4-13.8-0.9-20.5-1.3C538.5,419.9,545.4,420.4,552.9,417.2z"/>
	<path d="M596,291.6c1-0.7,2-1.5,3-2.2c2.6,5.1,5.6,5.3,13.1,1.1c-1.8,0.3-3.6,0.8-5.4,1c-1.6,0.2-3.3,0-5.2,0
		c0-2.2-0.1-3.9-0.1-5.7c-0.3-0.2-0.7-0.5-1-0.7C598.9,287.2,597.5,289.4,596,291.6z"/>
	<path d="M708.9,414.2c-5.3,3.5-10.7,7-16,10.6c0.2,0.4,0.5,0.9,0.7,1.3c5.3-3.6,10.5-7.3,15.8-10.9
		C709.2,414.8,709.1,414.5,708.9,414.2z"/>
	<path d="M610.9,326.8c5-2.8,10-5.6,15-8.4c-4.5,1.9-9,3.6-13.4,5.7C611.7,324.4,611.4,325.9,610.9,326.8z"/>
	<path d="M541,324c1.2-1.8,2.3-3.6,3.5-5.5c-0.2-0.3-0.5-0.5-0.7-0.8c-3.5,3.6-7,7.3-10.5,10.9c0.2,0.3,0.4,0.5,0.6,0.8
		c2.4-1.9,4.8-3.8,7.2-5.6C541.1,323.8,541,324,541,324z"/>
</g>
<rect x="426.8" y="376.1" transform="matrix(0.9011 0.4336 -0.4336 0.9011 211.2762 -151.1547)" class="st114" width="20.4" height="23.1"/>
</svg>
