<?xml version="1.0" encoding="utf-8"?>
<!-- Generator: Adobe Illustrator 18.1.0, SVG Export Plug-In . SVG Version: 6.00 Build 0)  -->
<!DOCTYPE svg PUBLIC "-//W3C//DTD SVG 1.1//EN" "http://www.w3.org/Graphics/SVG/1.1/DTD/svg11.dtd">
<svg version="1.1" id="Layer_1" xmlns="http://www.w3.org/2000/svg" xmlns:xlink="http://www.w3.org/1999/xlink" x="0px" y="0px"
	 viewBox="0 0 18 18" style="enable-background:new 0 0 18 18;" xml:space="preserve">
<style type="text/css">
	.st0{fill-rule:evenodd;clip-rule:evenodd;}
</style>
<path class="st0" d="M0.3,16.1l7.9-7.8c0.4-0.4,1.1-0.4,1.6,0c0.4,0.4,0.4,1.1,0,1.6l-7.9,7.8c-0.4,0.4-1.1,0.4-1.6,0
	C-0.1,17.2-0.1,16.6,0.3,16.1z"/>
<path class="st0" d="M8.2,8.3c0.4-0.4,1.1-0.4,1.6,0l7.9,7.8c0.4,0.4,0.4,1.1,0,1.6c-0.4,0.4-1.1,0.4-1.6,0L8.2,9.9
	C7.8,9.4,7.8,8.7,8.2,8.3z"/>
<path class="st0" d="M17.7,1.9L9.8,9.7c-0.4,0.4-1.1,0.4-1.6,0c-0.4-0.4-0.4-1.1,0-1.6l7.9-7.8c0.4-0.4,1.1-0.4,1.6,0
	C18.1,0.8,18.1,1.5,17.7,1.9z"/>
<path class="st0" d="M9.8,9.7c-0.4,0.4-1.1,0.4-1.6,0L0.3,1.9c-0.4-0.4-0.4-1.1,0-1.6c0.4-0.4,1.1-0.4,1.6,0l7.9,7.8
	C10.2,8.6,10.2,9.3,9.8,9.7z"/>
</svg>
