<?xml version="1.0" encoding="utf-8"?>
<!-- Generator: Adobe Illustrator 18.1.0, SVG Export Plug-In . SVG Version: 6.00 Build 0)  -->
<!DOCTYPE svg PUBLIC "-//W3C//DTD SVG 1.1//EN" "http://www.w3.org/Graphics/SVG/1.1/DTD/svg11.dtd">
<svg version="1.1" id="Layer_1" xmlns="http://www.w3.org/2000/svg" xmlns:xlink="http://www.w3.org/1999/xlink" x="0px" y="0px"
	 viewBox="0 0 575.4 371.3" enable-background="new 0 0 575.4 371.3" xml:space="preserve">
<g>
	<path fill="#FFFFFF" d="M83.4,39.9c0-4.8,3.8-8.6,8.6-8.6h37.4c4.8,0,8.6,3.8,8.6,8.6v214.8c0,58.5-35.5,89.2-82.5,89.2
		c-24,0-45.1-10.5-52.7-17.3C0,324.7-1,319.9,1,317.1l14.4-27.8c1.9-3.8,6.7-4.8,10.5-1.9c5.8,3.8,16.3,8.6,25.9,8.6
		c20.1,0,30.7-14.4,30.7-40.3V39.9H83.4z"/>
	<path fill="#FFFFFF" d="M237.8,313.2c0-16.3,13.4-30.7,29.7-30.7c17.3,0,30.7,13.4,30.7,30.7c0,16.3-13.4,30.7-30.7,30.7
		C251.3,343.9,237.8,330.5,237.8,313.2z"/>
	<path fill="#FFFFFF" d="M268.5,27.4c49.9,0,91.1,42.2,91.1,92.1c0,50.8-41.2,93-91.1,93s-91.1-42.2-91.1-93
		C177.4,69.6,217.7,27.4,268.5,27.4z M268.5,164.6c24,0,42.2-20.1,42.2-45.1s-19.2-44.1-42.2-44.1c-24,0-42.2,20.1-42.2,44.1
		C225.4,144.4,244.6,164.6,268.5,164.6z"/>
	<path fill="#FFFFFF" d="M375.9,43.7c-2.9-5.8,1-11.5,7.7-11.5h40.3c3.8,0,5.8,1.9,7.7,4.8l45.1,99.7l0,0L520.8,37
		c1.9-4.8,5.8-4.8,10.5-4.8h35.5c6.7,0,10.5,5.8,7.7,11.5L438.3,334.3c-1,2.9-3.8,4.8-7.7,4.8h-38.4c-6.7,0-10.5-5.8-7.7-11.5
		l63.3-132.3L375.9,43.7z"/>
</g>
</svg>
