<?xml version="1.0" encoding="utf-8"?>
<!-- Generator: Adobe Illustrator 19.0.0, SVG Export Plug-In . SVG Version: 6.00 Build 0)  -->
<svg version="1.1" id="Layer_1" xmlns="http://www.w3.org/2000/svg" xmlns:xlink="http://www.w3.org/1999/xlink" x="0px" y="0px"
	 viewBox="0 0 612 792" style="enable-background:new 0 0 612 792;" xml:space="preserve">
<style type="text/css">
	.st0{fill:#FFFFFF;}
	.st1{display:none;}
</style>
<g>
	<path class="st0" d="M393,679c-112,0-223.9,0-336,0c0-195.9,0-391.9,0-587.9c171.9,0,343.7,0,515.8,0c0,195.9,0,391.9,0,587.9
		c-57.9,0-115.9,0-173.8,0c2.4-0.8,4.7-1.8,7.2-2.5c3.9-1.2,8.5-1.3,11.8-3.4c7.8-4.9,9.2-11.8,5.6-19.9c2.2-1.4,4.2-2.7,7-4.5
		c-2.4-0.5-3.7-0.5-4.9-1c-1.4-0.6-2.7-1.5-4-2.2c1.4-1.2,2.7-3.3,4.2-3.3c3.4-0.1,6.7,0.8,10.1,1.3c1.9,0.3,4,1.2,5.6,0.5
		c4.1-1.7,8-4,12.1-6.2c1.1,1,2.6,2.5,4.2,3.9c0.3-0.3,0.6-0.6,1-1c-0.3-1.5-0.6-3.1-1.2-6.2c5.3,1.6,9.6,2.9,14.3,4.3
		c0.9,1.8,2,4.1,3.3,6.9c0.7-3.4,1.3-6,1.7-7.9c-2.5-2.8-4.7-5.3-6.2-7c-4.6-0.3-8.5-0.6-12.4-0.7c-5-0.2-7.7-2.8-8.3-8.6
		c-2.3,1.8-4.3,3.3-6.6,5c-3.2-12.1-14.2-10.6-23.5-13c1.4-1.8,2.8-3.4,3.8-5.2c0.7-1.2,1.4-2.8,1.2-4c-1.3-5.4-9.6-9.8-14.7-7.9
		c-4,1.5-7.9,3.3-11.9,4.7c-1.1,0.4-2.5,0.2-3.3,0.3c-1.1,1.2-2.2,2.3-3.2,3.5c-2.1-0.6-4.1-1.6-6.2-1.7c-3-0.1-6.1,0.4-9.2,0.6
		c0-0.5,0-1-0.1-1.4c1.6-0.1,3.2-0.2,5.2-0.4c-6.6-2.3-6.7-2.9-3.3-8.8c0.9-1.5,0.7-3.6,1-5.5c-0.3,0-0.5-0.1-0.8-0.1
		c-0.3,1.3-0.6,2.6-0.8,3.9c-0.2,0-0.4-0.1-0.6-0.1c0-4.2,0-8.3,0-12.5c0.3,0,0.7,0,1,0.1c-0.3,1.5-0.5,3.1-0.8,4.6
		c0.3,0.1,0.6,0.1,1,0.2c0.4-2.8,0.9-5.6,1.4-8.7c1-0.5,2.3-1.1,3.6-1.8c-1.3-1.1-2.4-1.1-3.6-1.1c-1.1,0-2.2,0.3-3.2,0
		c-3.4-1-6.8-2.3-9.5-3.2c0-3,1-7.1-0.2-10.5c-3.1-8.6-8.6-11.5-17.6-9.8c-3.5,0.6-4.6-1-5.6-3.3c-1.7-4.3,1.7-6.1,4.5-7.4
		c12.9-6.2,21.7-15.1,21.2-31.2c3.3,0.7,6.3,1.4,10,2.2c-1.7-1.4-2.8-2.3-4.5-3.7c3.4-3.4,6.6-6.6,10.3-10.3
		c-0.2-0.7-0.8-2.6-1.6-4.8c-5.6,11.5-9.1,15.1-15,15.4c0.2-2.3,0.4-4.5,0.7-7.9c-0.9,2.6-1.5,4-1.8,4.9c-3.6-0.6-6.8-1.1-10.4-1.7
		c1.3-4.9,3.6-9.2,8.4-11.5c9.6-4.5,14.2-13.3,17.6-22.3c3-7.8,3.5-16.3-0.4-24.6c-1.3-2.8-0.8-7.5,0.7-10.4
		c2.4-4.5,6.3-8.2,9.8-12.5c1.9,4.2,3.6,8.3,5.8,13.3c5.8-7.8,4.3-15.9,3.6-24.7c2.1,0.8,4.4,1,5.4,2.2c3.3,4,6.1,8.6,12.2,3.7
		c0.1-3.9,1-6.3,6.6-6.3c3.2,0,6.8-3.6,9.5-6.3c0.9-1-0.2-4.2-0.8-6.3c-0.3-1-1.6-1.8-2.6-2.9c2.5-2.3,4.7-4.4,6.7-6.2
		c2,1.5,3.9,2.8,5.8,4.1c1.6-1.3,2.8-2.4,4.1-3.5c4.4-3.6,11.5-3.9,15.2,0.4c2.8,3.3,3.9,1.5,5.1-0.7c1.3-2.3,2-4.8,3.1-7.2
		c2.2-4.9,4.5-9.8,7-15.4c-0.3-0.3-1.5-1.6-2.6-2.8c-0.4,0.8-0.8,1.4-1.2,2.1c-0.3-0.1-0.6-0.2-1-0.2c-0.1-1.7-0.2-3.5-0.2-4.2
		c7.2,0.2,13.7,0.5,20.2,0.6c0.4,0,1.1-0.3,1.3-0.7c1.9-3.8,4.6-2.3,7.1-0.9c3.7,2,7.2,4.1,10.9,6.2c6.7,3.9,13.5,0.9,20.2,0
		c1-0.1,2.3-1.4,2.5-2.3c0.4-2.3,0.2-4.7,0.2-7c-4,0.3-1.2-1.7-1-2.8c0.3-1.1,1.1-2.1,1-3.2c-0.4-6.7,2.7-9.7,9.3-11.7
		c8.9-2.8,11.1-5.7,8.6-12.2c-1.9-0.2-3.6,0.1-4.4-0.6c-4.4-4.2-4.7-4.3-9.1,0.1c-2.5,2.5-4.9,5.1-7.7,7.1
		c-5.5,3.8-11.2,7.2-16.9,10.8c-0.3-0.5-0.6-1-1-1.5c9.7-4.4,17.8-10.7,24.6-18.8c5.9-7.1,5.9-7.1-1-12.7c-0.3-0.2-0.6-0.4-0.7-0.7
		c-2.2-3.5-4.5-3.3-6.6-0.1c-3.6-1.6-6.9-3.1-10.2-4.5c7.5-12.9,7.5-13-3.4-19.2c0-5.1,0-10,0-14.5c-6.3-2.5-12.5-4.9-18.2-7.2
		c1.4-0.8,3.6-2.1,5-2.9c-2-2.4-3.7-4-4.8-6c-1.6-2.9-6.3-5.2-9.2-4.2c-2.1,0.8-4.2,1.5-6.3,2.2c-1.7-7-8.3-9.4-13.7-5.9
		c-2.2-6-15.8-7.9-20-3.1c0.6,0.8,1.2,1.5,1.8,2.3c-1.4,0.8-2.9,1.6-5.4,2.9c0.6-3.4,0.9-5.1,1.1-6.7c-8.3-3.4-31.6-4.6-34.9-2.8
		c2.4,2.3,5.6,4.4,7.5,7.4c1.5,2.3,1.3,5.7,1.8,8.6c1.6,1.9,3.3,3.9,4.9,5.8c3.1,2.1,6.2,4.1,9.2,6.1c-0.6,0.8-1.3,1.7-2,2.6
		c1.1-0.1,2.2-0.1,3.3-0.3c1.3-0.2,2.5-0.5,3.7-0.8c0.2,0.6,0.4,1.2,0.6,1.8c-2.6,1-5.1,2.1-8.3,3.3c1.8,0.7,3,1.2,5.1,2.1
		c-2.2,0.6-3.4,0.9-4.5,1.2c-0.1,0.5-0.2,0.9-0.3,1.4c2,1.2,3.8,2.7,5.9,3.7c3.4,1.7,8.1,0.9,9.9,5.5c0.1,0.4,1.2,0.3,1.8,0.6
		c1.5,0.6,3.3,0.9,4.2,2c1.3,1.5,1.7,3.7,2.7,5.4c1.7,3.1,1.3,13.6-1.3,15.9c-1.9,1.7-4.5,2.7-6.8,4c-0.6-2.5-1.1-4.8-1.9-8.4
		c-0.6,1.9-0.9,2.4-0.9,3c-0.1,2.5,0.8,6.4-0.4,7.4c-4.2,3.2-3.5,5.5,0.6,8.6c-2.3,0.4-3.8,0.7-4.6,0.8c-2.1,6.6-4.1,12.6-6,18.5
		c-2.3-3.7-4.6-7.2-6.9-10.8c-0.5,4.4-0.6,8-1.3,11.5c-1.3,6.2,0.2,8.6,6.2,9.4c-2.6,8.4,7,9.7,8.9,15.5c-3.7,4.9-9,6.1-14.5,6.6
		c-0.2-0.4-0.4-0.8-0.6-1.2c1.1-1,2.3-2.1,3.4-3.1c-1.7-1.9-3.3-3.8-6.1-7c-1.7,5-3,8.9-4.3,12.9c-1.4-1.4-3-3-4.5-4.6
		c2.9-4.2,9.1-5.7,9.5-11.9c0.6,0.3,1.3,0.6,2.2,0.9c-2-3.2-4.9-3-7.3,0.1c-2.4,3.2-4.6,6.5-7.3,10.3c1.1,0.1,2.1,0.2,3,0.3
		c-1.1,6.5-2.1,13.1-3.2,19.6c-0.3,0.5-0.6,1-0.9,1.5c-1.4-0.2-2.8-0.6-4.3-0.7c-1.8-0.1-4.2-0.7-5.3,0.1c-2.2,1.8-3.8,4.4-5.7,6.8
		c-1.9-1.4-3.3-2.5-4.8-3.6c2-5.2,4-10.1,5.3-13.5c-2.4-6.1-4.3-11.2-6.3-16.3c-5,11.7-9.8,22.9-14.7,34.4c1.4,0.6,3.8,1.1,5.6,2.5
		c2.9,2.1,7.3,4.5,7.7,7.3c0.4,2.9-2.9,6.5-4.9,9.6c-0.7,1.1-2.4,1.7-3.8,2.4c-3.9,1.8-8.2,3.3-4.4,9.9c-2.1-2.4-3.3-3.7-4.5-5.1
		c-1.4,1.2-2.7,2.4-4.4,3.9c-0.2-0.6-0.5-1.5-0.7-2.5c-0.4,0.3-0.8,0.6-1.2,0.9c0,6.3,0.7,12.6-0.2,18.8c-1,7.3-5.5,13.1-11.2,19.2
		c0.8-3.9-2.2-7.3-5.6-6.9c-2.9,0.4-5.7,1.9-8.6,2.9c-0.9,0.5-1.8,0.9-2.7,1.4c-4.9,3.7-9.7,7.4-14.6,11.2c-0.6-1.4-1.2-2.8-2-4.5
		c-0.9,1.2-1.5,2-2,2.7c-1.7-0.9-3.2-1.7-3.6-1.9c-5.5,4.5-10.4,8.4-15.3,12.4c-0.3-0.2-0.6-0.5-0.9-0.7c0.2-1.2,0.5-2.4,0.9-4.4
		c-4.7,4.3-8.8,8.2-12.9,12c3.4-4.6,6.7-9.1,10.1-13.7c-0.2-0.2-0.4-0.4-0.6-0.5c-1.5,0.8-3.1,1.6-4.5,2.4c-0.3-0.9-0.5-1.5-0.6-2.1
		c-2,1-3.5,1.1-3.3-1.9c-0.9,0.1-1.8,0.2-2.8,0.3c1.2-1.1,2.7-2,3.5-3.4c1-1.6,1.8-3.5,1.9-5.2c0.1-4.4,1.7-7.7,5.3-10.4
		c3.6-2.7,8.8-4.8,6.9-10.9c-10-3-11.9-13-17.9-19.7c-0.4,4.5-1.9,9-0.7,12.7c1.6,5.3,3.8,9.7-1.9,13.6c-0.1,0.1,0.2,0.6,0.3,0.9
		c1.9-0.7,3.8-1.4,5.6-2.1c-0.4,0.4-0.8,0.7-1.2,1.1c-9,6.5-4.1,16-4.6,24c0.6-0.1,1.8-0.4,3-0.7c-0.5,0.7-0.8,1.7-1.5,2.1
		c-4.7,2.8-9.4,5.6-14.2,8.1c-2,1-4.3,1.4-6.4,2c-0.6-2.4-1.6-4.9-1.6-7.3c-0.1-4.4,0.4-8.9,0.7-13.3c-7.5,0.6-8.4-5.6-11.1-9.2
		c-2.9-4-4.7-8.9-7.5-14.4c0.6,2.9,1.1,5.3,1.8,8.8c-2-1.7-3-2.7-4.2-3.6c-2.8-2-5.3-2.6-7.1,1.5c-1.5,3.4-3.4,6.5-5.3,10.2
		c5.7-1.1,10.4,0.2,13.4,5.3c2.5,4.3,6.6,7.7,6,13.9c-0.6,5.9-7,5.8-8.6,10.6c1.5,0.6,2.9,1.3,4.5,1.7c4.7,1.2,8.5,5.7,9.2,10.6
		c1.2,7.8,2.5,15.6,4.2,23.3c0.8,3.4,1.1,6.4,0.1,10c-1.3,4.7-1.1,9.8-1.6,15.6c-1.3,0.1-3.4,0.4-5.4,0.6c0.7,1,1.6,2.3,2.5,3.5
		c-3.1,5.3-8.1,9.9-4.1,17c1-0.6,1.9-1.2,3-1.9c0.3,1.1,0.5,1.8,0.7,2.6c-1.8,2.7-3.6,5.4-5.4,8c-5.3,4.2-9.6,9.1-11,16
		c-0.8,2.3-1.6,4.6-2.4,6.9c-2.9-0.6-5.4-1.6-8-1.6c-8.7,0.1-17.7-0.4-24,7.5c-1.1,1.4-2.2,3.3-3.7,3.9c-5.8,2-12,2.9-17.6,5.3
		c-7.3,3.2-14.3,7.2-22.3,8.9c-5.5,1.2-10.8,3.5-16.5,5.4c1-1.1,1.8-1.9,3-3.4c-9.6,4.3-18,21.3-14.6,27.4c3,0,5.8,0,8.5,0
		c-0.4-0.2-0.8-0.5-1.2-0.7c1.1-2,1.6-4.9,3.3-5.9c3-1.9,6.3-1.3,9.1,2c-3.4,3.8-6.7,7.5-10.1,11.2c3.2-1.8,6.3-3.9,8.7-6.5
		c4-4.2,8.9-4.4,13.4,0.1c-0.9,1-1.8,2-3,3.4c1.8,0.5,3.1,0.8,4.3,1.2c4.7,1.7,8.9,2.2,11.8-3.2c0.5-0.9,2.6-1,4-1.3
		c3.7-0.8,7.9-0.6,10.9-2.4c4.5-2.6,8.1-6.7,12.1-10c3.9,3.7,12.2-4,14.8,6.5c1.4-3.2,3.3-5.4,2.8-6.6c-1-2.4-3.3-4.3-5.1-6.5
		c1.9-1.2,3.9-2.4,5.8-3.5c2.7,4.4,5.3,8.7,7.6,12.4c-0.5-2.1-1.2-5.1-2.1-9.2c2.6,0.8,4.4,1.4,6.4,2c0.2-1.4,0.5-3.1,0.8-5
		c-6.7-2.7-13.2-5.2-16.5-6.5c7.9,0.9,18.9,1.8,29.8,3.5c4.4,0.7,10.3-1.6,12.7,5.5c6.6-10.7,16.2-12.3,25.1-11.8
		c3.3-2.9,5.8-5.1,8.7-7.7c0.4,2.8,0.8,4.8,1.1,6.7c-16.2,11.2-19.8,27.4-16,43.5c-1.2,0.2-2.4,0.4-3.6,0.7c8.1,0,16.4,2.1,24.8-2
		c-2.3-1.2-4-2.1-5.6-2.9c4.9-7.8,10.4-10.5,18.9-8.9c-0.4,3.9-0.7,7.8-1.2,12.7c3.6-1.6,6.7-2.2,8.5-4.1c1.8-1.8,3.4-5.1,3-7.2
		c-0.6-2.7-3-6.6-5.2-7c-5.6-1.2-11.4-0.7-17.2-0.9c-1.8,0-3.5,0-5.7,0c3.7-9,11.5-10.3,17.6-13.3c-0.2,2.4-1.2,6-0.3,6.6
		c4,2.4,8.3,4.4,12.8,5.6c1.1,0.3,3.2-2.9,4.8-4.6c-0.9,2.3-1.8,4.7-2.8,7c2.9-3.8,6.5-2.9,9.9-2.5c2.9,3.2,6,2.6,9.3-0.1
		c-2.8-0.5-5.5-0.9-8.3-1.4c-0.5-2-1-4-1.3-5.1c-2.2-0.1-3.5-0.2-4.9-0.3c-2.4-1.6-4.7-3.2-5.9-4c3.9-2.1,9-4.4,13.7-7.3
		c3.3-2,6.1-1.8,9.3,0c1.1,0.6,2.3,0.9,3.5,1.3c3.1-0.3,6.7,0.3,9.2-1c3.3-1.8,6-3.4,10.2-3.2c7.4,0.4,14.8-4.2,22.7,0.7
		c-1.7,0.5-3.1,0.9-4.7,1.3c4,2.3,4,2.3,10.8-1.4c0.1,0.1,0.4,0.1,0.4,0.2c0,0.1-0.2,0.3-0.2,0.4c-0.2,1-0.4,2.1-0.5,3.1
		c1.1-0.2,2.4,0,3.3-0.5c1.7-0.9,2.9-4.2,5.3-0.8c-1.8,2-3.6,4-4.5,5.1c6.1,8.7,12,17.2,18.3,26.2c-2-0.2-3.6-0.4-5.3-0.6
		c0.7,0.9,1.3,1.6,2.5,3c-3.9,1.6-7.4,3.8-11.1,4.2c-1.2,0.1-2.9-4.3-4.4-6.6c-0.4-0.6-0.9-1.1-1.4-1.7c0,1.8,0.5,3.3,1.1,4.8
		c1.7,3.7,2,5.9-3.1,7.6C399.4,674.7,394.6,674.6,393,679z M376.7,355.3c0.6-0.9,1.2-1.8,1.7-2.6c-1.9-0.9-3.4-1.9-5.1-2.4
		c-1-0.3-2.2,0.3-3.4,0.4c0.7,1,1.3,2.4,2.3,3c1.4,0.8,3.1,1,4.6,1.5c6.1,1.9,5.8,7.5,7.1,12.1c-1.5,0.7-2.7,1.3-4,1.9
		c1.9,0.3,4.5-0.2,4.7-1.1c0.5-3.2,1-6.8,0.1-9.7C383.5,355.2,380.1,354.4,376.7,355.3z M192.5,197.7c3.6,0,7.2,0,11.1,0
		c0.2-0.3,1-1.3,1.9-2.3c0.6,2.5,1.2,4.9,1.8,7.6c3.7,0.3,6.9,0.5,11.7,0.9c-2.1-2.3-3-3.3-4.2-4.7c1.4,0.1,2.2,0.2,3,0.2
		c-2.6-1.7-5.3-2.1-8-2.7c-1.5-0.3-2.9-0.8-4.3-1.2c-0.6-1-1.2-2.9-1.8-2.9c-5.6-0.1-11.2,0.2-16.8,0.3c-1,0-2.4-0.4-3,0.1
		c-2,1.5-3.8,3.4-5.7,5.2c7.3-12.6,20.8-14.9,32.8-19.5c3.8-1.5,9-0.2,13.2,1c5.7,1.6,11,4.2,16.8,6.6c0,0,0.9-0.5,2.7-1.7
		c-2.7,5.3,0.3,7.1,3.3,8.3c2.4,0.9,5.9,1.4,6.5-2.2c0.5-3,3-6.4-0.9-9.5c-1.1-0.9-0.5-4-0.6-6.1c0.5,0.5,1,0.9,1.5,1.4
		c3.3-1,7.3-1.1,9.8-3.1c5.5-4.4,10.3-9.7,15.7-15c-1.9-0.2-3-0.3-4.6-0.5c5.6-3.6,32.2-10.8,38.2-10.5c6.8,0.4,13.1,2.4,18.5,6.7
		c4.5,3.5,12.1,4.6,10.3,13.2c-0.4,1.9,0.3,4.3,1.4,6.1c2.6,4.5,2.3,11,8.9,12.8c3.7,1,3.7,1.4,1.4,5.4c-1-1.1-1.8-2.1-3.7-4.2
		c0,4.6,0,7.9,0,11.2c-0.5,0-0.9,0-1.4,0c-0.2-2.8-0.3-5.6-0.5-8.2c-3.3,3.2-1,6.9,0.5,10.1c0.6,1.3,3.9,1.9,5.8,1.6
		c1.3-0.2,2.4-2.3,3.3-3.2c2.4,0.2,5.1,0.4,7.8,0.7c2.1-0.5,4.1-1.5,6.2-1.5c3.5,0,4.7-1.8,4.9-4.8c0.9-2.5,1.2-5.5,2.8-7.5
		c2.5-3.2,2.1-4.9-1.5-6c-1.6-0.5-3.4-0.7-4.2-0.9c-1.2-4.7-2.3-9-3.5-13.6c-3.1,0.9-5.4,1.6-7.9,2.3c-0.5-1.8-0.9-3.3-1.6-6.1
		c-2.2,3.5-3.8,6.1-5.3,8.7c-7.2-3.9-6.8-10.8-6.8-19.4c-5.7,8.6-10,2.9-14.5,0.6c-0.3-0.1-0.5-0.5-0.8-0.6
		c-4.5-1.6-6.7-4.5-6.9-9.4c-0.1-2.4-1.9-4.7-3.2-7.7c-2.6,2-4.7,3.6-6.5,5c-4-3.9-7.9-7.7-11.8-11.5c-3.1,3.9-5.3,6.8-7,9
		c-2.9-1.6-4.7-2.7-7.4-4.2c-0.1-0.9-0.4-2.8-0.7-4.7c-1.1-6.9-2.1-7.5-8.5-5c-2.1,0.8-4.4,1.2-5.5,1.5c-2.5-2.4-4.4-4.3-6.4-6.1
		c-4.1-3.8-4.5-3.5-7.2,1.4c-1.5,2.8-1.9,6.9-6.4,7.7c-6,1.1-7.5,3-6.6,9c0.6,4.3-0.6,7.8-3.1,10.9c-0.6,0.8-1.9,1.3-3,1.5
		c-2.5,0.4-5.3,0.1-7.6,1c-5.8,2.3-8,2-12.2-2.6c-1.1-1.2-2.3-2.5-3.8-3.2c-0.8-0.4-3.1,0.2-3.1,0.6c-1,6.1-4.4,9.9-10.2,11.8
		c-0.2,0.1-0.3,0.8,0,0c6.8,3,13.3,5.8,19.7,8.6c0.7-1.6,1.2-2.8,1.8-4c0.4,0,0.9-0.1,1.3-0.1c0.5,1.9,1.2,3.8,1.5,5.7
		c0.1,0.4-1.3,1.5-2.1,1.6c-7.8,1-15.7,1.8-23.5,2.7c-1.2,0.2-3,0.6-3.5,1.5c-2.7,5.4-7.5,4.3-12,4.2c-0.7,2.4-1.3,4.6-2.1,7.3
		c-6.5-5.5-3.7,3.4-6.9,3.5c-0.6-1.1-1.3-2.2-2.5-4.2c-1.2,6.2-3,0.6-4.3,1.6c-3.1,2.7-6.4,5.1-9.6,7.7c-0.8,0.6-0.9,2.1-1.2,3.3
		c-0.8,3.5-2.3,6.3-6.6,5c-2-0.6-4.5-1.2-5.8-2.7c-2.5-2.7-4-1.7-5.5,0.6c-1,1.6-1.5,3.4-2.4,5.5c-0.8,0.2-2.1,0.3-3.4,0.7
		c-1.4,0.4-2.8,0.9-4.3,1.3c-7.8,1.8-8.7,3.8-4,10c1.7,2.3,1.5,3.8-1.2,4.2c-3.7,0.6-6,2.6-6.2,6c-0.1,2.2,1.4,4.5,2.2,6.9
		c-1.3,0.9-2.5,1.9-3.8,2.8c-0.4-0.6-0.6-1.2-1-1.4c-1.5-0.9-3-1.6-4.6-2.4c-0.5,1.4-0.6,3.1-1.5,4.3c-1.3,1.8-3,3.4-4.8,4.8
		c-0.9,0.7-2.3,0.8-3.8,1.3c1.3,0.5,1.9,0.7,2.4,0.9c-0.4,0.5-0.8,1-1.3,1.5c-2.7-1.6-5.4-3.3-7.9-4.8c-4,8.8-1.3,16.7,0.9,24.7
		c-9.3,1.2-11.2,3.8-12.5,10.4c-5.5,0-11.2,0-16.8,0c-0.1,1.8-0.2,3.1-0.4,4.7c15-1.1,26.1,4.3,32.8,18.1c0.2-1.3,0.3-2.7,0.5-4
		c3.2,7.2,4.7,15.5,14.5,16.6c1-1.5,1.8-2.8,3.2-4.8c1.1,11.9,10,5.4,15.5,8.8c-3.1-5.3-2.5-7.2-0.2-9.9c2.4-2.7,5-6,5.4-9.4
		c0.9-6,0.1-12.3,0.3-18.4c0.1-5.4,0.5-10.8,0.8-16.2c0.3,0,0.6,0,0.9,0c0,14.2,0,28.3,0,42.7c-0.9-0.8-1.6-1.4-1.6-1.5
		c-1.2,1.8-2.4,3.5-3.4,4.9c0.2,0,1.6,0.1,1.7,0.4c0.9,5.2,1.9,10.5,2.5,15.8c0.4,4.1-4.4,8.3,0,12.6c0.4,0.4,0,2-0.4,2.8
		c-2,3.1,0.2,4.8,2.1,6.7c1.7,1.7,3.3,3.6,5.1,5.4c-0.1,0.3-0.2,0.6-0.4,0.8c-0.1,0.1-0.4,0.2-0.4,0.1c-3-2.3-5.9-4.6-8.8-7
		c-0.5-0.5-0.6-1.5-0.9-2.2c-1.8-5.6-3.6-11.1-5.5-17.2c-15.5-1.8-31.1,0.4-46.5,5.7c-1,0.3-1.7,1.7-3.4,3.6
		c3.1-0.6,4.6-0.9,5.8-1.1c-1.1,2.5-2,4.7-3.1,7.3c-3.2-3.5-6.1-7.5-11.2-3c0.8,1.2,1.6,2.4,2,3.1c-0.6,2.2-2.1,4.6-1.5,5.6
		c2,2.8,0.4,4.4-1,6.4c-1.5,2.2-2.9,4.4-4.2,6.7c-1.4,2.5-1.3,4.7,2.3,4.8c3.5,0,7-0.4,10.7-0.7c0.3,0.8,0.7,1.7,1.1,2.7
		c0.9,2.7,8,4.9,10.2,3.2c6.3-5,10.2-4.5,14.8,2.7c3.1-2.3,6.2-4.6,9-6.7c2.2,1.5,4.1,2.9,6.2,4.4c2.4-4,5.1-6.4,8.9-3.1
		c0.9,2.1,1.9,4.8,3.8,5.8c4.4,2.4,9.2,3.9,14.9,6.2c-3.8,3.4-7.8,5.9-10.2,9.5c-2.3,3.5-3.1,8.1-3.8,12.3c-0.2,1,2.4,2.6,3.1,3.3
		c2.1-1.2,3.6-2.3,5.3-3.1c4-1.9,8-4.3,12.3-5.1c2.9-0.6,5.3,2.1,6.3,5.2c1,3,2.1,6,3.2,8.9c0.5,0,1-0.1,1.5-0.1
		c1.4-3.4,2.9-6.8,4.7-11c2.6,3.3,4.5,6.9,7.4,8.9c2.9,2,6.9,2.4,10.3,3.6c-0.1,0.5-0.2,0.9-0.3,1.4c-1.2,0.3-2.4,0.7-3.7,0.8
		c-9.4,1.2-12.6,5.2-10,14.2c3.4,11.8,5.5,15.8,19.6,14.8c2.7-0.2,5.4,0,8.3,0c2.4-5.1,7.6-6.8,10.4-2.6c4.6,6.7,12.8,7.2,17.5,12.4
		c1.9-2.9,2.9-6.2,5-7.1c5-2.2,10.5-3.3,16.1-4.8c-0.3,1-0.6,1.9-0.9,2.9l0.1-0.1c-1.2,0.5-2.5,1-3.5,1.4c0.5,1.7,1.1,3.3,1.4,4.9
		c0.3,1.7,0.3,3.4,0.4,5.3c6.4-2.6,10.1-1.4,15.2,4.1c4,4.2,2.9,7.6-0.6,11.3c1.6-1.2,3.1-2.3,4.7-3.5c0.3,0.2,0.6,0.4,0.9,0.6
		c-2.3,5.5-4.5,11.1-6.8,16.6c0.3,0.2,0.6,0.5,0.9,0.7c3.4-4.2,6.7-8.3,8.8-10.9c0-5.2,0-9.1,0-12.9c-0.1-3.9-0.1-7.8-0.5-11.7
		c-0.1-1-1.3-1.8-1.8-2.4c0,5.7,0,11.2,0,16.7c-0.5,0-1,0.1-1.5,0.1c-0.3-1.4-1.2-3.3-0.6-4.2c2.4-3.9,0.5-5-2.9-6.4
		c-4.9-1.9-5.3-6.9-1.2-10.2c1.1-0.9,2.2-1.8,2.8-2.3c-2.1-6.5-4-12.3-5.8-18c-5.9,1.2-12.3,3.9-18.5,3.5c-6.3-0.4-12.4-3.7-18.4-6
		c-6.3-2.5-10.6-6.5-12.5-13.6c-1.6-6-5-11.4-7.6-17.1c0.2,0,0.5,0,0.7,0c-1.9-1.7-3.7-3.5-6-5.6c-0.6,0.2-2.3,1-4.3,1.8
		c0.4-2,0.7-3.4,1-5.1c-1.4-0.3-2.6-0.5-5.2-1c3.1-3.4,5.4-5.9,7.8-8.5l-0.1-0.1c2.3,2.3,4.4,4.7,6.8,6.8c4,3.5,3.8,5.5-1.1,8
		c8.3,5.1,6.5,5.5,7.2,14c0.1,0.8,0,1.8,0.3,2.5c1.9,3.3,4.5,6.4,5.6,9.9c1.1,3.6,3.3,4.6,6.5,5.6c4.9,1.5,10.2,0.8,14.8,4.2
		c2.1,1.6,6.2,0.5,9.3,0.7c0-0.6,0-1.2,0-1.8c-3,0-5.9,0-7.8,0c6.2-5.9,12.8-12.3,20.4-19.6c0.7,3.5,1.1,5.7,1.5,7.8
		c0.8-1.7,1.6-3.4,2.4-5.1c0.5,0.1,0.9,0.2,1.4,0.3c0,2.7,0,5.5,0,8.3c1.5,0.7,3.1,1.5,3.5,1.7c2-2.1,3.5-3.6,5-5.1
		c0.7-1.2,1.3-2.5,2-3.7c0.4,0.2,0.7,0.3,1.1,0.5c-1.4,4.8-2.8,9.5-4.2,14.3c4.3-6.7,6.9-13.7,2-21.1c0.7-2.2,1.3-4.4,2.1-6.5
		c4.9,2,6-3.2,9.2-4c-1.5-0.6-2.6-1.1-3.6-1.6c0.5-1.2,1-2.4,1.5-3.7c4.1-3,6.9-8.8,13.3-6.3c0,3.9,0,7.6,0,11.1
		c2.3,3.7,4.6,7.6,7.3,12.1c1.6-6.9,1.5-13.4,7.4-17.9c1.7,2.3,3.2,4.3,5,6.8c0.3-2.8,0.2-5.1,0.8-7c0.5-1.3,2.1-2.1,3.2-3.1
		c5,6,11.1,11.3,13.8,19.1c0.8-0.2,2.2-1.2,3.1-0.8c5.2,2.1,7.7-2.1,10.9-4.4c0.6-0.5,0.9-1.4,1.3-2.2c-1-0.1-1.9-0.2-2.9-0.3
		c-0.9-0.1-1.8-0.2-2.6-0.3c-0.7,0.8-2,2.2-3.6,4c-0.9-2.9-1.5-5.1-2.2-7.2c-0.4,0.1-0.9,0.2-1.3,0.3c0.6,2.6,1.1,5.2,1.7,7.8
		c-0.5,0.3-1,0.6-1.5,0.9c-3.1-4-6.2-8-9.3-11.9c0.1-3.5,0.3-6.9,0.2-10.4c-0.2-6.5,0.8-12.6,6.2-17.7c1.4,3,2.6,5.8,3.8,8.5
		c1.3-6.6,0.9-13.4,6.6-18.5c1.1,1.9,2.1,3.6,3.3,5.6c0.8-1.7,1.1-3.3,2-4.3c0.9-0.9,2.4-1.3,3.7-1.9c-0.1-0.3-0.2-0.6-0.3-0.9
		c-1,0.2-2,0.3-3.5,0.5c0.8-1.8,1.4-3.3,1.5-3.5c2.9-0.2,5-0.2,7.1-0.6c7.4-1.5,10.9,0,15.1,6.1c0.8,1.1,2.4,1.6,3.6,2.3
		c1.1-1,2.1-2.1,3.2-3.1c9.8-6.4,15.2-16,20.2-26c-0.4-0.5-0.8-1.1-1.2-1.6c-2.5,1.3-5,2.5-6.6,3.3c-2.6-0.9-4.5-1.7-7.2-2.6
		c-0.1-0.2-0.6-1.6-1.2-2.9c-2.1,0.7-4.1,1.3-5.9,1.9c-1.4-2.7-0.7-7.5-5.6-4.3c-0.6-1.4-1.1-2.8-1.1-2.8c-3.3-1.3-5.6-2-7.5-3.3
		c-0.4-0.3,0.8-3,1.6-5.4c1.9,2.6,3.1,4.1,4.2,5.6c1.7-1.3,3-2.2,4.2-3.1c1.6,1.8,3,3.4,4.4,5.1c1.8-1.4,3.1-2.5,4.8-3.9
		c1.1,1.7,2,3.1,2.9,4.5c1.9-1.1,3.5-2,5.4-3.1c1.4,6.4,5.2,4.6,9.7,2.2c-1,2.7-1.7,4.4-2.4,6.1c0.4,0.4,0.8,0.8,1.2,1.3
		c2.6-2.1,5.4-4.1,7.8-6.5c3.1-3,5.8-6.4,8.7-9.7c0.2,0.2,0.3,0.4,0.5,0.6c2.2-4.8,4.5-9.7,7.3-15.6c-4.1,0-6.5,0.5-8.6-0.1
		c-3.5-1.1-9.6-2.9-9.7-4.6c-0.2-4.2-3.4-5.3-5.1-7.7c-0.8-1.2-3.5-1.8-5.2-1.6c-2.3,0.3-4.5,1.6-6.7,2.5c0.5,1,1,2,1.7,3.4
		c-4.1-2-8.4-3-10.9-5.8c-2.4-2.6-3-7-4.5-10.9c-1.1-0.4-2.7-1.1-4.4-1.8c-3.4,6.6-3.8,6-4.9,6.8c-3.2,2.4-5.9,1.9-8.8,0
		c1.6-2.7,3.2-5.1,5-8c-1.6-0.1-2.5-0.2-4.6-0.3c2.2-2.1,3.7-3.5,6-5.7c-7.4-0.6-3.3-5.9-4.8-9.1c-0.4,1.1-0.7,2.1-1,3.1
		c-0.4,0-0.9,0-1.3,0c-0.2-3.1-0.4-6.2-0.6-9.3c-4.8,5.8-4.8,6.8-1.2,13.6c-4.6,2.9-7,6.7-5.4,12.9c-3-0.5-5.4-0.9-8-1.3
		c0.7,1.2,1.1,2.1,1.8,3.4c-2.4-0.4-4.2-0.7-7-1.2c2,1.1,3.2,1.7,4.3,2.3c-0.1,0.5-0.2,0.9-0.2,1.4c-4.3-0.3-8.6-0.7-12.4-1
		c0.4-2.9,0.6-4.7,0.8-6.4c-0.5-0.2-0.9-0.3-1.4-0.5c2.5-2.2,5.1-4.5,8.3-7.2c-1.9-0.5-2.7-0.8-3.8-1.1c3.7-3.3-0.2-3.5-2.6-4.7
		c1.8-1.4,3.2-2.5,4.9-3.8c-3.4-1.9-6.7-3.9-10-5.8c-0.3,0.4-0.5,0.8-0.8,1.2c0.9,0.8,1.8,1.5,2.6,2.3c-2.8,0.4-5.3,0.8-8.9,1.4
		c2.5,1.5,3.8,2.3,5.8,3.4c-3.4-0.2-5.9-0.4-9.6-0.7c3.9,1.5,6.5,2.6,9.2,3.6c-4.2,2.6-8.4,3.8-12.4,5.3c-1.6,0.6-3.8,1.6-4.3,2.9
		c-0.5,1.4,0.7,3.4,1.2,5.5c-4.2-1.6-5.4,1.6-7,4.7c-1.3,2.6-3.5,4.9-5.5,7.7c0.2,0.4,0.9,2.1,2.1,4.7c-4.7-0.7-8.6-1.3-13.7-2.1
		c3.2,2.5,5.6,4.3,8.7,6.8c-4.4,1.4-8.2,2.8-12.1,3.7c-1,0.2-2.6-0.9-3.5-1.8c-1.5-1.6-3.1-3.3-3.9-5.3c-1-2.5-1.9-5.4-1.4-7.9
		c0.2-1.3,3.4-2,5.3-3c0.8-0.4,1.8-0.5,2.4-1.1c2.1-2.3,4-4.7,5.9-7c-3-2-6.9-0.1-9.9,2.9c-3.6,3.7-8,6.9-12.6,9.1
		c-4.5,2.1-11-0.6-14.4,5.5c0.8-1.9,1.7-3.8,3.2-7.2c-3.1,1.7-5.1,2.8-5.8,3.1c0.2,3.1-0.1,5.1,0.5,6.7c1.5,3.7,1.6,3.4-1.9,5.5
		c-1.9,1.1-5.2,2.3-3,5.9c-3,2.9-6,5.8-9,8.7c0.3,0.3,0.7,0.7,1,1c4.5-3.5,9.1-6.9,13.5-10.3c-1.7,0.2-3.6,0.4-5.5,0.6
		c5.2-5.1,11.2-1.3,16.2-1.7c1.3-1.8,2.3-3.4,3.4-4.9c2.5-3.3,5.1-6.5,7.9-10.1c0,1.4,0.6,3.5-0.1,4.9c-1.5,3.1-3.9,5.8-5.6,8.8
		c-1.1,2-1.5,4.3-2.4,6.9c-0.8,0-2.4,0-5.3,0c3.2,2.5,5.5,4.4,9,7.2c-7.6,1.4-14,2.5-20.7,3.8c2.4,1.7,4.7,3.4,7.1,5
		c0,0.5,0,1,0.1,1.6c-5.9,1.5-11.9,3.1-18,4.7c-1.2,1.4-3.1,3.3-4.9,5.3c-0.5-0.4-1-0.7-1.4-1.1c0.6-2.5,1.2-5,1.9-7.8
		c-1.3-1-2.8-2-4.1-3c2.1-2.7,3.8-4.7,6.2-7.8c-4.1,1.4-6.6,2.3-8.2,2.8c-2.2-3-4-5.6-6.6-9.1c-0.9,2.9-1.3,4.2-1.7,5.5
		c-0.2,0-0.5-0.1-0.7-0.1c-0.2-2.4-0.3-4.8-0.5-7.1c-0.3,0-0.6,0.1-0.9,0.1c0,3.1,0,6.1,0,9.2c-0.3,0.2-0.7,0.3-1,0.5
		c-0.9-1.2-1.9-2.3-2.7-3.4c-0.2,1.2-0.3,2.6-0.5,3.8c-5.5-0.6-4.9-4.3-5.1-8.2c-0.1-2.6-1.7-5.2-2.6-7.8c-0.5-5.9-1-11.9-1.5-17.8
		c-1.9,0.5-2.9,0.8-3,0.8c0.7,1.3,1.7,2.7,2,4.2c0.8,4.1,0.4,8.2-2,11.8c-2.7,1.1-5.3,2.2-6.6,2.7c-1.1,3.9-2,6.9-2.9,9.9
		c-0.3-0.4-0.6-0.7-0.8-1.1c-2.3,1-5.5,1.3-6.5,3c-1.5,2.4-1.3,5.8-1.8,8.7c0.5,0,0.9,0.1,1.4,0.1c0-1.5,0-3,0-4.1
		c5.5-1.5,9,1.2,11.7,5.1c0-2.7,0-5.3,0-9c2.9,4.1,9.7,1.9,8.8,8.3c0.4-1.3,0.7-2.6,1.2-4.3c2.3,1,4.2,1.9,7,3.2
		c-1.6,1.9-2.7,3.7-4.3,4.9c-6.1,4.3-6.6,7.6-4.4,14.7c1.6,5.4,1.5,11.2,2.1,16.9c0.1,0.5,0.2,1.1,0.3,1.6c2.1,1.9,2.3,3.5,0,5.6
		c-2.6,2.3-5,4.8-6.9,7.7c-2,3-3.2,6.5-5.1,9.5c-1.6,2.4-3.3,5.5-5.7,6.4c-3.3,1.2-8.2,2.1-10.8,0.6c-5.6-3.4-11.5-7.6-12.4-15.1
		c0.6,0.7,1.3,1.4,2.3,2.5c1.1-7.1,6.7-8.4,11.8-9c5.1-0.6,10.4,0.2,14.1,5.1c-1.4-2.5-3-5.1-5.3-6c-5-1.9-10.3-3.1-14.7-4.3
		c-0.8,1.5-1.3,3-2.2,4.2c-1.8,2.6-3.9,5.1-5.8,7.6c-0.8-1-1.5-2-2.5-3.3c-0.6,1.8-1.6,3.4-1.3,4.6c0.9,3.4,2.3,6.7,3.5,10.1
		c0.6,3.8,1.1,7.8,5.4,9.4c1.1,3.1,2.2,6.3,3.3,9.5c-2.9,1.5-3.4,1.6-4.2-2c-1.5-6.8-5.5-9.5-12.1-9.3c-0.2,0-0.5-0.3,0.1,0.1
		c-0.6-3.9-1.2-7-1.7-10.3c1.4-0.4,3.6-1.1,6.2-1.9c-3.6-7.4-7-14.3-10.4-21.3c0.2-0.9,0.5-1.8,0.8-2.7c0.4-1.2,0.8-2.3,1.2-3.5
		c0.5,0.3,1.1,0.5,1.6,0.8c-3.4-13.8,8.3-8.2,15.1-11.2c-6.9-2.9-11.9-1.7-17.7,2.2c-0.3-5.7-0.7-10.7-0.8-15.7
		c0-1.6,0.3-4.3,1.2-4.7c1.3-0.6,3.4,0.3,5,0.9c1.2,0.5,2.2,2.1,3.3,2.1c2.3,0,5.6,0,6.6-1.4c1.6-2,3-5.4-0.4-7.8
		c-2.1-0.3-4.1-0.6-6.2-0.9c1-3.4,2-6.8,3-10.3c0.5,0,1.1,0,1.6,0c1.5,3.8,2.9,7.5,4.8,12.2c1.3-2,2.2-3,2.5-4.2
		c0.3-1.5,0.1-3.1,0.1-4.6c1.6,0.6,3.1,1.2,4.9,2c1-0.9,2.1-2.3,3.5-3c1.5-0.8,3.2-0.9,4.9-1.3c0-0.5,0-1-0.1-1.5
		c-2-0.2-4-0.3-6-0.5c-3.8-0.2-7.8,0.5-11.2-0.7c-7.5-2.7-9.1-2.7-13.7,2.9c1-4.2,4.5-6.7,8.8-6.7c4.1-0.1,8.1-0.8,12.2-1.2
		c0-0.3-0.1-0.6-0.1-0.8c-1.5-0.6-3-1.3-4.5-1.9c0.1-0.4,0.2-0.7,0.3-1.1c3.1,0.6,6.2,1.3,9.4,1.9c0.1-0.4,0.2-0.8,0.2-1.2
		c-2.7-0.8-5.3-1.5-8.5-2.4c0.4-1.3,0.9-2.8,1.4-4.3c-1.3,0.9-2.5,1.6-4,2.6c0.4-4.8,0.8-9,1.1-13.2c3.4-4.9,6.8-9.9,10.2-14.8
		c1.4-2.2,2.9-4.4,4.7-7.2c0,7,0,13.1,0,17.5c0.8-5.1,1.9-11.6,2.9-18.2c0.1-0.8-0.2-1.6-0.4-2.4c-3.8-10.3-1.1-20.8-1-31.3
		c0-0.6,0.2-1.3,0.3-1.9c-0.2,0-0.4-0.1-0.7-0.1c-1.2,2.9-2.5,5.9-4.1,9.7c-1.7-6.1-0.6-10.7,2.7-14.5c1.9-2.1,3.7-3.9,2.7-7
		C188.8,199.2,190.7,198.5,192.5,197.7z M339.2,223.9c-0.9-1.5-1.9-2.9-2.8-4.3c-1.4,1-2.5,1.8-3.8,2.7c-0.1-1.3-0.2-2-0.4-3.5
		c-1.5,2-2.5,3.3-3.9,5c4.3,0,7.6,0,11,0c-1.9,0.7-3.7,1.4-5.8,2.2c1.5,1.3,3.3,2.8,5.4,4.5c0.4-0.3,1.2-1,2.1-1.5
		c0.9-0.5,1.9-0.8,2.8-1.2c2.2-1,4.4-2.6,6.6-2.8c3.2-0.2,4.4-1,4-5C349.9,224,343.7,220.6,339.2,223.9z M259.4,224.6
		c-1.3,1.1-3.7,2-3.8,3.2c-0.4,5.1-0.2,10.3-0.2,15.7c0.4-3.2,0.8-6.3,1.3-9.7c1.7,1.4,3,2.5,4.7,3.9c-1-4,2.5-11.5,5.8-13.8
		c0.6-0.4,1.3-1.1,1.4-1.7c0.3-3.8,0.4-7.7,0.6-12.6c-1.2,2.9-3,5-2.8,7c0.3,4.7-2.2,6.6-5.8,8.1c1-3.2,1.8-6.5,3.2-9.5
		c3-6.7,6.3-13.2,9.5-20.1c0.8,1.3,1.3,2.1,2.3,3.6c0-6.5,0-11.9,0-17.3c-0.6,0-1.1-0.1-1.7-0.1c-0.4,3.4-0.7,6.8-1.1,10.2
		c-0.2,1.2-0.4,2.9-1.2,3.6c-6.8,5.3-10.1,12.2-10.5,20.8C261,218.7,260,221.6,259.4,224.6z M313.1,218.7c-1.4-0.5-1.9-0.6-1.9-0.7
		c-1.2-8.7-8.3-11.4-14.9-14.1c-7.2-2.9-15,3.1-14.5,10.8c0.1,1.2-0.2,2.4-0.5,4.7c-6.3-5.1-3-12.3-6.4-17.4
		c-0.3,2.3,0.7,5.2-0.3,6.9c-4.1,6.7-3,13.2-0.7,20.1c0.5,1.4,0.2,4.2-0.7,4.7c-5.7,3.7-3.5,8.9-3.3,13.8c-0.3-4-1.1-8.2,2.9-10
		c2,0.9,3.5,1.5,5.1,2.1c0.6,2.4,1.2,5.4,2,8.6c1.3-0.9,2-1.3,2.7-1.8c0.3,0.2,0.6,0.5,0.9,0.7c-1.1,1.9-2.3,3.8-3.7,6.3
		c1.8-1.6,3-2.7,4.7-4.2c1.9,2.7,3.6,5.1,5.3,7.5c0.4-0.1,0.8-0.3,1.2-0.4c-2.6-7-7.1-13.9-3.6-22.7c2.1,4.1,3.7,7.3,5.3,10.5
		c0.4-0.2,0.8-0.4,1.2-0.6c-0.6-2.2-1.2-4.5-1.7-6c6.7-1.7,13.6-2.2,21.5,0c-1.4-1.6-1.9-2.2-2.7-3.1c2.9-0.8,5.8-2.5,8.1-2
		c4.1,0.9,4.7-0.6,4.5-3.5c-2.7-0.8-5.2-1.6-8.2-2.5c4.4-4.5,5.9-9.2,5-13.9c-2.8-0.5-5-0.9-7.1-1.2
		C313.1,213.7,313.1,215.9,313.1,218.7z M395.3,251.9c7.4-0.6-0.3,7.2,4.6,7.7c0.2,2.2-5,1.8-1.9,4.9c1,1,2,2.2,3.2,2.7
		c6.7,3,13.5,5.8,20.2,8.6c-1.1-2.5-2.6-5.5-4-8.5c2.7-1.5,3.9-3.3,1.4-6.3c-1.3-1.6-3-3.8-2.7-5.5c0.5-3.3,0.5-5.8-4.7-7.3
		c2.9-0.5,4.1-0.7,6-0.9c-1.8-1.6-2.9-2.9-4.3-4c-4-3.1-7.8-6.9-12.3-9c-4.6-2.1-9.9-2.8-15-3.4c-7-0.8-11.2,3.3-11.4,10
		c4.2-2.7,8.6-5.6,13-8.5c0.2,0.3,0.4,0.6,0.5,0.9c-3.9,5.2-7.8,10.4-11.7,15.5c0.4,0.3,0.7,0.5,1.1,0.8c4.8-8.3,9.7-11.8,16.7-11.2
		c-2.8,2.5-5,4.5-7.7,7c3.5-1.4,6.3-2.5,9.1-3.6c0.1,0.2,0.3,0.5,0.4,0.7c-1.1,1.1-2.2,2.3-3.3,3.5c1.8,0.6,3.4,1.2,5.4,1.8
		C397.1,249.6,396.3,250.6,395.3,251.9z M408.3,211.8c2-0.8,4-1.1,5.6-2.2c4.5-3,12.5,0.9,13.7-8.4c1.6,2.2,2.5,3.5,3.5,5
		c2.3-0.7,4.5-1.4,7.6-2.4c-2.9-0.7-4.6-1.2-5.4-1.4c-0.5-6.7-0.9-12.6-1.3-19.3c-3.4,4.1-6.7,8-9.3,11.2c-2.7-0.4-5-1.4-6.8-0.8
		c-2.3,0.8-4.3,2.9-6.2,4.6c-0.6,0.5-0.3,1.8-0.7,2.7c-0.5,1.2-1.3,2.2-2,3.3c-0.5-0.2-1-0.4-1.4-0.6c0.4-1.9,0.8-3.7,1.3-6.3
		c-3.6,1-7,1.9-10.3,2.8c-4.1-4.7-4.8-4.8-7.4,0.4c1.2-0.1,2.3-0.2,3.4-0.2c-0.5,0.8-0.9,1.5-1.2,2.1c3.2,0.2,6.4,0.5,10.7,0.8
		c-2.3,2-3.8,3.3-6.3,5.5C400.5,209.9,404.6,210.9,408.3,211.8z M395,348.3c-0.3-0.3-0.7-0.5-1-0.8c-2,3-4.9,5.8-5.7,9
		c-0.8,3.5,0.6,7.5,1.1,12.3c0.3-2.1,0.5-3.1,0.7-4.2c1.6,0.5,3.1,0.9,4.8,1.5C395,360,395,354.2,395,348.3z M414.2,349
		c-3.1-3.2,4.7-6.3,0.1-9.1c-1.6,1.9-3,3.7-4.5,5.5c-0.4-0.3-0.8-0.6-1.2-0.9c0.3-1.8,0.6-3.5,0.9-5.3c-0.3-0.2-0.6-0.3-1-0.5
		c-1.6,2-3.2,4-5,6.4c-0.5-1.6-0.7-2.3-1.2-4.1c-1.6,3-2.7,5.2-4.3,8c4.4-1.2,7.1-1.9,9.8-2.6c0.1,0.3,0.2,0.5,0.3,0.8
		c-0.8,0.6-1.6,1.2-2.5,1.9c0.1,0.3,0.2,0.7,0.3,1C408.3,349.8,410.7,349.5,414.2,349z M234.8,273.8c1.8-4.2,3.4-7.9,5-11.7
		c-3.7-2-6.9-1.1-8.4,1.7c-1.3,2.4-1,5.8-1.4,8.9C231.2,273,233.1,273.5,234.8,273.8z M309.3,187c-0.1-0.6-0.2-1.3-0.3-1.9
		c-3,0-6,0-10.5,0c3.7-2.5,6.2-4.3,8.7-6c-0.1-0.2-0.1-0.4-0.2-0.6c-4.3,0.9-8.7,1.9-13.2,2.8c1.7,2.5,2.9,4.3,4.3,6.5
		C301.8,187.5,305.5,187.2,309.3,187z M99.8,619.9c-2,6.8-5.1,12.5-4.3,19.7C100.7,636.1,103.4,624.2,99.8,619.9z M359.7,363.2
		c0.3,5.5,0.5,9.6,0.6,13.7c0.2,0,0.4,0,0.7,0c0-6.2,0-12.5,0-19.1c-7.2,3.5-9.8,7.3-7,12C355.6,368,357.3,366,359.7,363.2z
		 M277.8,183c3.7,1.1,6.1,1.8,9.6,2.8c-3.5,1.2-5.7,2-8.6,3c2.1,0.6,3.1,1.1,4.1,1.1c1.9-0.1,4.2-0.2,5.7-1.1c1.1-0.7,2-3.3,1.5-4.3
		c-0.7-1.2-2.8-2.2-4.4-2.3C283.4,182,281.1,182.6,277.8,183z M90.6,290.5c-3-6.3-9.2-8.3-17.7-6.5
		C79.1,286.3,84.8,288.4,90.6,290.5z M423.1,312.6c-1.1,3.5-4.1,3.8-8,1.5c-0.1,0.5-0.2,1-0.3,1.5c4.1,2.5,8.3,4.9,12.4,7.4
		c0.2-0.3,0.3-0.6,0.5-0.9C426,318.8,424.5,315.6,423.1,312.6z M274.3,171.1c1.2,0.9,2.2,1.5,2.3,1.7c3.5-4,6.7-7.6,9.6-10.9
		C282.6,160.6,278.3,163.6,274.3,171.1z M174.5,330.9c4.4,1.4,6.3-2.1,9.1-3.1c3.1-1.1,6.6-1.2,10.4-1.9
		C186.4,322.7,180.5,324.5,174.5,330.9z M337.9,443.8c-2.6-6.9-5.1-13.6-7.7-20.3C330,431.4,330.9,438.9,337.9,443.8z M247,226.9
		c2.8-3.5,1.1-16.5-2.8-22.4C245,211.3,246,219.4,247,226.9z M244.6,545.1c-0.6,0.9-1.5,2.3-1.9,3c2.3,1.1,4.6,2.1,7.2,3.3
		c-2.9-5.9-5.7-11.7-8.5-17.4c-0.4,0.1-0.7,0.3-1.1,0.4C241.7,537.8,243,541.2,244.6,545.1z M227.6,270.7c-2.1-2.5-3.6-4.4-4.3-5.2
		c-3.3,2.5-6.3,4.8-9.6,7.3c3.1-1.1,6.1-2.1,9.8-3.3c-0.7,1.5-1.1,2.4-1.9,4.2C223.9,272.5,225.6,271.6,227.6,270.7z M253.7,208
		c2.7-5.1,5-9.5,7.4-14c-0.4-0.2-0.7-0.4-1.1-0.6C257.7,198,250.5,200.2,253.7,208z M239.7,244.7c2.6-8.8,4.3-17.6-0.5-26.3
		C243.1,227.2,240.7,236,239.7,244.7z M359.6,434.1c0.7-0.4,1.3-0.8,2-1.2c-3-4.8-6.1-9.6-9.1-14.4c-0.4,0.2-0.9,0.5-1.3,0.7
		C354,424.2,356.8,429.2,359.6,434.1z M417.7,349.6c1.3-0.4,3.8-0.4,4.2-1.3c1.4-3.5-0.2-6.5-2-8.6
		C419.3,342.8,418.6,345.7,417.7,349.6z M370.6,417.2c-0.4,0.2-0.8,0.4-1.2,0.7c1.1,3.2,2.2,6.5,3.5,10.1c1.6-1,2.6-1.7,3.9-2.5
		C374.6,422.5,372.6,419.8,370.6,417.2z M186.8,337.2c0.9-0.6,1.8-1.3,2.7-1.9c-0.6-1.6-1.2-4.6-1.9-4.6c-2.6-0.1-5.2,0.8-7.9,1.3
		c0.2,0.6,0.4,1.2,0.5,1.9c1.2-0.5,2.5-1,3.9-1.5C185,333.9,185.9,335.5,186.8,337.2z M264.6,195.5c6.8-3.4,6-10.8,7.1-16.6
		C269.4,184.1,266.9,190.1,264.6,195.5z M368.2,401.3c-3.8-2.8-6.5-4.8-9.3-6.8C360.8,399.8,363.2,401.6,368.2,401.3z M361.4,648.3
		c-2.9-4.5-5-4.5-9.5,0C354.7,648.3,357.9,648.3,361.4,648.3z M385.7,370.3c-2.3,0.5-3.9,0.9-6.6,1.5c2.7,2.6,4.6,4.4,7,6.7
		C385.9,375.5,385.8,373.1,385.7,370.3z M325.4,226.9c3.6,1.8,6.9,3.4,10.7,5.2C330.7,225,328.4,223.9,325.4,226.9z M212.3,228.7
		c4.5-3,8.4-7.2,14.7-5.1C221.5,220.4,215.8,222.4,212.3,228.7z M231.2,653.9c-0.6-0.2-1.1-0.5-1.7-0.7c-1.6,3.4-3.3,6.7-4.9,10.1
		c0.6,0.3,1.2,0.6,1.9,0.9C228,660.7,229.6,657.3,231.2,653.9z M299.4,257.2c-0.3-0.4-0.6-0.8-0.9-1.2c-2.6,1.6-5.3,3.3-8.7,5.4
		c4.6-0.3,7.9-0.6,11.3-0.8c0-0.4-0.1-0.7-0.1-1.1c-1.3,0.1-2.7,0.3-4.5,0.4C297.6,258.8,298.5,258,299.4,257.2z M329.4,412.4
		c0.2,2.9,0.4,5.7,0.6,9.4C333.9,417.6,333.4,414.6,329.4,412.4z M242.6,210.3c0.4-0.1,0.8-0.2,1.2-0.3c-2-4.9-4.1-9.9-6.1-14.8
		c-0.6,0.2-1.1,0.5-1.7,0.7C238.1,200.7,240.3,205.5,242.6,210.3z M200.6,230c-3.3-0.4-5.2-0.7-7.2-0.9c-0.3,0.5-0.7,0.9-1,1.4
		c1.3,1,2.6,2.5,4,2.7C197.3,233.4,198.5,231.7,200.6,230z M432.8,308.6c1.1,0.2,2.7,0.4,4.8,0.8c0-5.2-3.5-3.9-5.4-4
		C432.4,306.6,432.6,307.5,432.8,308.6z M159.6,334.7c-0.1,0.5-0.3,0.9-0.4,1.4c0.7,1,1.2,2.2,2.1,3c3.7,2.9,4.5,0.2,3.7-2.5
		C164.8,335.5,161.5,335.3,159.6,334.7z"/>
	<path d="M391.7,604.7c1.1-1.1,2.1-2.3,3.2-3.5c0.8-0.1,2.1,0.1,3.3-0.3c4-1.5,7.9-3.3,11.9-4.7c5.1-1.9,13.4,2.5,14.7,7.9
		c0.3,1.2-0.5,2.8-1.2,4c-1,1.8-2.4,3.4-3.8,5.2c9.3,2.5,20.3,0.9,23.5,13c2.3-1.7,4.2-3.2,6.6-5c0.6,5.9,3.3,8.4,8.3,8.6
		c3.9,0.2,7.9,0.5,12.4,0.7c1.5,1.6,3.7,4.2,6.2,7c-0.4,1.9-1,4.5-1.7,7.9c-1.3-2.8-2.4-5.1-3.3-6.9c-4.7-1.4-9-2.7-14.3-4.3
		c0.6,3.2,0.9,4.7,1.2,6.2c-0.3,0.3-0.6,0.6-1,1c-1.5-1.4-3.1-2.9-4.2-3.9c-4.1,2.2-8,4.5-12.1,6.2c-1.5,0.6-3.7-0.3-5.6-0.5
		c-3.4-0.5-6.8-1.4-10.1-1.3c-1.4,0-2.8,2.2-4.2,3.3c1.3,0.8,2.6,1.7,4,2.2c1.2,0.5,2.5,0.6,4.9,1c-2.8,1.8-4.8,3.1-7,4.5
		c3.5,8.1,2.1,15-5.6,19.9c-3.3,2.1-7.9,2.3-11.8,3.4c-2.4,0.7-4.8,1.7-7.2,2.5c-2,0-4,0-6,0c1.6-4.4,6.4-4.3,9.6-5.4
		c5.1-1.7,4.9-3.9,3.1-7.6c-0.7-1.4-1.2-3-1.1-4.8c0.5,0.6,1,1.1,1.4,1.7c1.5,2.3,3.2,6.7,4.4,6.6c3.7-0.4,7.1-2.5,11.1-4.2
		c-1.2-1.4-1.8-2.1-2.5-3c1.8,0.2,3.3,0.4,5.3,0.6c-6.3-9-12.2-17.5-18.3-26.2c0.9-1,2.7-3.1,4.5-5.1c-2.3-3.5-3.5-0.2-5.3,0.8
		c-0.9,0.5-2.2,0.4-3.3,0.5c0.2-1,0.3-2.1,0.5-3.1c0-0.2,0.2-0.3,0.2-0.4c0-0.1-0.3-0.2-0.4-0.2c-6.7,3.7-6.7,3.7-10.8,1.4
		c1.6-0.4,2.9-0.8,4.7-1.3c-7.8-4.9-15.3-0.4-22.7-0.7c-4.2-0.2-6.9,1.4-10.2,3.2c-2.5,1.4-6.1,0.8-9.2,1c1.1-1.1,2-2.4,3.3-3.2
		c4.3-2.7,9-4.9,13-7.9C377.6,616.3,384.6,610.4,391.7,604.7z M400.5,622.6c-2.2,1-4.3,1.9-6.5,2.9c0.1,0.3,0.2,0.6,0.2,0.9
		c8.5-2.1,17-4.2,25.5-6.4c-0.1-0.2-0.1-0.5-0.2-0.7c-6.4,1.1-12.8,2.3-19.2,3.4c3.1-1,6.1-2,9.2-3c-0.1-0.2-0.1-0.5-0.2-0.7
		c-9,1.9-18,3.9-27.1,5.8c0.1,0.3,0.1,0.6,0.2,0.9C388.6,624.7,394.6,623.6,400.5,622.6z M408.6,636.2c2.6,2.8,4.4,4.7,6.7,7.1
		c0.6-3.8,1.1-6.5,1.7-9.7c0.7,0.5,1.6,1.4,2.7,1.8c1.1,0.5,2.4,0.5,3.7,0.7c0.1-1.1,0.4-3.1,0.1-3.3c-2.6-1-5.4-2-8.2-2.3
		c-0.7-0.1-1.7,2.2-2.5,3.3c0.4,0.3,0.8,0.6,1.2,0.9C412.5,635.2,411.2,635.5,408.6,636.2z M418.8,612.8c-0.1-0.4-0.1-0.8-0.2-1.2
		c-7.5,2.1-15.1,4.2-22.6,6.3c7.6-0.7,14.9-2.6,22.2-4.5C418.4,613.4,418.6,613,418.8,612.8z"/>
	<path d="M391.7,604.7c-7.1,5.7-14,11.6-21.3,17c-4.1,3-8.7,5.2-13,7.9c-1.3,0.8-2.2,2.1-3.3,3.2c-1.2-0.4-2.4-0.7-3.5-1.3
		c-3.1-1.8-6-2-9.3,0c-4.7,2.9-9.7,5.2-13.7,7.3c1.2,0.8,3.5,2.4,5.9,4c-0.7,0.8-1.4,1.6-2.1,2.4c-1.6,1.6-3.7,4.9-4.8,4.6
		c-4.5-1.2-8.9-3.2-12.8-5.6c-0.9-0.5,0.1-4.1,0.3-6.6c-6.1,3-13.9,4.3-17.6,13.3c2.2,0,3.9,0,5.7,0c5.8,0.2,11.7-0.3,17.2,0.9
		c2.2,0.5,4.7,4.4,5.2,7c0.4,2.2-1.2,5.5-3,7.2c-1.8,1.8-4.9,2.4-8.5,4.1c0.5-4.9,0.8-8.8,1.2-12.7c-8.6-1.6-14,1.1-18.9,8.9
		c1.6,0.9,3.3,1.7,5.6,2.9c-8.4,4.1-16.7,2-24.8,2c1.2-0.2,2.4-0.4,3.6-0.7c-3.9-16.1-0.2-32.3,16-43.5c-0.3-2-0.6-4-1.1-6.7
		c-2.9,2.6-5.4,4.8-8.7,7.7c-9-0.4-18.6,1.1-25.1,11.8c-2.3-7.1-8.2-4.9-12.7-5.5c-10.9-1.7-21.9-2.6-29.8-3.5
		c3.4,1.3,9.8,3.9,16.5,6.5c-0.3,1.9-0.6,3.6-0.8,5c-2-0.6-3.8-1.2-6.4-2c1,4.1,1.6,7.1,2.1,9.2c-2.3-3.7-4.9-8-7.6-12.4
		c-2,1.2-3.9,2.4-5.8,3.5c1.9,2.2,4.1,4.1,5.1,6.5c0.5,1.2-1.3,3.4-2.8,6.6c-2.5-10.5-10.8-2.8-14.8-6.5c-3.9,3.4-7.6,7.4-12.1,10
		c-3.1,1.8-7.3,1.6-10.9,2.4c-1.4,0.3-3.5,0.4-4,1.3c-2.9,5.3-7.1,4.9-11.8,3.2c-1.2-0.4-2.5-0.7-4.3-1.2c1.2-1.4,2.1-2.4,3-3.4
		c-4.5-4.5-9.5-4.3-13.4-0.1c-2.5,2.6-5.6,4.7-8.7,6.5c3.3-3.7,6.6-7.4,10.1-11.2c-2.8-3.2-6.1-3.8-9.1-2c-1.7,1.1-2.2,3.9-3.3,5.9
		c0.4,0.2,0.8,0.5,1.2,0.7c-2.8,0-5.5,0-8.5,0c-3.4-6.2,4.9-23.2,14.6-27.4c-1.3,1.4-2.1,2.3-3,3.4c5.7-1.9,11-4.2,16.5-5.4
		c8-1.7,14.9-5.7,22.3-8.9c5.6-2.4,11.8-3.4,17.6-5.3c1.5-0.5,2.5-2.5,3.7-3.9c6.3-7.9,15.3-7.4,24-7.5c2.6,0,5.2,1,8,1.6
		c0.8-2.2,1.6-4.6,2.4-6.9c0,0-0.1-0.1-0.1-0.1c0.2,0.7,0.3,1.5,0.2,0.9c5.8-6.7,12-13.8,18-21c2.5-3,4.6-6.3,6.8-9.4
		c-0.5-0.3-1.3-1.1-1.4-1c-2.4,2.1-4.8,4.3-7.1,6.5c-0.2-0.8-0.4-1.5-0.7-2.6c-1,0.7-2,1.3-3,1.9c-4.1-7.2,1-11.7,4.1-17
		c-0.8-1.2-1.7-2.5-2.5-3.5c2-0.2,4.2-0.5,5.4-0.6c0.5-5.8,0.3-10.9,1.6-15.6c1-3.6,0.7-6.6-0.1-10c-1.7-7.7-3-15.5-4.2-23.3
		c-0.8-4.8-4.5-9.3-9.2-10.6c-1.5-0.4-3-1.1-4.5-1.7c1.6-4.9,8-4.7,8.6-10.6c0.6-6.2-3.5-9.5-6-13.9c-2.9-5-7.7-6.3-13.4-5.3
		c1.9-3.6,3.8-6.8,5.3-10.2c1.8-4.1,4.2-3.4,7.1-1.5c1.2,0.8,2.2,1.9,4.2,3.6c-0.7-3.5-1.2-5.9-1.8-8.8c2.8,5.5,4.5,10.3,7.5,14.4
		c2.7,3.7,3.6,9.9,11.1,9.2c-0.3,4.4-0.8,8.8-0.7,13.3c0,2.5,1.1,4.9,1.6,7.3c2.2-0.7,4.5-1,6.4-2c4.8-2.5,9.5-5.3,14.2-8.1
		c0.7-0.4,1-1.4,1.5-2.1c0,0-0.2,0.2-0.2,0.2c0.9-0.1,1.8-0.2,2.8-0.3c-0.2,3,1.3,2.9,3.3,1.9c0.2,0.6,0.4,1.2,0.6,2.1
		c1.5-0.8,3-1.6,4.5-2.4c0.2,0.2,0.4,0.4,0.6,0.5c-3.4,4.6-6.7,9.1-10.1,13.7c0,0,0.2-0.2,0.2-0.2c-4.8,5.9-9.7,11.7-14.3,17.7
		c-0.5,0.6,0.2,2.2,0.5,4.4c3.2-2.6,5.5-4.6,7.8-6.5c0.6,0,1.3,0.1,1.9,0.1c6.7-3.2,13.4-6.4,20.2-9.6l-0.2,0.1c2.6-1,5.8-1.3,7.6-3
		c8.9-8.3,17.4-16.9,25.9-25.5c1.5-1.5,2.4-3.7,3.6-5.5c2.9-1,5.6-2.6,8.6-2.9c3.5-0.4,6.5,3,5.6,6.9c5.7-6,10.2-11.8,11.2-19.2
		c0.8-6.1,0.2-12.5,0.2-18.8c0.4-0.3,0.8-0.6,1.2-0.9c0.3,0.9,0.6,1.9,0.7,2.5c1.7-1.5,3.1-2.7,4.4-3.9c1.2,1.4,2.4,2.8,4.5,5.1
		c-3.8-6.6,0.5-8,4.4-9.9c1.3-0.6,3-1.2,3.8-2.4c2-3.1,5.4-6.7,4.9-9.6c-0.4-2.8-4.8-5.2-7.7-7.3c-1.8-1.3-4.2-1.9-5.6-2.5
		c4.9-11.5,9.7-22.7,14.7-34.4c2,5.2,4,10.2,6.3,16.3c-1.3,3.4-3.2,8.3-5.3,13.5c1.5,1.1,2.9,2.2,4.8,3.6c2-2.4,3.5-5.1,5.7-6.8
		c1.1-0.9,3.5-0.3,5.3-0.1c1.4,0.1,2.8,0.4,4.3,0.7c0.3,0.4,0.6,0.8,0.9,1.2c1.9-3.3,3.8-2.2,5.9,0.3c-1,0.9-2,1.9-3.1,2.9
		c0.1,0.4,0.3,0.8,0.4,1.2c2-0.5,3.9-0.9,6.1-1.5c1.3,1,2.8,2.1,4.3,3.3c0.5-0.2,0.9-0.4,1.4-0.6c-1.1-5.5-2.2-11.1-3.2-16.4
		c1.7,0.3,3.3,0.5,4.9,0.7c-1.9-3-3.6-5.7-5.8-9.2c0,1.8,0.3,2.9-0.1,3.7c-0.5,1.2-2,3.3-2.1,3.3c-5.1-2.7-4.8,2-6.1,4.3
		c-1,1.7-1.8,3.5-2.6,5.3c1.1-6.5,2.1-13.1,3.2-19.6c0,0,0,0.2,0,0.2c1.6,1.6,3.1,3.2,4.5,4.6c1.3-3.9,2.6-7.8,4.3-12.9
		c2.8,3.2,4.4,5,6.1,7c-1.1,1-2.3,2.1-3.4,3.1c0.2,0.4,0.4,0.8,0.6,1.2c5.5-0.6,10.8-1.7,14.5-6.6c-1.9-5.8-11.5-7.1-8.9-15.5
		c-6.1-0.8-7.5-3.2-6.2-9.4c0.7-3.5,0.8-7,1.3-11.5c2.3,3.6,4.5,7.1,6.9,10.8c1.9-5.9,3.9-11.9,6-18.5c0.8-0.1,2.3-0.4,4.6-0.8
		c-4.1-3-4.7-5.4-0.6-8.6c1.3-1,0.3-4.8,0.4-7.4c0-0.6,0.3-1.1,0.9-3c0.8,3.6,1.3,5.9,1.9,8.4c2.3-1.3,4.9-2.3,6.8-4
		c2.5-2.3,3-12.8,1.3-15.9c-1-1.8-1.4-3.9-2.7-5.4c-0.9-1.1-2.8-1.4-4.2-2c-0.6-0.2-1.6-0.2-1.8-0.6c-1.8-4.7-6.5-3.8-9.9-5.5
		c-2.1-1-4-2.5-5.9-3.7c0.1-0.5,0.2-0.9,0.3-1.4c1.1-0.3,2.3-0.6,4.5-1.2c-2.1-0.8-3.3-1.3-5.1-2.1c3.1-1.3,5.7-2.3,8.3-3.3
		c-0.2-0.6-0.4-1.2-0.6-1.8c-1.2,0.3-2.5,0.6-3.7,0.8c-1.1,0.2-2.2,0.2-3.3,0.3c0.7-0.9,1.4-1.9,2-2.6c-3-2-6.1-4-9.2-6.1
		c1.9,0.4,3.8,0.9,5.7,1.3c0.1-0.3,0.1-0.6,0.2-0.8c-1.5-1.1-3.1-2.1-5.3-3.6c6.2-1.1,8.8-4.2,8.1-7.8c-2.8,1.4-5.7,2.9-8.7,4.2
		c-1.5,0.6-3.3,0.6-4.9,0.9c-0.6-2.9-0.4-6.3-1.8-8.6c-1.9-3-5.1-5.2-7.5-7.4c3.3-1.8,26.6-0.6,34.9,2.8c-0.3,1.6-0.5,3.3-1.1,6.7
		c2.5-1.4,4-2.2,5.4-2.9c-0.6-0.7-1.2-1.5-1.8-2.3c4.2-4.9,17.8-2.9,20,3.1c5.4-3.5,12-1.1,13.7,5.9c2.1-0.8,4.2-1.5,6.3-2.2
		c2.9-1.1,7.6,1.3,9.2,4.2c1.1,2,2.9,3.6,4.8,6c-1.4,0.8-3.6,2.1-5,2.9c5.7,2.3,12,4.7,18.2,7.2c0,4.5,0,9.4,0,14.5
		c10.9,6.2,10.9,6.3,3.4,19.2c3.2,1.4,6.5,2.9,10.2,4.5c2.1-3.2,4.4-3.3,6.6,0.1c0.2,0.3,0.5,0.5,0.7,0.7c6.9,5.6,6.9,5.6,1,12.7
		c-6.8,8.1-14.9,14.4-24.6,18.8c0.3,0.5,0.6,1,1,1.5c5.6-3.6,11.4-7,16.9-10.8c2.8-2,5.2-4.7,7.7-7.1c4.4-4.4,4.7-4.3,9.1-0.1
		c0.8,0.7,2.5,0.4,4.4,0.6c2.6,6.5,0.3,9.5-8.6,12.2c-6.5,2-9.6,5-9.3,11.7c0.1,1-0.7,2.1-1,3.2c-0.3,1.1-3,3.1,1,2.8
		c0,2.3,0.2,4.7-0.2,7c-0.2,0.9-1.5,2.2-2.5,2.3c-6.7,0.9-13.5,3.8-20.2,0c-3.6-2.1-7.2-4.2-10.9-6.2c-2.5-1.4-5.2-2.9-7.1,0.9
		c-0.2,0.4-0.8,0.7-1.3,0.7c-6.5-0.2-13-0.4-20.2-0.6c0,0.7,0.1,2.4,0.2,4.2c0.3,0.1,0.6,0.2,1,0.2c0.4-0.7,0.8-1.3,1.2-2.1
		c1.1,1.2,2.3,2.5,2.6,2.8c-2.6,5.6-4.8,10.5-7,15.4c-1.1,2.4-1.8,4.9-3.1,7.2c-1.2,2.1-2.2,3.9-5.1,0.7c-3.7-4.2-10.8-3.9-15.2-0.4
		c-1.3,1.1-2.5,2.1-4.1,3.5c-1.9-1.4-3.7-2.7-5.8-4.1c-2,1.9-4.2,3.9-6.7,6.2c1,1.1,2.3,1.8,2.6,2.9c0.6,2.1,1.8,5.4,0.8,6.3
		c-2.7,2.7-6.3,6.3-9.5,6.3c-5.6,0-6.5,2.4-6.6,6.3c-6.1,4.9-8.9,0.3-12.2-3.7c-1-1.2-3.3-1.4-5.4-2.2c0.6,8.8,2.2,16.9-3.6,24.7
		c-2.2-5-4-9.1-5.8-13.3c-3.4,4.3-7.4,8-9.8,12.5c-1.5,2.9-2,7.6-0.7,10.4c3.9,8.4,3.4,16.9,0.4,24.6c-3.4,8.9-7.9,17.8-17.6,22.3
		c-4.9,2.3-7.1,6.6-8.4,11.5c3.6,0.6,6.7,1.1,10.4,1.7c0.3-0.9,0.9-2.4,1.8-4.9c-0.3,3.4-0.5,5.6-0.7,7.9c5.9-0.3,9.4-3.9,15-15.4
		c0.7,2.2,1.3,4.1,1.6,4.8c-3.7,3.7-6.9,6.9-10.3,10.3c1.7,1.4,2.8,2.3,4.5,3.7c-3.7-0.8-6.6-1.4-10-2.2c0.5,16.1-8.3,25-21.2,31.2
		c-2.7,1.3-6.2,3.1-4.5,7.4c1,2.4,2.1,4,5.6,3.3c9.1-1.6,14.5,1.3,17.6,9.8c1.2,3.3,0.2,7.5,0.2,10.5c2.7,0.9,6.1,2.2,9.5,3.2
		c1,0.3,2.1,0,3.2,0c1.1,0,2.3,0,3.6,1.1c-1.3,0.7-2.6,1.3-3.6,1.8c-0.5,3.1-0.9,5.9-1.4,8.7c-0.3-0.1-0.6-0.1-1-0.2
		c0.3-1.5,0.5-3.1,0.8-4.6c-0.3,0-0.7,0-1-0.1c0,4.2,0,8.3,0,12.5c0.2,0,0.4,0.1,0.6,0.1c0.3-1.3,0.6-2.6,0.8-3.9
		c0.3,0,0.5,0.1,0.8,0.1c-0.3,1.8-0.2,4-1,5.5c-3.4,5.8-3.3,6.5,3.3,8.8c-2,0.1-3.6,0.3-5.2,0.4c0,0.5,0,1,0.1,1.4
		c3.1-0.2,6.1-0.7,9.2-0.6C387.5,603.1,389.6,604.1,391.7,604.7z M292,590.4c-3.5,6.6-6.9,13.2-10.4,19.9c0.4,0.2,0.8,0.4,1.2,0.5
		c0.9-1.3,1.9-2.7,2.8-4c-0.1,1-0.1,1.9-0.3,4.3c4.6-8.5,8.5-15.6,12.3-22.8c1-2,1.6-4.2,2.4-6.3c4.3-4.2,8.6-8.4,12.8-12.5
		c8.7-5.4,17.5-10.9,26.3-16.4c-0.6,0.2-1.2,0.2-1.8,0.5c-5.7,2.7-11.3,5.5-16.9,8.3c3.3-2.5,6.6-5.1,10-7.6c-3.1,0.9-6.2,2-8.9,3.7
		c-8.7,5.8-17.1,12-21.9,21.7c-0.3,0.6-0.5,1.3-0.8,1.9c-0.7,0.8-1.3,1.6-2,2.4C295.3,586.1,293.7,588.3,292,590.4z M160.5,641.6
		c-0.1-0.6-0.3-1.2-0.4-1.8c4.1-2.1,8.2-4.2,12.6-6.4c-10.5-3.8-23.7,1.8-25.2,10.1c2.2-0.4,4.4-0.8,7.8-1.4
		c-4.3,1.8-7.4,3.2-10.5,4.5c0.1,0.7,0.2,1.5,0.4,2.2c4.9,0.1,9.8,0.2,14.7,0.3c0.7,0,1.3,0.1,2,0.3c8.2,2.8,14.7,0.9,19.4-6.6
		c0.6-1,1.6-2.6,1.3-3c-0.7-0.9-2.3-1.8-3.3-1.6c-4.6,0.9-9.6-0.3-13.9,2.8C164.2,641.8,162.1,641.4,160.5,641.6z M505.6,266.5
		c-0.1-0.3-0.1-0.7-0.2-1c-3.5,0-7,0.1-10.5,0c-12.6-0.4-22.1,5.2-29.4,15c-4.4,5.9-4.4,13.3-0.3,17.9c1.7,2,2.9,4.4,4,6.2
		c2.8-1.1,6.5-2.5,10.1-3.9c-5.3,0.3-11.5-1.9-13.4-5c-2.2-3.8-1.4-9.2,2.5-13.9c1.7-2,3.5-4.3,5.8-5.4c5.8-2.8,11.8-5.2,17.9-7.2
		C496.5,267.8,501.1,267.3,505.6,266.5z M267.5,523.6c0.4,0.4,0.8,0.7,1.2,1.1c12-11.9,24.6-19.4,43.9-24.5
		c11.8-3.1,21-10.5,31.3-16.3c0.8-0.5,1.4-1.5,2.1-2.3c-14.2,8.7-29.1,15.3-44.6,21c-8.6,3.2-16.7,8.2-24.6,12.9
		C273.2,517.6,270.5,520.9,267.5,523.6z M259.5,548.1c0.6,0.1,1.2,0.3,1.8,0.4c5.2-4.9,10-10.2,15.6-14.5
		c5.7-4.3,12.1-7.5,18.3-11.1c6-3.5,12-6.7,18-10.1c-18.8,8.4-37.4,17.1-52.5,32.5c1-4.5,1.9-9,2.9-13.5c-0.5-0.1-0.9-0.1-1.4-0.2
		C261.3,537,260.4,542.6,259.5,548.1z M290.7,553.4c0.4,0.6,0.8,1.2,1.2,1.8c1.9-1.4,3.6-3.3,5.7-4.2c6.7-2.9,13.4-5.9,20.4-7.9
		c7.9-2.3,16.2-3.4,24.2-5.2c6.8-1.5,10.7-4,13.9-9.2c-7.2,6.7-15,7.9-22.8,9.6c-10.8,2.3-21.5,5.5-32,8.8
		C297.4,548.4,294.2,551.3,290.7,553.4z M330,527.9c-9.3-4.6-28.2,0.9-34.6,10.1C304.9,528.3,318,530.6,330,527.9z M266.7,591.3
		c0.2,0.2,0.3,0.3,0.5,0.5c2.5-4.8,5.7-9.4,7.5-14.5c2.4-6.7,5.3-12.8,11.8-16.4c0.1-0.1,0-0.6-0.2-2c-3,1.5-7,2.1-7.9,4.1
		C274,572.2,270.5,581.9,266.7,591.3z M340.7,515.5c-0.1-0.4-0.2-0.8-0.4-1.2c-13.5,3.7-26.9,7.5-40.4,11.2c0.2,0.7,0.4,1.5,0.7,2.2
		C314,523.6,327.4,519.6,340.7,515.5z M370.4,445.4c-1.4,13-9.9,21.8-19.2,31.4C364,470.7,372.5,456.5,370.4,445.4z M273.4,624.7
		c-12.9-0.9-22.8-7.7-33.3-13.1C250.3,621.6,266.4,628.1,273.4,624.7z M328.4,583.8c8.9-3.4,16.5-6.5,24.3-9.2
		c1.3-0.5,3,0.3,4.8,0.6c1.4-1,3.3-2.5,6.1-4.6C350.8,573.6,339.1,576,328.4,583.8z M340.4,539.4c-8.8,2.1-17.7,4.2-26.6,6.4
		c0.1,0.4,0.2,0.8,0.3,1.2c8.3-2,16.6-4,25.5-6.2c0.6,3.4,1.2,6.2,1.7,9C343.6,548,343.6,547.8,340.4,539.4z M295.8,613.9
		c-0.8-0.6-1.5-1.1-2.3-1.7c-1.9,1.6-3.9,3.1-5.5,4.9c-0.8,0.9-0.7,2.4-1.1,3.7c1.5,0.2,3.8,1,4.3,0.4
		C293.1,619,294.3,616.4,295.8,613.9z M326.4,505.2c0.3,0.4,0.6,0.8,0.8,1.2c10.8-5.4,21.5-10.9,32.3-16.3c-0.2-0.3-0.3-0.7-0.5-1
		C348.2,494.5,337.3,499.9,326.4,505.2z M316,601.1c4.1-2.5,8.2-6.3,12.9-7.4c4.5-1,9.6,0.8,14.2,1.3
		C338.5,588,323.7,591.3,316,601.1z M462.7,260.2c-2.8-0.7-4.8-1.3-7.2-1.9c-0.4,3.2-1.8,6.6,3.4,8.1
		C460.1,264.4,461.4,262.4,462.7,260.2z M509,320c-2.7-0.7-4.8-1.3-6.9-1.9c-1.2,3.4-1.7,6.4,2.9,8C506.3,324.1,507.6,322.2,509,320
		z M241.7,609.7c2.6,2,18.6-8,19.6-12.6C255.1,601.1,248.2,605.5,241.7,609.7z M296.9,613.3c-0.3,0.3-0.6,0.6-0.9,0.8
		c1.2,2.5,2.5,4.9,3.7,7.4c0.6,0,1.3,0,1.9-0.1c0.2-2.4,1.3-5.2,0.4-7.1c-1-2.1-3.8-3.3-5.8-4.9c-0.3,0.3-0.5,0.6-0.8,0.9
		c2.2,1.9,4.3,3.8,6.5,5.8c-0.3,0.3-0.6,0.7-0.9,1C299.6,615.8,298.2,614.5,296.9,613.3z M305,601.3c-0.4-0.5-0.9-0.9-1.3-1.4
		c-4.5,3.7-9,7.4-13.5,11c0.3,0.3,0.5,0.6,0.8,1C295.6,608.4,300.3,604.8,305,601.3z M353.7,612.7c-1.9,0.9-2.8,1.3-4.3,2
		c0.9-6,1.6-11.3,2.4-16.6c-0.4,0-0.7-0.1-1.1-0.1c-0.8,7.3-1.6,14.7-2.6,23.2C350.2,618.1,351.7,615.9,353.7,612.7z M324,613.5
		c-0.2-0.4-0.4-0.8-0.6-1.1c-6.2,2.8-12.4,5.6-18.5,8.4c0.2,0.4,0.3,0.8,0.5,1.2C311.6,619.2,317.8,616.3,324,613.5z M483.8,309.2
		c-0.4-0.2-0.7-0.4-1.1-0.6c-2.6,1.7-5.2,3.5-8.6,5.7c1.8,0.5,4.2,2,4.9,1.3C481,313.9,482.2,311.4,483.8,309.2z M206,625.3
		c0,0.3,0.1,0.7,0.1,1c5.9,1.1,11.8,2.3,17.8,3.4c0.1-0.5,0.2-1.1,0.2-1.6C218.1,627.1,212.1,626.2,206,625.3z M463.5,349.1
		c-0.8-0.4-1.7-0.8-2.5-1.2c-0.8,2-1.7,4.1-2.4,6.2c0,0.1,1.8,0.9,1.8,0.8C461.5,353.1,462.5,351.1,463.5,349.1z"/>
	<path d="M149.4,349.3c-1.7-1.8-3.3-3.6-5-5.4c-1.9-1.9-4.1-3.5-2.1-6.7c0.5-0.8,0.9-2.4,0.4-2.8c-4.4-4.3,0.4-8.5,0-12.6
		c-0.5-5.3-1.5-10.5-2.5-15.8c-0.1-0.3-1.5-0.4-1.7-0.4c1-1.5,2.2-3.1,3.4-4.9c0.1,0.1,0.8,0.7,1.6,1.5c0-14.4,0-28.6,0-42.7
		c-0.3,0-0.6,0-0.9,0c-0.3,5.4-0.7,10.8-0.8,16.2c-0.1,6.1,0.6,12.4-0.3,18.4c-0.5,3.3-3.1,6.7-5.4,9.4c-2.4,2.6-2.9,4.6,0.2,9.9
		c-5.6-3.4-14.4,3.1-15.5-8.8c-1.4,2-2.2,3.3-3.2,4.8c-9.8-1-11.2-9.4-14.5-16.6c-0.2,1.3-0.3,2.7-0.5,4
		c-6.7-13.8-17.8-19.2-32.8-18.1c0.1-1.6,0.2-2.9,0.4-4.7c5.6,0,11.3,0,16.8,0c1.3-6.6,3.3-9.2,12.5-10.4
		c-2.3-7.9-4.9-15.9-0.9-24.7c2.5,1.5,5.2,3.2,7.9,4.8c0.4-0.5,0.8-1,1.3-1.5c-0.6-0.2-1.1-0.4-2.4-0.9c1.5-0.5,2.9-0.6,3.8-1.3
		c1.8-1.4,3.5-3,4.8-4.8c0.9-1.2,1-2.8,1.5-4.3c1.5,0.8,3.1,1.6,4.6,2.4c0.4,0.2,0.6,0.8,1,1.4c1.3-1,2.6-1.9,3.8-2.8
		c-0.8-2.4-2.3-4.7-2.2-6.9c0.2-3.4,2.6-5.4,6.2-6c2.7-0.4,2.9-2,1.2-4.2c-4.7-6.1-3.8-8.2,4-10c1.5-0.3,2.9-0.9,4.3-1.3
		c1.3-0.3,2.6-0.5,3.4-0.7c0.9-2.1,1.4-3.9,2.4-5.5c1.4-2.3,3-3.3,5.5-0.6c1.3,1.5,3.8,2.1,5.8,2.7c4.3,1.3,5.8-1.5,6.6-5
		c0.3-1.1,0.4-2.6,1.2-3.3c3.2-2.6,6.5-4.9,9.6-7.7c1.3-1,3.1,4.6,4.3-1.6c1.2,2,1.9,3.2,2.5,4.2c3.1-0.1,0.3-9,6.9-3.5
		c0.8-2.7,1.4-4.9,2.1-7.3c4.5,0,9.3,1.2,12-4.2c0.4-0.9,2.2-1.4,3.5-1.5c7.8-1,15.7-1.8,23.5-2.7c0.8-0.1,2.1-1.1,2.1-1.6
		c-0.3-1.9-1-3.8-1.5-5.7c-0.4,0-0.9,0.1-1.3,0.1c-0.5,1.2-1.1,2.4-1.8,4c-6.4-2.8-12.9-5.7-19.7-8.6c-0.2,0.8-0.2,0.1,0,0
		c5.8-1.9,9.2-5.8,10.2-11.8c0.1-0.4,2.3-1,3.1-0.6c1.4,0.7,2.7,2,3.8,3.2c4.2,4.6,6.4,5,12.2,2.6c2.3-0.9,5.1-0.6,7.6-1
		c1.1-0.2,2.4-0.7,3-1.5c2.5-3.2,3.7-6.6,3.1-10.9c-0.9-6,0.6-7.9,6.6-9c4.5-0.8,4.9-4.9,6.4-7.7c2.6-4.9,3-5.2,7.2-1.4
		c2,1.8,3.9,3.8,6.4,6.1c1.1-0.3,3.4-0.6,5.5-1.5c6.4-2.5,7.4-2,8.5,5c0.3,1.9,0.6,3.9,0.7,4.7c2.7,1.5,4.6,2.6,7.4,4.2
		c1.8-2.3,4-5.1,7-9c3.9,3.8,7.8,7.7,11.8,11.5c1.8-1.4,3.9-2.9,6.5-5c1.3,3,3.1,5.3,3.2,7.7c0.2,5,2.4,7.9,6.9,9.4
		c0.3,0.1,0.5,0.4,0.8,0.6c4.6,2.3,8.8,8,14.5-0.6c0.1,8.6-0.4,15.5,6.8,19.4c1.6-2.6,3.2-5.2,5.3-8.7c0.7,2.7,1.1,4.2,1.6,6.1
		c2.5-0.7,4.8-1.4,7.9-2.3c1.2,4.5,2.3,8.9,3.5,13.6c0.8,0.2,2.6,0.4,4.2,0.9c3.6,1.2,4,2.9,1.5,6c-1.6,2-1.9,5-2.8,7.5
		c-2.9-4.1-4.3,0.9-4.7,1.5c-1.9,3.4-3.5,2.2-5.4,0.3c-0.6-0.6-1.4-1-2.1-1.5c-0.4,0.2-0.7,0.3-1.1,0.5c0.7,1.8,1.5,3.6,2.2,5.5
		c-2.7-0.2-5.4-0.4-7.8-0.7c-0.9,0.9-2,3-3.3,3.2c-1.9,0.2-5.2-0.4-5.8-1.6c-1.5-3.1-3.9-6.9-0.5-10.1c0.1,2.6,0.3,5.4,0.5,8.2
		c0.5,0,0.9,0,1.4,0c0-3.3,0-6.6,0-11.2c1.9,2.1,2.7,3.1,3.7,4.2c2.3-4,2.3-4.4-1.4-5.4c-6.6-1.8-6.2-8.3-8.9-12.8
		c-1-1.7-1.7-4.2-1.4-6.1c1.8-8.7-5.8-9.7-10.3-13.2c-5.4-4.3-11.7-6.3-18.5-6.7c-6-0.3-32.6,6.9-38.2,10.5c1.6,0.2,2.8,0.3,4.6,0.5
		c-5.4,5.3-10.2,10.6-15.7,15c-2.5,2-6.5,2.1-9.8,3.1c-0.5-0.5-1-0.9-1.5-1.4c0.2,2.1-0.5,5.2,0.6,6.1c3.9,3.1,1.4,6.5,0.9,9.5
		c-0.6,3.6-4.1,3.1-6.5,2.2c-3.1-1.1-6-3-3.3-8.3c-1.8,1.1-2.6,1.7-2.7,1.7c-5.8-2.3-11.2-5-16.8-6.6c-4.2-1.2-9.5-2.4-13.2-1
		c-11.9,4.6-25.5,6.8-32.8,19.5c1.9-1.8,3.7-3.6,5.7-5.2c0.7-0.5,2-0.1,3-0.1c-1.3,1.7-2.6,3.4-3.9,5.1c-0.6,2-1.2,4-1.8,5.9
		c0.4,0.2,0.7,0.4,1.1,0.6c1.6-1.5,3.2-3,4.7-4.5c1,3.1-0.8,4.9-2.7,7c-3.3,3.8-4.4,8.4-2.7,14.5c1.6-3.8,2.9-6.8,4.1-9.7
		c0.2,0,0.4,0.1,0.7,0.1c-0.1,0.6-0.2,1.3-0.3,1.9c-0.1,10.4-2.9,20.9,1,31.3c0.3,0.8,0.6,1.6,0.4,2.4c-1,6.6-2.1,13.1-2.9,18.2
		c0-4.4,0-10.5,0-17.5c-1.8,2.8-3.3,5-4.7,7.2c-1.3,0.8-2.8,1.4-3.8,2.5c-3.2,3.3-6.2,6.8-9.3,10.3c4.4-5.6,8.8-11.2,13.1-16.9
		c1.6-2.2,4.3-4.6,4.3-6.8c-0.1-6.6-1.3-13.3-2.2-19.9c0-0.1-0.5-0.2-1.2-0.6c-3.8,8.9-7.5,17.8-11.8,28c3.1-1.7,4.7-2.6,6.3-3.5
		c-1.4,2.1-3.4,3.4-5,5.1c-4.6,4.8-6.2,10.8-6,17.4c-2.6,4.3-5.1,8.6-4.9,14.7c3.8-5.7,7.1-10.5,10.3-15.4
		c-0.4,4.2-0.7,8.4-1.1,13.2c1.5-1,2.7-1.7,4-2.6c-0.5,1.5-1,3-1.4,4.3c3.2,0.9,5.8,1.7,8.5,2.4c-0.1,0.4-0.2,0.8-0.2,1.2
		c-3.1-0.6-6.2-1.3-9.4-1.9c-0.1,0.4-0.2,0.7-0.3,1.1c1.5,0.6,3,1.3,4.5,1.9c0,0.3,0.1,0.6,0.1,0.8c-4.1,0.4-8.1,1.1-12.2,1.2
		c-4.3,0.1-7.8,2.5-8.8,6.7c4.6-5.6,6.2-5.6,13.7-2.9c3.4,1.2,7.5,0.5,11.2,0.7c2,0.1,4,0.3,6,0.5c0,0.5,0,1,0.1,1.5
		c-1.6,0.4-3.4,0.5-4.9,1.3c-1.4,0.7-2.5,2.1-3.5,3c-1.8-0.7-3.4-1.3-4.9-2c0,1.5,0.2,3.1-0.1,4.6c-0.3,1.1-1.2,2.1-2.5,4.2
		c-1.8-4.7-3.3-8.5-4.8-12.2c-0.5,0-1.1,0-1.6,0c-1,3.4-2,6.8-3,10.3c0-0.4-0.1-0.8-0.1-1.2l-0.3-0.2c-1,0.4-2,0.7-2.9,1.2
		c-0.5,0.3-0.8,0.8-1.2,1.2c-1.3-1.1-2.5-2.1-3.9-3.2c-0.4,0.8-0.8,1.6-1.3,2.5c-0.9-0.8-1.6-1.4-3.1-2.6c-0.3,2.8-0.5,4.7-0.6,6.6
		c2.1-0.7,4.2-1.4,6.2-2.1c0.9-0.3,1.7-0.8,2.6-1.2c1,1.5,1.7,3.4,3,4.3c1.8,1.2,4.6,2.8,6.1,2.2c2.5-1,3.4-3.8,1.5-6.6
		c3.5,2.4,2,5.7,0.4,7.8c-1.1,1.4-4.4,1.4-6.6,1.4c-1.1,0-2.1-1.6-3.3-2.1c-1.6-0.6-3.7-1.5-5-0.9c-0.9,0.4-1.3,3.1-1.2,4.7
		c0.1,5,0.5,10,0.8,15.7c5.8-3.9,10.8-5.1,17.7-2.2c-6.7,3-18.5-2.6-15.1,11.2c-0.5-0.3-1.1-0.5-1.6-0.8c-0.4,1.2-0.9,2.3-1.2,3.5
		C149.8,347.4,149.5,348.3,149.4,349.3C149.3,349.3,149.4,349.3,149.4,349.3z M164.9,230.7c-2.6,5.6-5.9,11-7.6,16.9
		c-1.4,4.9-1,10.4-1.4,15.7c0.6,0.1,1.3,0.2,1.9,0.3c2.3-11,4.6-22,7-33c0.5,1,1.1,2,1.8,3.2c0.5-0.6,1.1-1.1,1.6-1.6
		c-0.7,2-1.3,4-2,6.1c-0.7,2-1.4,4-2.1,5.9c5.8-10.2,13-19.8,12.8-33.4c-1.4,2.3-2.4,3.9-3.4,5.5c-1.1,1-2.6,1.8-3.2,3
		C168.3,223.1,166.6,226.9,164.9,230.7z M146.2,267.4c4-10.8,8.1-21.5,12.1-32.3C150.6,244.4,146.1,255,146.2,267.4z M148.7,279.2
		c0.7-2.8,0.7-6.3,2.4-8.4c3.6-4.4,2.8-9,2.9-15C147.6,263.5,149.4,271.6,148.7,279.2z M166.3,219.5c9.7-12.8,9.7-12.8,7.8-16.9
		C171.3,208.7,168.8,214.1,166.3,219.5z M224.8,171c1.7,0.5,4.3,2,5,1.4c1.9-1.7,3.1-4.3,4.5-6.5c-0.4-0.2-0.8-0.5-1.2-0.7
		C230.7,166.8,228.3,168.5,224.8,171z M136.3,231.2c-0.4-0.2-0.7-0.4-1.1-0.6c-2.7,1.8-5.5,3.6-8.9,5.8c1.8,0.6,4.2,2,4.8,1.4
		C133.2,236,134.6,233.4,136.3,231.2z M150.9,227.5c-1-3.3-1.6-5.4-2.5-8.3c-0.9,3.7-1.6,6.3-2.4,9.7
		C148.2,228.3,149.7,227.8,150.9,227.5z"/>
	<path d="M162.7,363.5c1,7.6,6.8,11.7,12.4,15.2c2.6,1.6,7.5,0.7,10.8-0.6c2.4-0.9,4.1-4,5.7-6.4c1.9-3,3.1-6.6,5.1-9.5
		c1.9-2.8,4.4-5.4,6.9-7.7c2.3-2.1,2.1-3.7,0-5.5c6.1,2.9,3.5,7.3,1.4,11.7c2.6-1.9,4.8-3.4,6.9-5c1.4-1.1,2.7-2.3,3.7-3.7
		c0.2-0.3-1-2.3-1.1-2.3c-1.6,0.6-3.1,1.5-4.7,2.2c-0.3,0.1-0.6,0.1-2.3,0.2c2.4-5.7,4.5-10.8,6.6-15.9c0,1.1-0.4,2.6,0.1,3.1
		c1.8,1.7,3.9,3,6.1,4.6c0.3-1.5,0.7-3.4,1.2-6.1c4.2,2.5,8.2,4.9,12.2,7.3c-0.2,0.7-0.3,1.4-0.5,2c-2.1,0.1-4.3,0.2-6.4,0.3
		c-2.2,0.2-4.9-0.3-6.3,0.8c-1.1,1-0.7,3.9-0.8,5.9c0,1,0.8,2.1,0.7,3.1c-0.4,2.1-1.1,4.1-2,7.1c-0.4,0.1-2,0.8-3.4,1.2
		c0.3,6.3,0.7,12.2,1,17.9c-0.6,0.1-1.6,0-2.5,0.4c-0.3,0.1-0.3,1.4-0.1,2c1.4,3.9,3.6,7.7,4.3,11.8c0.7,4.4,3.2,7.7,4.7,11.5
		c2.4,6.1,6.7,4.2,10.7,4.4c0.5,0,1,0.2,1.5,0.2c9.6,0.9,15.1-1.7,16.6-10.1c3.8-2,7.7-3.1,10.1-5.6c2.2-2.3,7.7-4.7,3.3-8.9
		c1.3-0.7,3.4-1.5,3.3-1.8c-0.7-2.5-1.7-5-2.7-7.4c-0.2-0.5-1.5-0.6-1.7-1.1c-0.9-1.8-1.5-3.8-2.3-5.7c1.1,0,2.2,0,3.2,0
		c2.7,1.4,5.4,2.9,7.8,4.1c0,0-1,0.8-1.9,1.6c0.1,0.2,0.3,0.4,0.4,0.5c3.7-1.4,7.5-2.8,11.2-4.2c0.3,0.7,0.6,1.5,0.9,2.2
		c-1.6,0.9-3.1,1.7-4.5,2.4c0.2,2.5,0.4,4.9,0.6,7.3c0.3,1.1,0.6,2.3,0.8,3.4c-0.7,2.2-1.3,4.4-2,6.5l0.2,0.1
		c-0.7-2.4-1.4-4.8-2.1-7.2c-0.4,0.1-0.7,0.1-1.1,0.2c-0.3,2.3-0.7,4.7-1,7l0.1-0.1c-0.6-1-1.3-2-1.9-3c-7.5,3.9,0.1,8.7-1.4,13.1
		c2.4,0,4.3,0,6.3,0c0,0-0.1,0-0.1,0c-1.5,1.5-3,3.1-5,5.1c-0.4-0.2-2-1-3.5-1.7c0-2.9,0-5.6,0-8.3c-0.5-0.1-0.9-0.2-1.4-0.3
		c-0.8,1.7-1.6,3.4-2.4,5.1c-0.4-2.1-0.8-4.3-1.5-7.8c-7.6,7.3-14.2,13.6-20.4,19.6c1.8,0,4.8,0,7.8,0c0,0.6,0,1.2,0,1.8
		c-3.2-0.2-7.2,0.9-9.3-0.7c-4.6-3.4-10-2.7-14.8-4.2c-3.1-1-5.3-1.9-6.5-5.6c-1.1-3.6-3.8-6.6-5.6-9.9c-0.4-0.7-0.3-1.6-0.3-2.5
		c-0.7-8.4,1.1-8.8-7.2-14c4.9-2.5,5.1-4.4,1.1-8c-2.4-2.1-4.6-4.5-6.8-6.8c10-1.5,10-1.5,10.6-6.1c-2,1.4-3.5,2.5-5,3.6
		c-0.8-0.7-1.6-1.4-2.7-2.4c-1.1,1.9-1.9,3.4-2.8,5c-2.4,2.6-4.7,5.2-7.8,8.5c2.6,0.5,3.8,0.7,5.2,1c-0.3,1.7-0.6,3.1-1,5.1
		c2-0.8,3.7-1.5,4.3-1.8c2.3,2.1,4.1,3.9,6,5.6c-0.2,0-0.5,0-0.7,0c2.6,5.7,6,11.2,7.6,17.1c1.9,7,6.2,11.1,12.5,13.6
		c6,2.4,12.2,5.6,18.4,6c6.2,0.4,12.5-2.3,18.5-3.5c1.8,5.6,3.7,11.5,5.8,18c-0.6,0.5-1.7,1.5-2.8,2.3c-4.1,3.3-3.7,8.2,1.2,10.2
		c3.4,1.3,5.3,2.5,2.9,6.4c-0.6,0.9,0.4,2.8,0.6,4.2c0.5,0,1-0.1,1.5-0.1c0-5.5,0-11,0-16.7c0.4,0.5,1.7,1.4,1.8,2.4
		c0.3,3.9,0.4,7.8,0.5,11.7c0.1,3.8,0,7.6,0,12.9c-2.1,2.6-5.5,6.8-8.8,10.9c-0.3-0.2-0.6-0.5-0.9-0.7c2.3-5.5,4.5-11.1,6.8-16.6
		c-0.3-0.2-0.6-0.4-0.9-0.6c-1.6,1.2-3.1,2.3-4.7,3.5c3.5-3.7,4.5-7.1,0.6-11.3c-5.1-5.4-8.8-6.7-15.2-4.1c-0.1-1.9-0.1-3.6-0.4-5.3
		c-0.3-1.6-0.9-3.1-1.4-4.9c1-0.4,2.3-0.9,3.5-1.4c-0.4,2.2-0.8,4.4-1.5,7.9c2.5-2.1,4.2-2.9,4.9-4.3c0.7-1.3,0.3-3.1,0.4-4.7
		c-1.3,0.4-2.6,0.8-3.9,1.2c0.3-0.9,0.6-1.8,0.9-2.9c-5.5,1.6-11,2.6-16.1,4.8c-2.1,0.9-3.1,4.3-5,7.1c-4.7-5.2-12.9-5.7-17.5-12.4
		c-2.8-4.2-8-2.5-10.4,2.6c-2.9,0-5.6-0.1-8.3,0c-14.1,0.9-16.2-3-19.6-14.8c-2.6-9,0.6-13,10-14.2c1.2-0.2,2.5-0.6,3.7-0.8
		c0.1-0.5,0.2-0.9,0.3-1.4c-3.5-1.1-7.5-1.5-10.3-3.6c-2.9-2.1-4.8-5.7-7.4-8.9c-1.8,4.2-3.2,7.6-4.7,11c-0.5,0-1,0.1-1.5,0.1
		c-1.1-3-2.2-5.9-3.2-8.9c-1-3.2-3.4-5.8-6.3-5.2c-4.3,0.9-8.2,3.3-12.3,5.1c-1.7,0.8-3.2,1.9-5.3,3.1c-0.7-0.7-3.3-2.3-3.1-3.3
		c0.8-4.2,1.6-8.8,3.8-12.3c2.3-3.6,6.4-6.1,10.2-9.5c-5.7-2.3-10.5-3.8-14.9-6.2c-1.9-1-2.9-3.7-3.8-5.8c-3.9-3.2-6.5-0.9-8.9,3.1
		c-2.1-1.5-4-2.8-6.2-4.4c-2.8,2.1-5.9,4.4-9,6.7c-4.6-7.2-8.5-7.7-14.8-2.7c-2.2,1.7-9.2-0.5-10.2-3.2c-0.3-0.9-0.7-1.8-1.1-2.7
		c-3.7,0.3-7.2,0.7-10.7,0.7c-3.5,0-3.7-2.2-2.3-4.8c1.3-2.3,2.7-4.5,4.2-6.7c1.4-2,3-3.6,1-6.4c-0.6-0.9,0.8-3.3,1.5-5.6
		c-0.4-0.6-1.2-1.8-2-3.1c5.2-4.5,8.1-0.5,11.2,3c1.1-2.6,2.1-4.8,3.1-7.3c-1.2,0.2-2.7,0.5-5.8,1.1c1.8-1.9,2.4-3.2,3.4-3.6
		c15.3-5.2,31-7.5,46.5-5.7c1.9,6.1,3.7,11.7,5.5,17.2c0.2,0.8,0.3,1.8,0.9,2.2c2.9,2.4,5.9,4.7,8.8,7c0.1,0.1,0.4,0,0.4-0.1
		c0.2-0.2,0.3-0.5,0.4-0.8c0,0-0.1-0.1-0.1-0.1c3.4,6.9,6.8,13.9,10.3,21.3c-2.7,0.8-4.8,1.5-6.2,1.9c0.6,3.3,1.1,6.4,1.7,10.3
		c-0.6-0.4-0.4-0.1-0.1-0.1c6.6-0.2,10.6,2.6,12.1,9.3c0.8,3.6,1.3,3.5,4.2,2c-1.1-3.2-2.2-6.3-3.3-9.5c6.8,1.5,8.7,1.1,9.8-1.2
		c-2.1-1-4.4-1.7-6.2-3.1c-1.9-1.5-3.3-3.7-4.9-5.5c-1.8-2-2.8-1.9-4.2,0.3c-1.2-3.3-2.6-6.6-3.5-10.1c-0.3-1.2,0.8-2.8,1.3-4.6
		c1,1.3,1.8,2.3,2.5,3.3C162.8,363.6,162.7,363.5,162.7,363.5z M188.8,393.1c0.2-0.1,0.3-0.1,0.5-0.2c-1.4-1.9-2.7-3.7-4.1-5.5
		c2.6-1.7,5.4-3.7,8.1-5.6c-7.2,1.7-14.3,3.4-21.5,5.2c0.5,2.6,2.2,3.2,5,1.2c0.9-0.6,2.4-1.4,3-1.1
		C183,388.9,185.8,391.1,188.8,393.1z M195.1,400.4c1.2,0.4,3.7,1.9,4.3,1.4c2-1.8,3.3-4.4,4.9-6.7c-0.3-0.2-0.7-0.4-1-0.6
		C200.8,396.3,198.3,398.1,195.1,400.4z M110.2,335.7c0.1,0.5,0.3,0.9,0.4,1.4c1.7-0.5,3.7-0.5,4.9-1.5c1.2-0.9,1.6-2.9,2.3-4.4
		c-0.3-0.1-0.7-0.2-1-0.3C114.6,332.5,112.4,334.1,110.2,335.7z"/>
	<path d="M264.4,373c-1.1,0-2.2,0-3.2,0c-1.3-2.4-2.7-4.8-4.2-7.6c6.3-1.2,7.1-3,4.6-7.3c-0.7-8.4-5.4-14.3-11.2-14.7
		c-0.6-3.2-1.1-6.3-1.7-9.4c0,0-0.2,0.1-0.2,0.1c0.9,0.1,1.9,0.1,2.8,0.2c0.3-0.3,0.6-0.6,0.9-1c-2.2-2.4-4.5-4.8-7.1-7.7
		c-2.3,1.5-4.7,3.1-7.1,4.7c0,0.3,0.1,0.5,0.1,0.8c-0.1,0.6-0.2,1.3-0.2,1.9c-0.8-0.5-2-0.8-2.5-1.6c-2.7-4.8-6.4-3.6-10.2-1.9
		c-0.7,0.2-1.4,0.3-2.1,0.5c1-4.4,2.6-8.9,2.8-13.4c0.1-2.3-2.3-4.6-3.5-7c-1.3,1.6-3,3.1-3.9,5c-0.9,1.7-0.6,5.1-1.5,5.3
		c-5.1,1.4-4.1,5.6-4.8,9c-0.6,0.4-1.2,0.7-1.8,1.1c2.6,2.1,0.8,3.2-0.8,4.6c-0.9,0.8-1.3,2-1.7,2.7c-0.6-1.5-1.3-3.2-2-5
		c-0.4,0.1-0.8,0.3-1.3,0.4c0.4,3,1.2,6.1,1.2,9.1c0,1.8-1.4,3.5-2.1,5.3c-0.6-5.7-0.5-11.5-2.1-16.9c-2.2-7.2-1.7-10.4,4.4-14.7
		c1.6-1.1,2.7-3,4.3-4.9c-2.8-1.3-4.7-2.1-7-3.2c-0.5,1.6-0.8,2.9-1.2,4.3c0.9-6.4-5.9-4.2-8.8-8.3c0,3.7,0,6.3,0,9
		c-2.7-3.9-6.2-6.6-11.7-5.1c0,1.2,0,2.6,0,4.1c-0.5,0-0.9-0.1-1.4-0.1c0.5-3,0.3-6.3,1.8-8.7c1-1.7,4.3-2.1,6.5-3
		c0.3,0.4,0.6,0.7,0.8,1.1c0.9-3,1.7-6,2.9-9.9c1.3-0.5,3.9-1.6,6.6-2.7c1.5,0.3,3,0.6,4.5,0.9c0.9,2.6,2.5,5.2,2.6,7.8
		c0.1,3.9-0.5,7.7,5.1,8.2c0.2-1.3,0.3-2.6,0.5-3.8c0.9,1.1,1.8,2.2,2.7,3.4c0.3-0.2,0.7-0.3,1-0.5c0-3.1,0-6.1,0-9.2
		c0.3,0,0.6-0.1,0.9-0.1c0.2,2.4,0.3,4.8,0.5,7.1c0.2,0,0.5,0.1,0.7,0.1c0.4-1.3,0.8-2.6,1.7-5.5c2.6,3.5,4.4,6.1,6.6,9.1
		c1.6-0.5,4.1-1.4,8.2-2.8c-2.5,3.1-4.1,5.2-6.2,7.8c1.4,1,2.8,2.1,4.1,3c-0.7,2.8-1.3,5.3-1.9,7.8c0.5,0.4,1,0.7,1.4,1.1
		c1.8-2,3.6-4,4.9-5.3c6.2-1.6,12.1-3.1,18-4.7c0-0.5,0-1-0.1-1.6c-2.3-1.7-4.7-3.3-7.1-5c6.7-1.2,13-2.4,20.7-3.8
		c-3.5-2.8-5.8-4.6-9-7.2c2.9,0,4.5,0,5.3,0c0.9-2.6,1.4-5,2.4-6.9c1.7-3,4-5.7,5.6-8.8c0.7-1.4,0.1-3.4,0.1-4.9
		c-2.9,3.6-5.4,6.8-7.9,10.1c-1.2,1.5-2.2,3.1-3.4,4.9c-5,0.4-11.1-3.4-16.2,1.7c0,0,0,0,0,0c-2.1-3.6,1.1-4.7,3-5.9
		c3.5-2.1,3.5-1.7,1.9-5.5c-0.7-1.6-0.3-3.6-0.5-6.7c0.7-0.4,2.6-1.4,5.8-3.1c-1.5,3.4-2.4,5.3-3.2,7.2c3.4-6.1,9.9-3.3,14.4-5.5
		c4.6-2.2,9-5.4,12.6-9.1c3-3,6.9-4.9,9.9-2.9c-2,2.3-3.9,4.7-5.9,7c-0.6,0.6-1.6,0.7-2.4,1.1c-1.9,1-5.1,1.7-5.3,3
		c-0.4,2.5,0.5,5.4,1.4,7.9c0.8,2,2.4,3.7,3.9,5.3c0.9,0.9,2.5,2,3.5,1.8c3.9-0.9,7.8-2.3,12.1-3.7c-3.1-2.4-5.5-4.3-8.7-6.8
		c5.1,0.8,9,1.3,13.7,2.1c-1.1-2.6-1.9-4.2-2.1-4.7c2.1-2.8,4.2-5,5.5-7.7c1.6-3.1,2.8-6.3,7-4.7c-0.5-2-1.7-4.1-1.2-5.5
		c0.5-1.3,2.7-2.3,4.3-2.9c4-1.5,8.2-2.7,12.4-5.3c-2.7-1.1-5.4-2.1-9.2-3.6c3.6,0.3,6.2,0.4,9.6,0.7c-1.9-1.1-3.2-1.9-5.8-3.4
		c3.6-0.6,6.1-0.9,8.9-1.4c-0.9-0.8-1.7-1.5-2.6-2.3c0.3-0.4,0.5-0.8,0.8-1.2c3.3,1.9,6.6,3.8,10,5.8c-1.7,1.3-3,2.4-4.9,3.8
		c2.4,1.3,6.2,1.4,2.6,4.7c1.1,0.3,1.9,0.5,3.8,1.1c-3.2,2.8-5.7,5-8.3,7.2c0.5,0.2,0.9,0.3,1.4,0.5c-0.2,1.7-0.4,3.4-0.8,6.4
		c3.8,0.3,8.1,0.6,12.4,1c0.1-0.5,0.2-0.9,0.2-1.4c-1.2-0.6-2.3-1.2-4.3-2.3c2.8,0.5,4.5,0.8,7,1.2c-0.7-1.3-1.2-2.2-1.8-3.4
		c2.7,0.4,5,0.8,8,1.3c-1.6-6.2,0.8-10,5.4-12.9c-3.7-6.8-3.6-7.8,1.2-13.6c0.2,3.2,0.4,6.2,0.6,9.3c0.4,0,0.9,0,1.3,0
		c0.3-1,0.7-1.9,1-3.1c1.6,3.2-2.5,8.5,4.8,9.1c-2.3,2.2-3.9,3.7-6,5.7c2.1,0.1,3,0.2,4.6,0.3c-1.8,2.9-3.3,5.3-5,8
		c2.9,1.9,5.6,2.5,8.8,0c1.1-0.8,1.5-0.2,4.9-6.8c1.7,0.7,3.3,1.4,4.4,1.8c1.5,3.9,2.1,8.3,4.5,10.9c2.5,2.7,6.9,3.7,10.9,5.8
		c-0.7-1.4-1.2-2.4-1.7-3.4c2.2-0.9,4.4-2.2,6.7-2.5c1.7-0.2,4.4,0.4,5.2,1.6c1.7,2.4,4.9,3.6,5.1,7.7c0.1,1.7,6.1,3.5,9.7,4.6
		c2.1,0.7,4.6,0.1,8.6,0.1c-2.8,6-5,10.8-7.3,15.6c-0.2-0.2-0.3-0.4-0.5-0.6c-2.9,3.2-5.6,6.6-8.7,9.7c-2.4,2.4-5.2,4.3-7.8,6.5
		c-0.4-0.4-0.8-0.8-1.2-1.3c0.7-1.7,1.3-3.4,2.4-6.1c-4.4,2.4-8.2,4.2-9.7-2.2c-2,1.1-3.5,2-5.4,3.1c-0.9-1.4-1.8-2.8-2.9-4.5
		c-1.6,1.3-3,2.4-4.8,3.9c-1.5-1.7-2.8-3.2-4.4-5.1c-1.2,0.9-2.5,1.8-4.2,3.1c-1.1-1.5-2.2-3-4.2-5.6c-0.7,2.4-2,5-1.6,5.4
		c1.9,1.3,4.2,2,7.5,3.3c0,0,0.5,1.3,1.1,2.8c4.9-3.1,4.2,1.6,5.6,4.3c1.9-0.6,3.8-1.2,5.9-1.9c0.6,1.4,1.1,2.7,1.2,2.9
		c2.7,1,4.6,1.7,7.2,2.6c1.6-0.8,4.1-2,6.6-3.3c0.4,0.5,0.8,1.1,1.2,1.6c-5,10-10.4,19.6-20.2,26c0-2.7,0-5.4,0-8.1
		c-1.6,0-2.8,0-4.5,0c0.5,3.9,0.9,7.5,1.3,11.2c-1.2-0.8-2.9-1.2-3.6-2.3c-4.2-6.1-7.7-7.6-15.1-6.1c-2.1,0.4-4.2,0.4-7.1,0.6
		c-0.1,0.2-0.7,1.7-1.5,3.5c1.5-0.2,2.5-0.4,3.5-0.5c0.1,0.3,0.2,0.6,0.3,0.9c-1.2,0.6-2.8,1-3.7,1.9c-0.9,1-1.2,2.5-2,4.3
		c-1.2-2-2.2-3.7-3.3-5.6c-5.8,5.1-5.3,12-6.6,18.5c-1.2-2.7-2.5-5.5-3.8-8.5c-5.5,5.1-6.5,11.1-6.2,17.7c0.1,3.5-0.1,6.9-0.2,10.4
		c0,0,0.2,0,0.2,0c-1.3-4.6-2.6-9.3-4.2-14.9c-3.1,3.7-6.7,5.8-3.4,9.9l0.1-0.1c-1.1,1-2.8,1.9-3.2,3.1c-0.7,1.9-0.5,4.1-0.8,7
		c-1.9-2.5-3.4-4.6-5-6.8c-5.8,4.5-5.8,11.1-7.4,17.9c-2.7-4.5-5.1-8.4-7.3-12.1c0-3.5,0-7.2,0-11.1c-6.3-2.5-9.2,3.3-13.3,6.3
		c-1-2.5-2.2-4.9-3.1-7.4c-1.4-3.6-8.4-5.3-12-2.3c-0.7-1.9-1.4-3.5-2-5.3c2.4,0.8,4.3,1.4,6.2,2c0.1-0.3,0.2-0.6,0.3-0.9
		c-2-1.5-4-3.1-7.2-5.5c0,3.4,0,5.9,0,8C267.3,371.1,265.9,372,264.4,373z M377.9,328.3c-9.5-3.4-13.4-2-18.7,5.3
		c1.7-0.8,3.1-2,4.7-2.9c1.8-0.9,3.7-1.6,5.6-2.1c5.3-1.2,8.1,1.7,6.9,6.9c-0.2,0.8-0.3,1.6-0.6,3.2c3.8-3.7,3-7.2,1.9-10.7
		c3,3.1,4.7,9.9,11.4,3.2c-0.3,2.4-0.4,3.8-0.7,5.7c1.5-0.9,2.7-1.3,3.7-2.1c4.6-3.6,4.3-7.3-0.6-10.2c-8.5-5-17-10-25.3-14.8
		c0,0.1,0,1.2,0,3.1c-1.4-2.2-2.3-3.6-3.5-5.4c-1,2.2-1.8,3.7-3.1,6.5c-0.2-2.3-0.8-3.7-0.3-4.2c6.2-6.8,11.5-15,21.8-16.3
		c1.3-0.2,2.8,0,3.9,0.5c5.9,2.9,11.5,6.3,17.6,8.9c7.4,3.1,14.3-0.1,17.3-7.6c0.4-1,0.1-2.8-0.6-3.8c-5.4-8.6-13.8-10.6-22.6-8
		c-9.3,2.7-18,7-26.9,10.9c-5.7,2.5-10.9,5.8-12.4,12.6c0.6-11.7,10.6-13.6,19-17.4c-4.1-3.4-7.8-6.4-11.7-9.6
		c7.2-0.4,14.5-0.7,22.8-1.1c-6.3-9.7-14-1.7-19.9-3.2c2.8-1.3,5.9-2.6,8.9-4c-0.1-0.5-0.1-1-0.2-1.5c-5.4-0.4-10.7-0.7-16.1-1.1
		c0-0.2,0-0.4,0.1-0.7c0.9-0.3,1.9-0.6,2.8-1c-2.9-1.1-5.9-2-8.4-1.3c-8.2,2.3-16.3,3-25.2,0.5c1.2,1.7,1.9,2.8,3.4,4.9
		c-7.3,0-13.7,0-20,0c0,0.3,0,0.6,0,1c1.4,0.7,2.8,1.4,5.4,2.8c-7.7,1.5-14.1,2.7-20.5,3.9c4.9,1.8,9.6,5.8,14.9,1
		c-1.7,2.7-3.4,5.4-5.9,9.3c5.9,0.5,10.8,0.8,14.9,1.1c-0.2,3.4-0.5,7.2-0.7,11.3c4.6,0,8.6,0,12.3,0c0,4.2,0,8.1,0,12.8
		c5-1,9.7-2,13.5-2.8c-0.5,4.7-1.1,10-1.8,16.6c5.6-2.7,10.2-4.8,14.6-6.9c-0.9,1.2-1.9,3.9-3.6,4.6c-7.7,3.2-5.9,9.5-6.4,16.6
		c3-4.7,4.9-8.6,7.6-11.8C363.4,324,371.5,323,377.9,328.3z M306,357.8c-15.5,2-16.2,2.7-14.5,14.2
		C301.2,374.9,306.5,369.7,306,357.8z M321.5,336.9c-4.2-1.2-7.8-1-11.3,2.5c-4.8,4.6-1.1,8.7-0.3,13.1
		C322.2,349.3,323.1,348.1,321.5,336.9z M305.2,341.4c-11.6,0.2-14.4,3.8-11.8,15.5c2.9-0.3,5.9-0.4,8.8-0.9c4.2-0.8,5.2-3.1,4-7.1
		C305.6,346.7,305.6,344.2,305.2,341.4z M297.4,339.2c11.2,1.2,14.6-2.6,13.4-14.8C300.1,323.1,296.6,327.1,297.4,339.2z
		 M300.7,313.2c-13.4,0.1-14.1,0.8-14.5,15.2C298.4,326.8,300,325.2,300.7,313.2z M290.7,345.5c-11.3-0.9-13.8,2.1-13.1,14.8
		C289.5,360.7,290.9,359.1,290.7,345.5z M324.9,349.7c-3.1,1.6-5.6,3.3-8.3,4.2c-8,2.5-9.2,4.6-7.1,13
		C324.1,363.5,325.7,361.8,324.9,349.7z M315.8,307.6c-11,0.1-14.2,0.9-13.3,15.3C313.4,322.3,316.3,319,315.8,307.6z M329.5,328.4
		c13.4,1.4,15.2-0.3,13.7-12.5C332.6,314.7,328.2,318.7,329.5,328.4z M318.2,317.7c11.1,0.5,13.6-1.4,13.8-9.5
		c0.1-4.7-2.8-4-5.6-3.8C319.3,304.7,317.3,307.7,318.2,317.7z M294.4,329.1c-10.9,1.2-13.7,4.2-13,14.1
		C293.5,344.6,297.5,340.3,294.4,329.1z M313.4,333.8c9.9,2,14.6-2.8,13.5-13.8C315.4,319.6,312.4,322.8,313.4,333.8z M323.2,347.6
		c8.9,0.8,13.1-1.1,15-7.1c-2.1,0.6-4,1.2-5.7,1.7c0.3-3.8,0.5-7.3,0.7-11C324.8,332,324.4,332.8,323.2,347.6z M290.1,310.8
		c10.3,2.8,17.1-2.8,15.4-12.2C293.8,299.3,293.8,299.3,290.1,310.8z M268.7,334.3c10.5,1.7,14.2-0.6,14.9-10.9
		C269.6,322.1,269.3,322.3,268.7,334.3z M278.7,336.8c-13.2,0.1-15.4,2.2-12.9,11.7C275.8,349.8,279.4,346.5,278.7,336.8z
		 M319.2,293.1c-9.6-1.7-11.5,0.3-11.7,12.6C318.2,306.7,320.4,304.4,319.2,293.1z M272,317.2c-12.3-2.7-17.4-2.2-17.8,7
		C263.1,327.4,266.3,326.2,272,317.2z M312.6,368.1c-9.6,2.6-12.2,13-6.1,21.7c1.2-2.6,1.8-5.9,3.8-7.9
		C314.5,377.7,314,373.3,312.6,368.1z M273.4,320.3c4.3,1,8.1,2.9,10.5-1.3c1.9-3.3,3-7.1,4.8-11.4c-3.9,0.3-8.3-0.6-9.8,1.1
		C276.1,311.5,275.2,316,273.4,320.3z M279.8,305.3c3.6-0.2,7.1,0.5,9.5-0.9c2.2-1.2,3.3-4.6,4.8-7c-0.9-0.3-1.8-0.5-2.8-0.8
		c0.5-1.4,1-2.7,1.5-4.1C284.6,291.4,283.4,292.5,279.8,305.3z M310.3,291.5c-3-0.3-4.9-0.4-7-0.6c1.4-2.1,2.6-3.9,4-6
		c-8.1-2.1-11.3,0.9-11.8,10.8C300.4,296,305.6,297.9,310.3,291.5z M266.5,327.5c-2.9,0-5.4,0.3-7.8-0.1c-4.3-0.7-4.5,2.1-4.9,5
		c-0.6,3.6,1.8,3.6,4.3,3.5C264.2,335.7,265.4,334.6,266.5,327.5z M328.8,365.7c1.4-3.2,2.9-6.2,4.2-9.3c1.2-2.9,6.1-4.4,3.7-9
		C326.8,351.6,325.5,354.6,328.8,365.7z M264.6,313.6c11.6,4.4,10.2-5.6,13.1-11C271.6,303.9,267.8,307.1,264.6,313.6z M335.6,338.2
		c8,0,14.4-3.4,12.5-9.1c-1.7,0.8-3.5,2.3-5.1,2.1C336.1,330.2,334.6,331.5,335.6,338.2z M196.3,293c1.4,2.3,2.4,3.7,3.3,5.2
		c-0.3,0.2-0.6,0.5-0.9,0.7c-1.7-1.8-3.3-3.5-5.2-5.5c-0.9,2.6-1.7,5-2.1,6.2c2,1.1,3.3,1.5,4.3,2.3c1.4,1.1,2.6,2.5,4.4,4.4
		c0.5-2.9,0.4-4.7,1.1-6C204.2,294.5,204.1,294.2,196.3,293z M269.7,302.8c-6.3,1.6-11.6,3-17.3,4.4
		C261.3,312.8,261.9,312.6,269.7,302.8z M275.1,349.7c-2.1,0.3-3.7,0.5-5.4,0.7c2.1,6.8-2.2,1.3-3.6,1.9c0.7,2.8,1.3,5.5,1.9,8.3
		c0.2-0.5,0.5-1,0.7-1.5c1.8,0.2,3.5,0.4,5.8,0.7C274.7,356.6,274.9,353.3,275.1,349.7z M377,296.9c5.9,5.1,13.7,4.7,20.6,7.1
		C390.8,301.5,385.9,293.9,377,296.9z M266.6,295.5c5.3-1.4,9.7-2.5,14.9-3.8c-4.2-2.3-7.4-4.1-10.7-5.9
		C269.5,288.8,268.3,291.5,266.6,295.5z M278.8,301.8c0.6-3,1.1-5,1.6-7.2c-5.5,1.1-10.4,2.1-15.3,3.1c-0.1,0.4-0.1,0.8-0.2,1.2
		C269.3,299.9,273.7,300.8,278.8,301.8z M258,312c-5.3,2.4-10,4.6-15.8,7.2c3.6,1.5,6.5,2.7,9,3.7C253.7,318.9,255.6,315.9,258,312z
		 M317.9,377c2.7-4.7,5.1-9,8.1-14.3C315,369.6,315,369.6,317.9,377z M340.6,351.4c3-4.8,5.5-8.9,8.1-13
		C340,340.5,338.9,342.4,340.6,351.4z M370.2,280.3c4.4,7.8,8.1,9.1,12.6,4.8C378.4,283.4,374.3,281.8,370.2,280.3z M295.9,284.8
		c-4.9,1.3-9.3,2.5-14,3.7C289.1,291.7,293.2,290.7,295.9,284.8z M395.6,281.7c-2.4-2.1-4.6-4.1-7.3-6.5c0.3,2.6,0.5,4.5,0.7,6.4
		c-0.7,0.4-1.9,0.9-3,1.5c0.2,0.4,0.3,0.8,0.5,1.2C389.6,283.4,392.6,282.6,395.6,281.7z M258.2,337.3c-0.2,0.4-0.5,0.7-0.7,1.1
		c1.4,3.6,2.9,7.3,4.3,10.9c0.3,0,0.5,0.1,0.8,0.1c0.2-3.9,0.4-7.9,0.5-11.8c-0.4,0-0.9-0.1-1.3-0.1c-0.1,1.3-0.2,2.6-0.3,3.9
		c-0.5,0.3-0.9,0.6-1.4,0.9C259.5,340.6,258.9,338.9,258.2,337.3z"/>
	<path d="M313.1,218.7c0-2.8,0-5,0-7.5c2.1,0.4,4.3,0.8,7.1,1.2c1,4.7-0.6,9.4-5,13.9c3,0.9,5.5,1.7,8.2,2.5
		c0.2,2.9-0.5,4.4-4.5,3.5c-2.4-0.5-5.2,1.2-8.1,2c0.8,0.9,1.3,1.5,2.7,3.1c-7.9-2.3-14.8-1.7-21.5,0c0.4,1.5,1,3.8,1.7,6
		c-0.4,0.2-0.8,0.4-1.2,0.6c-1.6-3.2-3.2-6.4-5.3-10.5c-3.5,8.9,1,15.7,3.6,22.7c-0.4,0.1-0.8,0.3-1.2,0.4c-1.7-2.4-3.4-4.8-5.3-7.5
		c-1.7,1.5-3,2.6-4.7,4.2c1.4-2.5,2.6-4.4,3.7-6.3c-0.3-0.2-0.6-0.5-0.9-0.7c-0.7,0.4-1.4,0.9-2.7,1.8c-0.7-3.2-1.4-6.1-2-8.6
		c-1.5-0.6-3-1.3-5.1-2.1c-4,1.9-3.1,6.1-2.9,10c-0.2-4.9-2.4-10.1,3.3-13.8c0.9-0.6,1.2-3.3,0.7-4.7c-2.3-6.8-3.4-13.3,0.7-20.1
		c1-1.6-0.1-4.5,0.3-6.9c3.4,5.1,0.1,12.2,6.4,17.4c0.2-2.2,0.5-3.5,0.5-4.7c-0.4-7.7,7.3-13.7,14.5-10.8
		c6.7,2.7,13.8,5.4,14.9,14.1C311.2,218.1,311.7,218.2,313.1,218.7z M296,222.6c7,0.2,9.3-1.3,10-5.7c0.6-3.6-3.4-7.9-7.8-8.7
		c-6.9-1.2-11.3,0.4-12.2,4.8c-0.7,3.5-2.7,7.7,2.8,9.2C291,222.7,293.6,222.5,296,222.6z"/>
	<path d="M395.3,251.9c1-1.3,1.7-2.4,2.8-3.9c-2-0.7-3.6-1.2-5.4-1.8c1.2-1.2,2.2-2.4,3.3-3.5c-0.1-0.2-0.3-0.5-0.4-0.7
		c-2.8,1.1-5.6,2.2-9.1,3.6c2.7-2.4,4.9-4.4,7.7-7c-7-0.6-11.9,2.9-16.7,11.2c-0.4-0.3-0.7-0.5-1.1-0.8c3.9-5.2,7.8-10.4,11.7-15.5
		c-0.2-0.3-0.4-0.6-0.5-0.9c-4.4,2.9-8.8,5.8-13,8.5c0.3-6.8,4.4-10.9,11.4-10c5.1,0.6,10.4,1.3,15,3.4c4.5,2.1,8.3,5.9,12.3,9
		c1.4,1,2.5,2.3,4.3,4c-1.8,0.3-3.1,0.5-6,0.9c5.2,1.5,5.2,4,4.7,7.3c-0.2,1.7,1.4,3.9,2.7,5.5c2.4,3,1.3,4.7-1.4,6.3
		c1.4,3,2.8,6.1,4,8.5c-6.7-2.8-13.5-5.6-20.2-8.6c-1.2-0.5-2.2-1.7-3.2-2.7c-3.1-3.1,2.1-2.7,1.9-4.9
		C395.1,259.2,402.8,251.4,395.3,251.9z"/>
	<path d="M408.3,211.8c-3.7-0.9-7.8-1.9-12.7-3c2.5-2.2,4.1-3.5,6.3-5.5c-4.3-0.3-7.5-0.6-10.7-0.8c0.4-0.6,0.8-1.3,1.2-2.1
		c-1.1,0.1-2.1,0.1-3.4,0.2c2.7-5.2,3.3-5.1,7.4-0.4c3.4-0.9,6.7-1.8,10.3-2.8c-0.5,2.6-0.9,4.4-1.3,6.3c0.5,0.2,1,0.4,1.4,0.6
		c0.7-1.1,1.4-2.2,2-3.3c0.4-0.8,0.1-2.2,0.7-2.7c1.9-1.8,3.9-3.8,6.2-4.6c1.8-0.6,4.2,0.4,6.8,0.8c2.6-3.2,5.8-7,9.3-11.2
		c0.5,6.7,0.9,12.6,1.3,19.3c0.9,0.2,2.6,0.7,5.4,1.4c-3.1,1-5.3,1.6-7.6,2.4c-1-1.4-1.9-2.7-3.5-5c-1.3,9.3-9.3,5.4-13.7,8.4
		C412.4,210.6,410.3,211,408.3,211.8z"/>
	<path d="M287,477.5c0,0,0.2-0.2,0.2-0.2c-1.2,0.3-2.4,0.6-3,0.7c0.6-8-4.3-17.5,4.6-24c0,1.4,0,2.8,0,4.2c0.4,0.1,0.7,0.3,1.1,0.4
		c1.7-3,3.5-6,5.2-9c-0.4-0.2-0.7-0.4-1.1-0.7c-1.4,1.3-2.7,2.6-4.1,3.9c-1.9,0.7-3.8,1.4-5.6,2.1c-0.1-0.3-0.3-0.8-0.3-0.9
		c5.7-3.9,3.6-8.3,1.9-13.6c-1.2-3.7,0.4-8.2,0.7-12.7c6,6.8,7.8,16.8,17.9,19.7c1.9,6-3.3,8.1-6.9,10.9c-3.6,2.7-5.2,6-5.3,10.4
		c-0.1,1.8-0.9,3.7-1.9,5.2C289.7,475.5,288.2,476.4,287,477.5z"/>
	<path d="M285,508.6c-0.6,0-1.3-0.1-1.9-0.1c-0.9,0.1-1.7,0.2-2.6,0.3c-0.2-0.3-0.3-0.6-0.5-0.9c2.4-2,4.7-4.1,7.5-6.4
		c-4.9-3.9,1.4-5.6,1.6-8.6c0,0-0.2,0.2-0.2,0.2c4.1-3.8,8.2-7.7,12.9-12c-0.4,2-0.6,3.2-0.9,4.4c0.3,0.2,0.6,0.5,0.9,0.7
		c4.9-4,9.8-7.9,15.3-12.4c0.4,0.2,2,1,3.6,1.9c0.5-0.7,1.1-1.5,2-2.7c0.7,1.7,1.4,3.1,2,4.5c-3.1,2.4-6.3,4.8-9.3,7.3
		c-5.5,4.7-10.9,9.6-16.3,14.4c-1.7,1-3.4,2-5,3.1C291,504.4,288,506.5,285,508.6z"/>
	<path class="st0" d="M414.9,393.5c0.9-1.8,1.7-3.6,2.6-5.3c1.3-2.3,1-7,6.1-4.3c0.1,0.1,1.6-2.1,2.1-3.3c0.3-0.8,0.1-1.9,0.1-3.7
		c2.3,3.6,3.9,6.2,5.8,9.2c-1.5-0.2-3.2-0.5-4.9-0.7c1,5.4,2.1,10.9,3.2,16.4c-0.5,0.2-0.9,0.4-1.4,0.6c-1.5-1.2-3.1-2.3-4.3-3.3
		c-2.2,0.5-4.1,1-6.1,1.5c-0.1-0.4-0.3-0.8-0.4-1.2c1-1,2-1.9,3.1-2.9c-2.1-2.4-4-3.6-5.9-0.3c-0.3-0.4-0.6-0.8-0.9-1.2
		C414.3,394.5,414.6,394,414.9,393.5z"/>
	<path class="st0" d="M264.4,373c1.4-1,2.9-1.9,4.7-3.1c0-2.1,0-4.6,0-8c3.2,2.4,5.2,4,7.2,5.5c-0.1,0.3-0.2,0.6-0.3,0.9
		c-1.9-0.6-3.8-1.3-6.2-2c0.7,1.7,1.3,3.4,2,5.3c3.6-3,10.6-1.3,12,2.3c1,2.5,2.1,4.9,3.1,7.4c-0.5,1.2-1,2.4-1.5,3.7
		c-2.2,0.7-4.3,1.3-6.5,2c-0.2-2.4-0.4-4.8-0.6-7.3c1.3-0.7,2.9-1.6,4.5-2.4c-0.3-0.7-0.6-1.5-0.9-2.2c-3.7,1.4-7.5,2.8-11.2,4.2
		c-0.1-0.2-0.3-0.4-0.4-0.5c0.9-0.8,1.9-1.5,1.9-1.6C269.8,375.9,267.1,374.4,264.4,373z"/>
	<path d="M299.1,499.3c5.4-4.8,10.8-9.7,16.3-14.4c3-2.6,6.2-4.9,9.3-7.3c4.9-3.7,9.7-7.4,14.6-11.2c-0.6,0.9-1.1,2-1.9,2.8
		c-10.8,10-21.7,19.9-32.5,29.9c0,0,0.2-0.1,0.2-0.1C303.1,499.1,301.1,499.2,299.1,499.3z"/>
	<path class="st0" d="M203.3,347.3c0.8-1.8,2.1-3.5,2.1-5.3c0.1-3-0.7-6.1-1.2-9.1c0.4-0.1,0.8-0.3,1.3-0.4c0.7,1.7,1.4,3.5,2,5
		c0.4-0.7,0.9-1.9,1.7-2.7c1.6-1.4,3.4-2.5,0.8-4.6c0.6-0.4,1.2-0.7,1.8-1.1l-0.1-0.1c0.7,2.4,1.4,4.8,2,7.1c0,0,0.2-0.1,0.2-0.1
		c-2.1,5.1-4.3,10.2-6.6,15.9c1.7-0.1,2.1,0,2.3-0.2c1.6-0.7,3.1-1.6,4.7-2.2c0.1,0,1.4,2,1.1,2.3c-1,1.4-2.3,2.6-3.7,3.7
		c-2.1,1.7-4.3,3.2-6.9,5c2.1-4.4,4.7-8.7-1.4-11.7C203.5,348.3,203.4,347.8,203.3,347.3z"/>
	<path d="M259.4,224.6c0.6-3,1.6-5.9,1.7-8.9c0.4-8.6,3.7-15.5,10.5-20.8c0.8-0.6,1-2.3,1.2-3.6c0.5-3.4,0.8-6.8,1.1-10.2
		c0.6,0,1.1,0.1,1.7,0.1c0,5.4,0,10.8,0,17.3c-1-1.6-1.5-2.4-2.3-3.6c-3.3,6.9-6.6,13.4-9.5,20.1c-1.4,3-2.1,6.3-3.2,9.5
		C260.2,224.6,259.8,224.6,259.4,224.6z"/>
	<path d="M259.4,224.6c0.4,0,0.8,0,1.2,0c3.6-1.5,6.1-3.4,5.8-8.1c-0.1-2,1.6-4.1,2.8-7c-0.2,4.9-0.3,8.8-0.6,12.6
		c0,0.6-0.8,1.3-1.4,1.7c-3.3,2.3-6.8,9.8-5.8,13.8c-1.7-1.4-3-2.5-4.7-3.9c-0.5,3.5-0.9,6.5-1.3,9.7c0-5.4-0.2-10.6,0.2-15.7
		C255.6,226.6,258,225.6,259.4,224.6z"/>
	<path d="M331.6,382c0,0-0.2,0-0.2,0c3.1,4,6.2,8,9.3,12c0.5-0.3,1-0.6,1.5-0.9c-0.6-2.6-1.1-5.2-1.7-7.8c0.4-0.1,0.9-0.2,1.3-0.3
		c0.6,2.1,1.3,4.2,2.2,7.2c1.6-1.8,2.9-3.2,3.6-4c0.8,0.1,1.7,0.2,2.6,0.3c1,0.1,1.9,0.2,2.9,0.3c-0.4,0.7-0.7,1.7-1.3,2.2
		c-3.3,2.3-5.7,6.5-10.9,4.4c-0.9-0.4-2.3,0.6-3.1,0.8c-2.6-7.8-8.7-13.1-13.8-19.1c0,0-0.1,0.1-0.1,0.1
		C326.5,378.7,329,380.4,331.6,382z"/>
	<path d="M395,348.3c0,5.9,0,11.7,0,17.8c-1.8-0.5-3.2-1-4.8-1.5c-0.2,1.1-0.3,2.2-0.7,4.2c-0.5-4.8-1.9-8.7-1.1-12.3
		c0.7-3.3,3.7-6,5.7-9C394.3,347.8,394.6,348,395,348.3z"/>
	<path d="M162.8,363.6c2-2.5,4-5,5.8-7.6c0.9-1.2,1.4-2.7,2.2-4.2c4.4,1.2,9.7,2.3,14.7,4.3c2.3,0.9,3.9,3.4,5.3,6
		c-3.6-4.9-8.9-5.7-14.1-5.1c-5.1,0.6-10.7,1.9-11.8,9c-1-1.1-1.6-1.8-2.3-2.5C162.7,363.5,162.8,363.6,162.8,363.6z"/>
	<path d="M414.2,349c-3.5,0.5-5.9,0.8-8.4,1.1c-0.1-0.3-0.2-0.7-0.3-1c0.8-0.6,1.6-1.2,2.5-1.9c-0.1-0.3-0.2-0.5-0.3-0.8
		c-2.7,0.7-5.4,1.5-9.8,2.6c1.5-2.9,2.7-5,4.3-8c0.5,1.8,0.7,2.5,1.2,4.1c1.9-2.4,3.4-4.4,5-6.4c0.3,0.2,0.6,0.3,1,0.5
		c-0.3,1.8-0.6,3.5-0.9,5.3c0.4,0.3,0.8,0.6,1.2,0.9c1.5-1.8,2.9-3.6,4.5-5.5C418.9,342.7,411.1,345.8,414.2,349z"/>
	<path class="st0" d="M166.8,268.1c3.1-3.4,6.1-7,9.3-10.3c1-1.1,2.5-1.7,3.8-2.5c-3.4,4.9-6.8,9.9-10.2,14.8
		c-3.3,4.9-6.5,9.8-10.3,15.4c-0.2-6.1,2.3-10.4,4.9-14.7C165.2,269.9,166,269,166.8,268.1z"/>
	<path class="st0" d="M162.4,375c1.3-2.2,2.4-2.3,4.2-0.3c1.6,1.8,3,4,4.9,5.5c1.8,1.4,4.1,2.1,6.2,3.1c-1.1,2.3-3,2.7-9.8,1.2
		C163.5,382.7,163.1,378.8,162.4,375z"/>
	<path d="M339.2,223.9c4.5-3.3,10.8,0.1,15.2-3.9c0.4,4-0.7,4.8-4,5c-2.2,0.1-4.4,1.8-6.6,2.8c-0.9,0.4-2,0.7-2.8,1.2
		c-0.9,0.5-1.6,1.2-2.1,1.5c-2.1-1.7-3.8-3.2-5.4-4.5c2.1-0.8,4-1.5,5.8-2.2L339.2,223.9z"/>
	<path d="M234.8,273.8c-1.6-0.4-3.6-0.8-4.8-1.1c0.4-3.1,0.1-6.5,1.4-8.9c1.5-2.8,4.8-3.7,8.4-1.7
		C238.1,266,236.6,269.6,234.8,273.8z"/>
	<path class="st0" d="M304.9,499.1c10.8-10,21.7-19.9,32.5-29.9c0.8-0.8,1.3-1.9,1.9-2.8c0.9-0.5,1.8-0.9,2.7-1.4
		c-1.2,1.8-2.1,4-3.6,5.5c-8.5,8.6-17.1,17.2-25.9,25.5C310.7,497.8,307.5,498.1,304.9,499.1z"/>
	<path d="M183,197.9c1.3-1.7,2.6-3.4,3.9-5.1c5.6-0.1,11.2-0.4,16.8-0.3c0.6,0,1.2,1.9,1.8,2.9c0,0,0,0,0,0c-0.8,1-1.6,2.1-1.9,2.3
		c-3.9,0-7.5,0-11.1,0c2.5-0.8,5-1.5,7.4-2.3c-5.6-2.8-11-3.2-15.6,2.3C184.2,198,183.5,197.9,183,197.9z"/>
	<path d="M309.3,187c-3.8,0.3-7.6,0.6-11,0.8c-1.4-2.1-2.7-4-4.3-6.5c4.5-1,8.8-1.9,13.2-2.8c0.1,0.2,0.1,0.4,0.2,0.6
		c-2.5,1.7-5,3.5-8.7,6c4.5,0,7.5,0,10.5,0C309.1,185.7,309.2,186.3,309.3,187z"/>
	<path d="M99.8,619.9c3.5,4.3,0.8,16.2-4.3,19.7C94.8,632.5,97.8,626.7,99.8,619.9z"/>
	<path d="M359.7,363.2c-2.4,2.8-4.1,4.8-5.7,6.6c-2.7-4.7-0.2-8.5,7-12c0,6.7,0,12.9,0,19.1c-0.2,0-0.4,0-0.7,0
		C360.2,372.8,360,368.7,359.7,363.2z"/>
	<path class="st0" d="M422.9,254.5c1.6-0.3,3.4-0.3,4.9-0.9c3-1.2,5.9-2.8,8.7-4.2c0.7,3.6-1.9,6.6-8.1,7.8c2.2,1.5,3.7,2.6,5.3,3.6
		c-0.1,0.3-0.1,0.6-0.2,0.8c-1.9-0.4-3.8-0.9-5.7-1.3C426.1,258.4,424.5,256.4,422.9,254.5z"/>
	<path d="M418,374.1c0,0,0-0.2,0-0.2c-1-0.1-1.9-0.2-3-0.3c2.7-3.8,5-7.1,7.3-10.3c2.3-3.2,5.3-3.3,7.3-0.1
		c-0.9-0.4-1.5-0.7-2.2-0.9C427.1,368.4,420.9,369.9,418,374.1z"/>
	<path class="st0" d="M154.6,308.6c0.4-0.4,0.7-1,1.1-1.2c0.9-0.5,1.9-0.8,2.9-1.2c0,0,0.1,0.2,0.1,0.2l0.3-0.1
		c0,0.4,0.1,0.8,0.1,1.2c2.1,0.3,4.1,0.6,6.2,0.9c1.9,2.8,1,5.6-1.5,6.6c-1.6,0.6-4.3-1-6.1-2.2C156.2,311.9,155.5,310,154.6,308.6
		C154.5,308.5,154.6,308.6,154.6,308.6z"/>
	<path d="M205.5,195.4c1.4,0.4,2.9,0.9,4.3,1.2c2.7,0.6,5.4,1,8,2.7c-0.8-0.1-1.6-0.1-3-0.2c1.2,1.4,2.2,2.4,4.2,4.7
		c-4.7-0.4-8-0.6-11.7-0.9C206.7,200.3,206.1,197.8,205.5,195.4C205.5,195.3,205.5,195.4,205.5,195.4z"/>
	<path class="st0" d="M183,197.9c0.5-0.1,1.2,0.1,1.4-0.2c4.6-5.4,9.9-5.1,15.6-2.3c-2.5,0.7-5,1.5-7.4,2.3
		c-1.8,0.8-3.7,1.5-5.5,2.3c-1.6,1.5-3.2,3-4.7,4.5c-0.4-0.2-0.7-0.4-1.1-0.6C181.8,201.9,182.4,199.9,183,197.9z"/>
	<path d="M277.8,183c3.4-0.4,5.6-1.1,7.8-0.9c1.6,0.1,3.7,1.1,4.4,2.3c0.5,1-0.4,3.6-1.5,4.3c-1.5,1-3.7,1-5.7,1.1
		c-1,0.1-2-0.5-4.1-1.1c2.9-1,5.1-1.8,8.6-3C283.9,184.9,281.5,184.1,277.8,183z"/>
	<path d="M90.6,290.5c-5.8-2.1-11.5-4.3-17.7-6.5C81.4,282.2,87.6,284.2,90.6,290.5z"/>
	<path d="M331.3,645.2c0.7-0.8,1.4-1.6,2.1-2.4c1.3,0.1,2.7,0.2,4.9,0.3c0.3,1.1,0.8,3.1,1.3,5.1c-0.4,0.5-0.7,1-1.1,1.5
		c-3.4-0.4-7-1.3-9.9,2.5C329.5,649.9,330.4,647.6,331.3,645.2z"/>
	<path d="M423.1,312.6c1.4,2.9,3,6.2,4.5,9.5c-0.2,0.3-0.3,0.6-0.5,0.9c-4.1-2.5-8.3-4.9-12.4-7.4c0.1-0.5,0.2-1,0.3-1.5
		C418.9,316.4,422,316.1,423.1,312.6z"/>
	<path class="st0" d="M364.8,199.1c-0.7-1.8-1.5-3.6-2.2-5.5c0.4-0.2,0.7-0.3,1.1-0.5c0.7,0.5,1.5,0.9,2.1,1.5
		c1.9,1.9,3.5,3.1,5.4-0.3c0.4-0.6,1.7-5.7,4.7-1.5c-0.2,3-1.4,4.8-4.9,4.8C368.9,197.7,366.8,198.6,364.8,199.1z"/>
	<path d="M274.3,171.1c4-7.5,8.3-10.4,12-9.2c-2.9,3.3-6.1,6.9-9.6,10.9C276.4,172.6,275.5,171.9,274.3,171.1z"/>
	<path d="M174.5,330.9c6-6.3,11.9-8.2,19.5-4.9c-3.9,0.6-7.3,0.8-10.4,1.9C180.8,328.8,178.9,332.2,174.5,330.9z"/>
	<path d="M337.9,443.8c-7-5-7.8-12.4-7.7-20.3C332.7,430.2,335.3,436.9,337.9,443.8z"/>
	<path d="M277.9,396.9c4.8,7.5,2.3,14.4-2,21.1c1.4-4.8,2.8-9.5,4.2-14.3c-0.4-0.2-0.7-0.3-1.1-0.5c-0.7,1.2-1.3,2.5-2,3.7
		c0,0,0.1,0,0.1,0c-0.1-1.4,0.3-3.8-0.2-4c-3.1-1.2-2.2-3.9-2.8-6.1c0,0-0.1,0.1-0.1,0.1c1.2,1.2,2.4,2.5,3.7,3.8
		c0.2-1.4,0.3-2.6,0.5-3.8L277.9,396.9z"/>
	<path d="M247,226.9c-1-7.6-2-15.6-2.8-22.4C248,210.4,249.8,223.5,247,226.9z"/>
	<path d="M203,289c-1.5-0.3-3-0.6-4.5-0.9c2.4-3.7,2.8-7.7,2-11.8c-0.3-1.5-1.3-2.9-2-4.2c0.2,0,1.2-0.3,3-0.8
		C202,277.2,202.5,283.1,203,289z"/>
	<path d="M244.6,545.1c-1.6-3.9-2.9-7.3-4.3-10.7c0.4-0.1,0.7-0.3,1.1-0.4c2.8,5.8,5.6,11.5,8.5,17.4c-2.6-1.2-4.9-2.2-7.2-3.3
		C243.1,547.4,244,546,244.6,545.1z"/>
	<path d="M227.6,270.7c-2,1-3.7,1.8-6,2.9c0.8-1.8,1.3-2.7,1.9-4.2c-3.7,1.3-6.7,2.3-9.8,3.3c3.3-2.5,6.3-4.8,9.6-7.3
		C224,266.3,225.6,268.1,227.6,270.7z"/>
	<path class="st0" d="M380.7,347.4c-0.4-3.7-0.9-7.4-1.3-11.2c1.6,0,2.9,0,4.5,0c0,2.8,0,5.5,0,8.1
		C382.8,345.3,381.8,346.3,380.7,347.4z"/>
	<path d="M376.6,355.3c3.4-0.8,6.9,0,8,3.2c1,2.9,0.5,6.5-0.1,9.7c-0.2,0.9-2.7,1.4-4.7,1.1c1.2-0.6,2.5-1.2,4-1.9
		c-1.3-4.7-0.9-10.2-7.1-12.1L376.6,355.3z"/>
	<path d="M253.7,208c-3.3-7.8,3.9-10,6.3-14.5c0.4,0.2,0.7,0.4,1.1,0.6C258.8,198.5,256.4,202.9,253.7,208z"/>
	<path d="M244,291.1C244,291.1,244,291.1,244,291.1c1.9-0.2,3.8-0.4,5.5-0.6c-4.4,3.3-8.9,6.8-13.5,10.3c-0.3-0.3-0.7-0.7-1-1
		C237.9,296.9,241,294,244,291.1z"/>
	<path d="M239.7,244.7c1-8.8,3.4-17.5-0.5-26.3C243.9,227.1,242.3,235.9,239.7,244.7z"/>
	<path d="M279,386.9c2.2-0.7,4.3-1.3,6.5-2c1.1,0.5,2.1,0.9,3.6,1.6c-3.2,0.8-4.3,5.9-9.3,3.9C279.6,389.2,279.3,388.1,279,386.9z"
		/>
	<path d="M359.6,434.1c-2.8-5-5.6-9.9-8.4-14.9c0.4-0.2,0.9-0.5,1.3-0.7c3,4.8,6.1,9.6,9.1,14.4
		C360.9,433.4,360.2,433.8,359.6,434.1z"/>
	<path d="M417.7,349.6c0.9-3.9,1.5-6.8,2.2-9.9c1.8,2.1,3.4,5.1,2,8.6C421.6,349.2,419,349.2,417.7,349.6z"/>
	<path d="M370.6,417.2c2,2.7,4,5.3,6.2,8.3c-1.3,0.8-2.3,1.5-3.9,2.5c-1.3-3.7-2.4-6.9-3.5-10.1
		C369.8,417.6,370.2,417.4,370.6,417.2z"/>
	<path d="M254.5,575c2.4-2.2,4.7-4.4,7.1-6.5c0.1-0.1,0.9,0.6,1.4,1c-1.3,1.3-2.5,2.6-3.8,3.9c-3.4,3.2-6.9,6.4-10.3,9.6
		c0,0,0.1,0.1,0.1,0.1C250.9,580.4,252.7,577.7,254.5,575z"/>
	<path d="M186.8,337.2c-0.9-1.7-1.8-3.3-2.6-4.9c-1.4,0.6-2.7,1-3.9,1.5c-0.2-0.6-0.4-1.2-0.5-1.9c2.6-0.5,5.3-1.3,7.9-1.3
		c0.7,0,1.2,3,1.9,4.6C188.6,335.9,187.7,336.6,186.8,337.2z"/>
	<path d="M264.6,195.5c2.3-5.5,4.9-11.4,7.1-16.6C270.6,184.7,271.4,192.1,264.6,195.5z"/>
	<path d="M368.2,401.3c-5.1,0.3-7.4-1.5-9.3-6.8C361.7,396.5,364.4,398.5,368.2,401.3z"/>
	<path d="M376.8,355.2c-1.6-0.5-3.3-0.7-4.6-1.5c-1-0.6-1.5-1.9-2.3-3c1.1-0.2,2.4-0.7,3.4-0.4c1.7,0.5,3.2,1.4,5.1,2.4
		c-0.5,0.8-1.1,1.7-1.7,2.6C376.6,355.3,376.8,355.2,376.8,355.2z"/>
	<path d="M361.4,648.3c-3.4,0-6.6,0-9.5,0C356.4,643.8,358.4,643.8,361.4,648.3z"/>
	<path d="M385.7,370.3c0.1,2.8,0.2,5.2,0.4,8.3c-2.4-2.3-4.2-4.1-7-6.7C381.7,371.2,383.4,370.8,385.7,370.3z"/>
	<path d="M325.4,226.9c3-2.9,5.4-1.9,10.7,5.2C332.3,230.3,328.9,228.6,325.4,226.9z"/>
	<path d="M212.3,228.7c3.5-6.3,9.3-8.2,14.7-5.1C220.7,221.4,216.8,225.7,212.3,228.7z"/>
	<path d="M339.3,223.8c-3.4,0-6.7,0-11,0c1.3-1.7,2.3-3,3.9-5c0.2,1.5,0.2,2.3,0.4,3.5c1.3-0.9,2.4-1.7,3.8-2.7
		c0.9,1.4,1.8,2.9,2.8,4.3C339.2,223.9,339.3,223.8,339.3,223.8z"/>
	<path d="M231.2,653.9c-1.6,3.4-3.1,6.8-4.7,10.3c-0.6-0.3-1.2-0.6-1.9-0.9c1.6-3.4,3.3-6.7,4.9-10.1
		C230.1,653.4,230.6,653.6,231.2,653.9z"/>
	<path d="M338.5,649.8c0.4-0.5,0.7-1,1.1-1.5c2.8,0.5,5.5,0.9,8.3,1.4C344.5,652.3,341.4,652.9,338.5,649.8z"/>
	<path d="M299.4,257.2c-0.9,0.8-1.8,1.6-3,2.7c1.8-0.2,3.2-0.3,4.5-0.4c0,0.4,0.1,0.7,0.1,1.1c-3.3,0.2-6.7,0.5-11.3,0.8
		c3.4-2.1,6.1-3.8,8.7-5.4C298.7,256.4,299,256.8,299.4,257.2z"/>
	<path d="M329.4,412.4c4,2.2,4.5,5.1,0.6,9.4C329.8,418.2,329.6,415.4,329.4,412.4z"/>
	<path d="M242.6,210.3c-2.2-4.8-4.4-9.6-6.6-14.4c0.6-0.2,1.1-0.5,1.7-0.7c2,4.9,4.1,9.9,6.1,14.8
		C243.3,210.1,242.9,210.2,242.6,210.3z"/>
	<path class="st0" d="M290,453c1.4-1.3,2.7-2.6,4.1-3.9c0.4,0.2,0.7,0.4,1.1,0.7c-1.7,3-3.5,6-5.2,9c-0.4-0.1-0.7-0.3-1.1-0.4
		c0-1.4,0-2.8,0-4.2C289.2,453.7,289.6,453.3,290,453z"/>
	<path d="M200.6,230c-2,1.6-3.3,3.4-4.2,3.2c-1.4-0.2-2.7-1.7-4-2.7c0.3-0.5,0.7-0.9,1-1.4C195.3,229.4,197.3,229.6,200.6,230z"/>
	<path d="M238,599.1c1.4-6.9,5.7-11.8,11-16c0,0-0.1-0.1-0.1-0.1c-3.7,5.3-7.3,10.7-11,16L238,599.1z"/>
	<path class="st1" d="M432.8,308.6c-0.2-1.1-0.4-2.1-0.6-3.2c1.9,0.1,5.4-1.2,5.4,4C435.5,309.1,433.9,308.8,432.8,308.6z"/>
	<path d="M159.6,334.7c1.9,0.6,5.1,0.8,5.4,1.8c0.8,2.7,0,5.4-3.7,2.5c-0.9-0.7-1.4-2-2.1-3C159.3,335.6,159.5,335.1,159.6,334.7z"
		/>
	<path class="st0" d="M408.6,636.2c2.6-0.7,4-1,5.3-1.4c-0.4-0.3-0.8-0.6-1.2-0.9c0.8-1.2,1.8-3.4,2.5-3.3c2.8,0.3,5.5,1.3,8.2,2.3
		c0.3,0.1-0.1,2.1-0.1,3.3c-1.2-0.2-2.5-0.2-3.7-0.7c-1.1-0.4-1.9-1.3-2.7-1.8c-0.6,3.2-1,5.9-1.7,9.7
		C413,640.9,411.2,639,408.6,636.2z"/>
	<path class="st0" d="M400.5,622.6c-6,1-12,2.1-18,3.1c-0.1-0.3-0.1-0.6-0.2-0.9c9-1.9,18-3.9,27.1-5.8c0.1,0.2,0.1,0.5,0.2,0.7
		c-3.1,1-6.1,2-9.2,3C400.4,622.7,400.5,622.6,400.5,622.6z"/>
	<path class="st0" d="M400.4,622.7c6.4-1.1,12.8-2.3,19.2-3.4c0.1,0.2,0.1,0.5,0.2,0.7c-8.5,2.1-17,4.2-25.5,6.4
		c-0.1-0.3-0.2-0.6-0.2-0.9c2.2-1,4.3-1.9,6.5-2.9C400.5,622.6,400.4,622.7,400.4,622.7z"/>
	<path class="st0" d="M418.8,612.8c-0.2,0.2-0.4,0.6-0.6,0.7c-7.3,1.9-14.6,3.7-22.2,4.5c7.5-2.1,15.1-4.2,22.6-6.3
		C418.6,612,418.7,612.4,418.8,612.8z"/>
	<path class="st0" d="M160.5,641.6c1.6-0.2,3.7,0.2,4.8-0.6c4.3-3.1,9.3-1.9,13.9-2.8c1-0.2,2.6,0.7,3.3,1.6c0.3,0.4-0.7,2.1-1.3,3
		c-4.7,7.4-11.2,9.4-19.4,6.6c-0.6-0.2-1.3-0.3-2-0.3c-4.9-0.1-9.8-0.2-14.7-0.3c-0.1-0.7-0.2-1.5-0.4-2.2c3.1-1.3,6.3-2.7,10.5-4.5
		c-3.4,0.6-5.6,1-7.8,1.4c1.4-8.3,14.7-13.8,25.2-10.1c-4.4,2.2-8.5,4.3-12.6,6.4C160.2,640.4,160.4,641,160.5,641.6z"/>
	<path class="st0" d="M505.6,266.5c-4.5,0.9-9.1,1.3-13.4,2.7c-6.1,2-12.1,4.5-17.9,7.2c-2.3,1.1-4.1,3.4-5.8,5.4
		c-3.9,4.6-4.8,10.1-2.5,13.9c1.9,3.2,8.1,5.3,13.4,5c-3.6,1.4-7.3,2.8-10.1,3.9c-1.2-1.8-2.3-4.3-4-6.2c-4.1-4.7-4.1-12.1,0.3-17.9
		c7.4-9.8,16.9-15.4,29.4-15c3.5,0.1,7,0,10.5,0C505.5,265.8,505.5,266.1,505.6,266.5z"/>
	<path class="st0" d="M267.5,523.6c3-2.7,5.7-6,9.1-8c8-4.7,16-9.7,24.6-12.9c15.5-5.7,30.4-12.3,44.6-21c-0.7,0.8-1.2,1.8-2.1,2.3
		c-10.2,5.8-19.5,13.1-31.3,16.3c-19.2,5.1-31.8,12.6-43.9,24.5C268.3,524.4,267.9,524,267.5,523.6z"/>
	<path class="st0" d="M259.5,548.1c0.9-5.5,1.9-11.1,2.8-16.6c0.5,0.1,0.9,0.1,1.4,0.2c-1,4.5-1.9,9-2.9,13.5
		c15.1-15.4,33.7-24.1,52.5-32.5c-6,3.4-12.1,6.7-18,10.1c-6.2,3.6-12.6,6.8-18.3,11.1c-5.6,4.3-10.5,9.6-15.6,14.5
		C260.7,548.3,260.1,548.2,259.5,548.1z"/>
	<path class="st0" d="M290.7,553.4c3.5-2.1,6.7-5.1,10.5-6.3c10.5-3.4,21.2-6.5,32-8.8c7.8-1.7,15.7-2.9,22.8-9.6
		c-3.2,5.2-7.2,7.7-13.9,9.2c-8.1,1.8-16.3,3-24.2,5.2c-7,2-13.7,5-20.4,7.9c-2.1,0.9-3.8,2.8-5.7,4.2
		C291.5,554.6,291.1,554,290.7,553.4z"/>
	<path class="st0" d="M330,527.9c-12,2.7-25.1,0.4-34.6,10.1C301.8,528.8,320.7,523.3,330,527.9z"/>
	<path class="st0" d="M266.7,591.3c3.8-9.5,7.3-19.1,11.7-28.3c1-2,4.9-2.7,7.9-4.1c0.1,1.5,0.3,2,0.2,2c-6.5,3.6-9.4,9.7-11.8,16.4
		c-1.8,5.1-5,9.7-7.5,14.5C267,591.7,266.9,591.5,266.7,591.3z"/>
	<path class="st0" d="M340.7,515.5c-13.4,4.1-26.7,8.2-40.1,12.3c-0.2-0.7-0.4-1.5-0.7-2.2c13.5-3.7,26.9-7.5,40.4-11.2
		C340.5,514.7,340.6,515.1,340.7,515.5z"/>
	<path class="st0" d="M289.1,492.9c-0.2,3.1-6.6,4.8-1.6,8.6c-2.7,2.4-5.1,4.4-7.5,6.4c0.2,0.3,0.3,0.6,0.5,0.9
		c0.9-0.1,1.7-0.2,2.6-0.3c-2.3,1.9-4.7,3.9-7.8,6.5c-0.3-2.2-1-3.8-0.5-4.4C279.4,504.6,284.3,498.8,289.1,492.9z"/>
	<path class="st0" d="M370.4,445.4c2.1,11-6.4,25.3-19.2,31.4C360.4,467.2,369,458.5,370.4,445.4z"/>
	<path class="st0" d="M273.4,624.7c-7,3.4-23.1-3.1-33.3-13.1C250.6,617,260.5,623.8,273.4,624.7z"/>
	<path class="st0" d="M299.7,579.7c4.8-9.8,13.1-16,21.9-21.7c2.7-1.8,5.8-2.8,8.9-3.7c-3.3,2.5-6.6,5.1-10,7.6
		c-0.7,0.4-1.4,0.7-2.1,1.1c-1.9,1.2-4.1,2-5.6,3.5C308.3,570.7,304.1,575.2,299.7,579.7z"/>
	<path class="st0" d="M237.9,599c3.7-5.3,7.3-10.7,11-16c3.4-3.2,6.9-6.4,10.3-9.6c1.3-1.2,2.5-2.6,3.8-3.9
		c-2.3,3.2-4.4,6.5-6.8,9.4c-6,7.2-12.3,14.3-18,21C238.3,600.4,238.1,599.7,237.9,599z"/>
	<path class="st0" d="M328.4,583.8c10.7-7.9,22.4-10.3,35.1-13.2c-2.8,2.1-4.7,3.5-6.1,4.6c-1.8-0.3-3.5-1.1-4.8-0.6
		C344.9,577.4,337.3,580.4,328.4,583.8z"/>
	<path d="M299.7,579.7c4.3-4.4,8.6-9,13-13.3c1.6-1.5,3.7-2.4,5.6-3.5c-1.8,2.2-3.6,4.4-5.5,6.6c-4.3,4.2-8.6,8.4-12.8,12.5
		c-0.4-0.1-0.8-0.2-1.1-0.4C299.2,581,299.5,580.3,299.7,579.7z"/>
	<path class="st0" d="M340.4,539.4c3.2,8.4,3.2,8.5,0.9,10.3c-0.5-2.7-1.1-5.6-1.7-9c-8.9,2.2-17.2,4.2-25.5,6.2
		c-0.1-0.4-0.2-0.8-0.3-1.2C322.7,543.6,331.6,541.5,340.4,539.4z"/>
	<path class="st0" d="M298.9,581.6c0.4,0.1,0.8,0.2,1.1,0.4c-0.8,2.1-1.4,4.3-2.4,6.3c-3.8,7.2-7.7,14.3-12.3,22.8
		c0.2-2.4,0.3-3.3,0.3-4.3c0,0-0.2,0.4-0.2,0.4c3.8-6.8,7.6-13.5,11.3-20.4c0.4-0.7,0.2-1.8,0.2-2.8
		C297.6,583.2,298.3,582.4,298.9,581.6z"/>
	<path class="st0" d="M295.8,613.9c-1.4,2.5-2.7,5.1-4.5,7.3c-0.5,0.6-2.8-0.2-4.3-0.4c0.3-1.2,0.3-2.8,1.1-3.7
		c1.6-1.8,3.6-3.3,5.5-4.9C294.2,612.8,295,613.3,295.8,613.9z"/>
	<path class="st0" d="M326.4,505.2c10.9-5.4,21.8-10.8,32.7-16.1c0.2,0.3,0.3,0.7,0.5,1c-10.8,5.4-21.5,10.9-32.3,16.3
		C327,506,326.7,505.6,326.4,505.2z"/>
	<path class="st0" d="M316,601.1c7.8-9.8,22.5-13.1,27.1-6c-4.7-0.6-9.8-2.4-14.2-1.3C324.1,594.8,320.1,598.6,316,601.1z"/>
	<path class="st0" d="M312.9,569.4c1.8-2.2,3.6-4.4,5.5-6.6c0.7-0.4,1.4-0.7,2.1-1.1c5.6-2.8,11.3-5.5,16.9-8.3
		c0.5-0.3,1.2-0.3,1.8-0.5C330.4,558.5,321.7,564,312.9,569.4z"/>
	<path class="st0" d="M462.7,260.2c-1.3,2.1-2.5,4.2-3.8,6.3c-5.2-1.6-3.8-4.9-3.4-8.1C457.8,259,459.8,259.5,462.7,260.2z"/>
	<path class="st0" d="M509,320c-1.4,2.1-2.6,4.1-4,6.2c-4.6-1.6-4.1-4.7-2.9-8C504.2,318.7,506.3,319.3,509,320z"/>
	<path class="st0" d="M241.7,609.7c6.5-4.2,13.4-8.6,19.6-12.6C260.2,601.7,244.3,611.6,241.7,609.7z"/>
	<path class="st0" d="M296.9,613.3c1.4,1.3,2.7,2.5,4.1,3.8c0.3-0.3,0.6-0.7,0.9-1c-2.2-1.9-4.3-3.8-6.5-5.8
		c0.3-0.3,0.5-0.6,0.8-0.9c2,1.6,4.8,2.8,5.8,4.9c0.9,1.9-0.2,4.7-0.4,7.1c-0.6,0-1.3,0-1.9,0.1c-1.2-2.5-2.5-4.9-3.7-7.4
		C296.3,613.8,296.6,613.6,296.9,613.3z"/>
	<path d="M296.9,584c-0.1,0.9,0.2,2-0.2,2.8c-3.7,6.8-7.5,13.6-11.3,20.4c0.7-2,1.4-4,2.2-5.9c1.4-3.6,2.9-7.2,4.4-10.8
		C293.7,588.3,295.3,586.1,296.9,584z"/>
	<path class="st0" d="M299.1,499.3c2-0.1,4-0.2,6-0.3c-6.7,3.2-13.4,6.4-20.2,9.6c3-2.1,6.1-4.2,9.1-6.2
		C295.7,501.3,297.4,500.3,299.1,499.3z"/>
	<path class="st0" d="M305,601.3c-4.7,3.5-9.4,7.1-14,10.6c-0.3-0.3-0.5-0.6-0.8-1c4.5-3.7,9-7.4,13.5-11
		C304.1,600.4,304.5,600.8,305,601.3z"/>
	<path class="st0" d="M353.7,612.7c-2.1,3.2-3.5,5.3-5.6,8.5c1-8.6,1.8-15.9,2.6-23.2c0.4,0,0.7,0.1,1.1,0.1
		c-0.8,5.3-1.5,10.6-2.4,16.6C351,614,351.8,613.6,353.7,612.7z"/>
	<path class="st0" d="M292,590.4c-1.5,3.6-2.9,7.2-4.4,10.8c-0.8,2-1.5,4-2.2,5.9c0,0,0.2-0.4,0.2-0.4c-0.9,1.3-1.9,2.7-2.8,4
		c-0.4-0.2-0.8-0.4-1.2-0.5C285.1,603.7,288.6,597.1,292,590.4z"/>
	<path class="st0" d="M324,613.5c-6.2,2.8-12.4,5.6-18.7,8.5c-0.2-0.4-0.3-0.8-0.5-1.2c6.2-2.8,12.4-5.6,18.5-8.4
		C323.6,612.8,323.8,613.1,324,613.5z"/>
	<path class="st0" d="M483.8,309.2c-1.5,2.2-2.8,4.8-4.7,6.5c-0.7,0.6-3.2-0.8-4.9-1.3c3.3-2.2,5.9-4,8.6-5.7
		C483,308.8,483.4,309,483.8,309.2z"/>
	<path class="st0" d="M206,625.3c6,0.9,12.1,1.9,18.1,2.8c-0.1,0.5-0.2,1.1-0.2,1.6c-5.9-1.1-11.8-2.3-17.8-3.4
		C206.1,625.9,206.1,625.6,206,625.3z"/>
	<path class="st0" d="M463.5,349.1c-1,2-2,3.9-3.2,5.8c0,0.1-1.9-0.8-1.8-0.8c0.7-2.1,1.6-4.1,2.4-6.2
		C461.8,348.4,462.7,348.8,463.5,349.1z"/>
	<path class="st0" d="M166.8,268.1c-0.8,0.9-1.7,1.8-2.5,2.7c-0.2-6.6,1.3-12.5,6-17.4c1.6-1.7,3.5-3,5-5.1
		c-1.6,0.9-3.2,1.8-6.3,3.5c4.3-10.2,8.1-19.1,11.8-28c0.7,0.3,1.2,0.4,1.2,0.6c0.8,6.6,2.1,13.2,2.2,19.9c0,2.3-2.7,4.7-4.3,6.8
		C175.6,256.8,171.2,262.4,166.8,268.1z"/>
	<path class="st0" d="M173.5,216.4c1-1.6,2-3.2,3.4-5.5c0.2,13.6-7,23.2-12.8,33.4c0.7-2,1.4-3.9,2.1-5.9c0.7-2,1.3-4,2-6.1
		C169.9,226.9,171.7,221.7,173.5,216.4z"/>
	<path class="st0" d="M164.8,230.6c-2.3,11-4.6,22-7,33c-0.6-0.1-1.3-0.2-1.9-0.3c0.4-5.2-0.1-10.7,1.4-15.7
		c1.7-5.9,5-11.3,7.6-16.9C164.9,230.7,164.8,230.6,164.8,230.6z"/>
	<path class="st0" d="M146.2,267.4c-0.1-12.4,4.4-23,12.1-32.3C154.2,245.9,150.2,256.6,146.2,267.4z"/>
	<path class="st0" d="M148.7,279.2c0.7-7.6-1.1-15.7,5.3-23.4c-0.1,6,0.7,10.7-2.9,15C149.3,272.9,149.4,276.4,148.7,279.2z"/>
	<path class="st0" d="M173.5,216.4c-1.8,5.3-3.5,10.6-5.3,15.9c-0.5,0.5-1,1-1.6,1.6c-0.7-1.3-1.2-2.2-1.8-3.2c0,0,0.1,0.1,0.1,0.1
		c1.8-3.8,3.4-7.7,5.4-11.4C170.9,218.1,172.4,217.4,173.5,216.4z"/>
	<path class="st0" d="M166.3,219.5c2.5-5.4,5-10.7,7.8-16.9C176,206.7,176,206.7,166.3,219.5z"/>
	<path class="st0" d="M154.5,308.5c-0.9,0.4-1.7,0.9-2.6,1.2c-2.1,0.7-4.1,1.4-6.2,2.1c0.2-1.9,0.4-3.8,0.6-6.6
		c1.5,1.3,2.2,1.9,3.1,2.6c0.4-0.8,0.8-1.6,1.3-2.5C152,306.5,153.3,307.5,154.5,308.5C154.6,308.6,154.5,308.5,154.5,308.5z"/>
	<path class="st0" d="M224.8,171c3.5-2.5,5.9-4.2,8.3-5.8c0.4,0.2,0.8,0.5,1.2,0.7c-1.4,2.2-2.6,4.9-4.5,6.5
		C229.1,173,226.5,171.5,224.8,171z"/>
	<path class="st0" d="M136.3,231.2c-1.7,2.3-3.1,4.8-5.1,6.6c-0.6,0.6-3-0.9-4.8-1.4c3.4-2.2,6.1-4,8.9-5.8
		C135.6,230.8,135.9,231,136.3,231.2z"/>
	<path class="st0" d="M150.9,227.5c-1.1,0.3-2.6,0.8-4.9,1.4c0.9-3.4,1.5-6,2.4-9.7C149.2,222.1,149.9,224.2,150.9,227.5z"/>
	<polygon points="158.9,306.3 158.7,306.4 158.6,306.2 	"/>
	<path class="st0" d="M261.5,358c2.5,4.4,1.7,6.2-4.6,7.3c1.6,2.8,2.9,5.2,4.2,7.6c0.7,1.9,1.4,3.8,2.3,5.7c0.3,0.5,1.5,0.6,1.7,1.1
		c1.1,2.4,2.1,4.9,2.7,7.4c0.1,0.3-2.1,1.2-3.3,1.8c4.4,4.2-1.1,6.6-3.3,8.9c-2.4,2.5-6.3,3.6-10.1,5.6c-1.5,8.4-6.9,11-16.6,10.1
		c-0.5,0-1-0.2-1.5-0.2c-4-0.2-8.2,1.7-10.7-4.4c-1.5-3.8-4-7.1-4.7-11.5c-0.6-4.1-2.8-7.9-4.3-11.8c-0.2-0.6-0.2-1.9,0.1-2
		c0.9-0.3,1.9-0.3,2.5-0.4c-0.3-5.7-0.6-11.6-1-17.9c1.3-0.5,3-1.1,3.4-1.2c0.9-3,1.6-5.1,2-7.1c0.2-1-0.7-2.1-0.7-3.1
		c0-2-0.4-5,0.8-5.9c1.4-1.1,4.1-0.7,6.3-0.8c2.1-0.2,4.3-0.2,6.4-0.3c0.2-0.7,0.3-1.4,0.5-2c-4-2.4-8-4.8-12.2-7.3
		c-0.5,2.7-0.9,4.5-1.2,6.1c-2.2-1.6-4.3-2.9-6.1-4.6c-0.5-0.5-0.1-2-0.1-3.1c0,0-0.2,0.1-0.2,0.1c1.7-1.1,3.5-2.2,5.2-3.3
		c1.4-0.9,2.7-1.9,4-2.8l-0.1,0.2c0.7-0.2,1.4-0.3,2.1-0.5c0.8,0.3,1.6,0.7,2.8,1.2c-1.7,1.3-2.9,2.3-4.2,3.2c0.7,1,1.2,1.8,1.8,2.6
		c4.8-4.6,11-3.4,13.9,2.7c0.5,1.1,1.7,2,2.6,3c0.3,0.5,0.6,1.1,1,1.6c1.5,1,2.9,2.2,4.4,3c3.2,1.8,6.4,3.6,9.7,5.3
		C258.5,354.1,260,356.1,261.5,358z M249.3,371.9c0.1,0.3,0.2,0.6,0.4,1c0.7-1.1,1.4-2.2,2.3-3.6c-5.3-0.9-10-1.9-14.9-2.5
		c-0.8-0.1-2.7,1.5-2.6,2.2c0.1,2.1,6.8,5.5,8.7,4.8C245.2,373,247.3,372.5,249.3,371.9z M239.2,399.7c-7.3-4.8-8.9-4.8-10.6-0.7
		C231.9,399.3,235.1,399.5,239.2,399.7z"/>
	<path class="st0" d="M274.1,397c0.6,2.2-0.3,4.9,2.8,6.1c0.5,0.2,0.2,2.6,0.2,4c-1.9,0-3.9,0-6.3,0c1.5-4.3-6.2-9.1,1.4-13.1
		C272.8,395,273.4,396,274.1,397z"/>
	<path class="st0" d="M188.8,393.1c-3-2-5.8-4.2-8.9-6c-0.6-0.4-2.1,0.4-3,1.1c-2.8,2-4.4,1.4-5-1.2c7.2-1.7,14.3-3.4,21.5-5.2
		c-2.7,1.9-5.6,3.8-8.1,5.6c1.3,1.8,2.7,3.6,4.1,5.5C189.1,393,189,393.1,188.8,393.1z"/>
	<path class="st0" d="M253.9,441.3c1.3-0.4,2.6-0.8,3.9-1.2c-0.1,1.6,0.3,3.4-0.4,4.7c-0.7,1.3-2.4,2.2-4.9,4.3
		c0.7-3.5,1.1-5.7,1.5-7.9C254,441.2,253.9,441.3,253.9,441.3z"/>
	<path class="st0" d="M195.1,400.4c3.1-2.3,5.7-4.1,8.2-5.9c0.3,0.2,0.7,0.4,1,0.6c-1.6,2.3-2.9,4.9-4.9,6.7
		C198.8,402.3,196.4,400.8,195.1,400.4z"/>
	<path class="st0" d="M201,369c0.9-1.5,1.7-3.1,2.8-5c1.2,1,1.9,1.7,2.7,2.4c1.5-1.1,3-2.2,5-3.6C210.9,367.4,210.9,367.4,201,369
		C200.9,368.9,201,369,201,369z"/>
	<path class="st0" d="M278.1,397c-0.1,1.2-0.3,2.4-0.5,3.8c-1.3-1.4-2.5-2.6-3.7-3.8c0.3-2.3,0.7-4.7,1-7c0.4-0.1,0.7-0.1,1.1-0.2
		C276.7,392.3,277.4,394.7,278.1,397z"/>
	<path class="st0" d="M110.2,335.7c2.2-1.6,4.4-3.2,6.6-4.8c0.3,0.1,0.7,0.2,1,0.3c-0.7,1.5-1.1,3.4-2.3,4.4c-1.2,1-3.2,1-4.9,1.5
		C110.5,336.6,110.3,336.2,110.2,335.7z"/>
	<path class="st0" d="M377.9,328.3c-6.4-5.3-14.5-4.3-20.5,2.9c-2.7,3.2-4.6,7.1-7.6,11.8c0.6-7.1-1.3-13.4,6.4-16.6
		c1.7-0.7,2.7-3.3,3.6-4.6c-4.5,2.1-9,4.3-14.6,6.9c0.7-6.6,1.3-11.9,1.8-16.6c-3.8,0.8-8.5,1.8-13.5,2.8c0-4.7,0-8.6,0-12.8
		c-3.7,0-7.7,0-12.3,0c0.3-4.1,0.5-7.9,0.7-11.3c-4.1-0.3-9-0.7-14.9-1.1c2.5-3.9,4.2-6.6,5.9-9.3c-5.3,4.7-10,0.8-14.9-1
		c6.4-1.2,12.8-2.5,20.5-3.9c-2.6-1.4-4-2.1-5.4-2.8c0-0.3,0-0.6,0-1c6.3,0,12.6,0,20,0c-1.4-2.1-2.2-3.2-3.4-4.9
		c8.9,2.5,17,1.8,25.2-0.5c2.5-0.7,5.5,0.3,8.4,1.3c-0.9,0.3-1.9,0.6-2.8,1c0,0.2,0,0.4-0.1,0.7c5.4,0.4,10.7,0.7,16.1,1.1
		c0.1,0.5,0.1,1,0.2,1.5c-3.1,1.3-6.1,2.7-8.9,4c5.9,1.5,13.6-6.4,19.9,3.2c-8.3,0.4-15.5,0.8-22.8,1.1c3.8,3.2,7.6,6.3,11.7,9.6
		c-8.4,3.8-18.3,5.7-19,17.4c1.4-6.8,6.6-10.1,12.4-12.6c8.9-3.9,17.7-8.2,26.9-10.9c8.8-2.6,17.2-0.6,22.6,8c0.6,1,1,2.7,0.6,3.8
		c-2.9,7.4-9.8,10.7-17.3,7.6c-6-2.5-11.7-6-17.6-8.9c-1.1-0.6-2.7-0.7-3.9-0.5c-10.3,1.3-15.6,9.5-21.8,16.3
		c-0.5,0.5,0.1,1.9,0.3,4.2c1.3-2.8,2.1-4.4,3.1-6.5c1.2,1.8,2.1,3.2,3.5,5.4c0-1.9,0-3,0-3.1c8.2,4.8,16.7,9.8,25.3,14.8
		c4.9,2.9,5.2,6.5,0.6,10.2c-1,0.8-2.2,1.3-3.7,2.1c0.2-1.9,0.4-3.3,0.7-5.7c-6.7,6.6-8.4-0.1-11.4-3.2
		C377.7,328.1,377.9,328.3,377.9,328.3z M315.7,281.3c3.9,3.2,8.3,6.1,11.7,9.8c4.7,5.3,10.1,7,16.9,5.5c3.1-0.7,6.2-0.7,9.3-1.1
		c-2.4-1.2-5.2-2.1-7.6-1.4c-8.9,2.5-14.8-1.6-20.5-7.6c-2.4-2.6-6.6-3.5-10-5.1c1.7-0.9,3.2-2.1,5-2.6c3.3-0.9,6.7-1.3,10-2.1
		c4-1,7.9-3.2,11.8-2.9c3.6,0.3,7,3.1,10.8,4.9c-2.6-2.9-5.3-5.9-7.7-8.5c-1.2,0.4-2.4,0.9-3.7,1.1c-3.1,0.6-6.2,0.8-9.2,1.5
		c-5.1,1.3-10.3,2.7-15.3,4.5C316.3,277.6,316.2,279.9,315.7,281.3z M328.5,280.8c-0.1,0.7-0.1,1.5-0.2,2.2
		c10.5-1.6,20.5,0.2,30.6,4.4c-0.6-1.6-0.9-2.4-1.4-3.8c5.4,0.8,6.1,3.7,4.2,9c2.2-1.1,4-1.5,4.1-2.1c0.3-1.5,0.2-4-0.7-4.5
		c-2.2-1.4-5.5-3.4-7.5-2.7c-5.4,1.9-7.2-1.4-9.6-5.3c-3.6,7.3-6.1,0.9-8.2,0c-1.8,1.2-2.9,2.6-4.2,2.8
		C333.3,281.1,330.9,280.8,328.5,280.8z M329.6,284c-0.1,0.4-0.3,0.8-0.4,1.2c3.9,1.9,7.6,4.7,11.7,5.5c4.3,0.8,9-0.2,13.5-0.4
		c-3.4-1.1-7.1-1.6-10.8-2c-1.4-0.2-2.9,0.2-4.1-0.3C336.1,286.8,332.9,285.4,329.6,284z M388.9,290.4c10.3-2.1,12.6,10.5,20.2,12.3
		c-3.2-2.8-5.5-6.3-8.1-9.7C397.8,289,393.6,288.7,388.9,290.4z M366.5,315.4c-0.2,0.4-0.4,0.8-0.7,1.2c7,3.9,14,7.8,21,11.7
		c0.2-0.4,0.5-0.8,0.7-1.2C380.6,323.2,373.5,319.3,366.5,315.4z M398.9,286.2c4.9,1.9,10.2,3.9,15.1,5.8
		C410.4,286.6,404.8,285.5,398.9,286.2z"/>
	<path class="st0" d="M306,357.8c0.5,12-4.8,17.1-14.5,14.2C289.8,360.5,290.5,359.8,306,357.8z"/>
	<path class="st0" d="M321.5,336.9c1.6,11.2,0.7,12.4-11.6,15.6c-0.8-4.4-4.5-8.4,0.3-13.1C313.8,335.9,317.3,335.7,321.5,336.9z"/>
	<path class="st0" d="M305.2,341.4c0.4,2.8,0.4,5.3,1.1,7.6c1.2,3.9,0.2,6.3-4,7.1c-2.9,0.6-5.9,0.6-8.8,0.9
		C290.8,345.3,293.7,341.6,305.2,341.4z"/>
	<path class="st0" d="M297.4,339.2c-0.8-12.1,2.8-16,13.4-14.8C312,336.6,308.6,340.3,297.4,339.2z"/>
	<path class="st0" d="M212,329.1c0.8-3.4-0.2-7.6,4.8-9c0.9-0.2,0.6-3.7,1.5-5.3c1-1.8,2.6-3.3,3.9-5c1.3,2.3,3.6,4.7,3.5,7
		c-0.2,4.5-1.8,8.9-2.8,13.4c0,0,0.1-0.2,0.1-0.2c-3.8,0.5-7.5,0-11.2-1L212,329.1z"/>
	<path class="st0" d="M300.7,313.2c-0.6,12-2.2,13.7-14.5,15.2C286.6,314,287.3,313.3,300.7,313.2z"/>
	<path class="st0" d="M290.7,345.5c0.3,13.6-1.2,15.2-13.1,14.8C276.8,347.5,279.4,344.6,290.7,345.5z"/>
	<path class="st0" d="M324.9,349.7c0.8,12.1-0.8,13.8-15.4,17.1c-2.1-8.4-0.8-10.4,7.1-13C319.3,353,321.8,351.3,324.9,349.7z"/>
	<path class="st0" d="M315.8,307.6c0.5,11.4-2.5,14.8-13.3,15.3C301.6,308.5,304.8,307.7,315.8,307.6z"/>
	<path class="st0" d="M329.5,328.4c-1.3-9.7,3.1-13.7,13.7-12.5C344.7,328.2,342.8,329.8,329.5,328.4z"/>
	<path class="st0" d="M318.2,317.7c-0.9-10,1.1-13,8.2-13.4c2.8-0.1,5.7-0.8,5.6,3.8C331.8,316.3,329.3,318.2,318.2,317.7z"/>
	<path class="st0" d="M294.4,329.1c3.1,11.3-0.8,15.5-13,14.1C280.7,333.2,283.4,330.3,294.4,329.1z"/>
	<path class="st0" d="M313.4,333.8c-1-11,2-14.1,13.5-13.8C328,331,323.3,335.8,313.4,333.8z"/>
	<path class="st0" d="M323.2,347.6c1.2-14.8,1.7-15.6,10-16.3c-0.2,3.6-0.5,7.1-0.7,11c1.8-0.5,3.6-1.1,5.7-1.7
		C336.3,346.5,332.1,348.4,323.2,347.6z"/>
	<path class="st0" d="M290.1,310.8c3.7-11.5,3.7-11.5,15.4-12.2C307.2,308,300.3,313.6,290.1,310.8z"/>
	<path class="st0" d="M268.7,334.3c0.6-12,1-12.2,14.9-10.9C282.9,333.7,279.1,336,268.7,334.3z"/>
	<path class="st0" d="M278.7,336.8c0.7,9.8-2.9,13-12.9,11.7C263.2,338.9,265.5,336.9,278.7,336.8z"/>
	<path class="st0" d="M319.2,293.1c1.2,11.3-1,13.6-11.7,12.6C307.7,293.4,309.5,291.4,319.2,293.1z"/>
	<path class="st0" d="M272,317.2c-5.6,9-8.9,10.2-17.8,7C254.6,315.1,259.6,314.5,272,317.2z"/>
	<path class="st0" d="M312.6,368.1c1.4,5.1,1.9,9.6-2.4,13.8c-2,1.9-2.6,5.3-3.8,7.9C300.4,381.1,303,370.7,312.6,368.1z"/>
	<path class="st0" d="M273.4,320.3c1.9-4.3,2.8-8.8,5.5-11.7c1.6-1.7,5.9-0.8,9.8-1.1c-1.8,4.3-2.9,8.1-4.8,11.4
		C281.4,323.2,277.6,321.3,273.4,320.3z"/>
	<path class="st0" d="M279.8,305.3c3.6-12.8,4.8-13.9,13.1-12.8c-0.5,1.4-1,2.7-1.5,4.1c0.9,0.3,1.9,0.5,2.8,0.8
		c-1.6,2.5-2.6,5.8-4.8,7C286.9,305.8,283.4,305.1,279.8,305.3z"/>
	<path class="st0" d="M310.3,291.5c-4.6,6.4-9.9,4.5-14.8,4.2c0.6-9.8,3.8-12.9,11.8-10.8c-1.3,2-2.6,3.9-4,6
		C305.3,291,307.3,291.2,310.3,291.5z"/>
	<path class="st0" d="M243,343.8c-0.3-0.5-0.6-1.1-1-1.6c1.2,0.1,2.5,0.2,5.1,0.3c-3.7-3.7-6.5-6.6-9.3-9.5c0.1-0.6,0.2-1.3,0.2-1.9
		c3.5,1,7,1.9,10.6,2.9c0.6,3.1,1.1,6.1,1.7,9.4c5.9,0.4,10.6,6.2,11.2,14.7c-1.5-1.9-3-3.9-4.5-5.8c-1.3-3.8-3.5-6.6-7.8-7.1
		C247.1,344.8,245,344.2,243,343.8z"/>
	<path d="M237.8,333c2.8,2.9,5.7,5.8,9.3,9.5c-2.7-0.2-3.9-0.3-5.1-0.3c-0.9-1-2-1.8-2.6-3c-2.9-6.1-9.1-7.3-13.9-2.7
		c-0.6-0.8-1.1-1.6-1.8-2.6c1.2-0.9,2.5-1.9,4.2-3.2c-1.1-0.5-2-0.8-2.8-1.2c3.8-1.7,7.5-3,10.2,1.9
		C235.7,332.2,236.9,332.5,237.8,333z"/>
	<path class="st0" d="M266.5,327.5c-1.1,7.1-2.3,8.2-8.5,8.4c-2.5,0.1-4.9,0.1-4.3-3.5c0.4-2.9,0.6-5.7,4.9-5
		C261,327.8,263.6,327.5,266.5,327.5z"/>
	<path class="st0" d="M328.8,365.7c-3.3-11.1-2-14.2,7.9-18.3c2.3,4.5-2.5,6.1-3.7,9C331.7,359.5,330.2,362.5,328.8,365.7z"/>
	<path class="st0" d="M264.6,313.6c3.1-6.5,7-9.7,13.1-11C274.8,308,276.2,318,264.6,313.6z"/>
	<path class="st0" d="M335.6,338.2c-1.1-6.7,0.5-8,7.4-7c1.5,0.2,3.4-1.4,5.1-2.1C350,334.8,343.7,338.2,335.6,338.2z"/>
	<path class="st0" d="M196.3,293c7.7,1.3,7.8,1.5,4.8,7.2c-0.7,1.3-0.6,3.1-1.1,6c-1.8-1.8-3-3.3-4.4-4.4c-1-0.8-2.3-1.2-4.3-2.3
		c0.4-1.2,1.2-3.6,2.1-6.2c1.9,2,3.5,3.8,5.2,5.5c0.3-0.2,0.6-0.5,0.9-0.7C198.7,296.7,197.8,295.3,196.3,293z"/>
	<path class="st0" d="M269.7,302.8c-7.7,9.8-8.3,10-17.3,4.4C258,305.8,263.3,304.4,269.7,302.8z"/>
	<path class="st0" d="M275.1,349.7c-0.2,3.7-0.4,6.9-0.6,10.1c-2.2-0.3-4-0.5-5.8-0.7c-0.2,0.5-0.5,1-0.7,1.5
		c-0.6-2.7-1.3-5.5-1.9-8.3c1.4-0.6,5.7,4.8,3.6-1.9C271.4,350.2,273,350,275.1,349.7z"/>
	<path class="st0" d="M377,296.9c8.9-3,13.8,4.6,20.6,7.1C390.7,301.6,382.8,302,377,296.9z"/>
	<path class="st0" d="M266.6,295.5c1.8-4,3-6.8,4.3-9.7c3.3,1.8,6.5,3.6,10.7,5.9C276.3,293.1,271.9,294.2,266.6,295.5z"/>
	<path class="st0" d="M278.8,301.8c-5.1-1-9.5-2-14-2.9c0.1-0.4,0.1-0.8,0.2-1.2c4.9-1,9.8-2,15.3-3.1
		C279.9,296.8,279.5,298.8,278.8,301.8z"/>
	<path class="st0" d="M258,312c-2.4,3.9-4.3,7-6.8,10.9c-2.5-1-5.5-2.3-9-3.7C248,316.5,252.7,314.4,258,312z"/>
	<path class="st0" d="M331.6,382c-2.5-1.7-5.1-3.3-7.6-5c-3.2-4.2,0.3-6.2,3.4-9.9C329,372.8,330.3,377.4,331.6,382z"/>
	<path class="st0" d="M317.9,377c-2.9-7.3-2.9-7.3,8.1-14.3C323,368,320.6,372.2,317.9,377z"/>
	<path class="st0" d="M340.6,351.4c-1.6-9-0.6-10.9,8.1-13C346.1,342.5,343.5,346.6,340.6,351.4z"/>
	<path class="st0" d="M377.9,328.3c0,0-0.2-0.2-0.2-0.2c1.2,3.5,1.9,7-1.9,10.7c0.3-1.6,0.4-2.4,0.6-3.2c1.2-5.2-1.6-8.1-6.9-6.9
		c-1.9,0.4-3.8,1.2-5.6,2.1c-1.6,0.8-3.1,2.1-4.7,2.9C364.5,326.3,368.4,325,377.9,328.3z"/>
	<path class="st0" d="M370.2,280.3c4.1,1.6,8.2,3.1,12.6,4.8C378.3,289.3,374.6,288.1,370.2,280.3z"/>
	<path class="st0" d="M237.9,330.3c2.4-1.6,4.7-3.1,7.1-4.7c2.7,2.9,4.9,5.3,7.1,7.7c-0.3,0.3-0.6,0.6-0.9,1
		c-0.9-0.1-1.9-0.1-2.8-0.2C247.2,330.4,242.5,328.7,237.9,330.3z"/>
	<path class="st0" d="M295.9,284.8c-2.7,5.9-6.8,6.9-14,3.7C286.6,287.2,291,286.1,295.9,284.8z"/>
	<path class="st0" d="M395.6,281.7c-3,0.8-6,1.7-9.1,2.5c-0.2-0.4-0.3-0.8-0.5-1.2c1.1-0.6,2.3-1.2,3-1.5c-0.2-1.9-0.4-3.8-0.7-6.4
		C391,277.6,393.2,279.6,395.6,281.7z"/>
	<path class="st0" d="M258.2,337.3c0.7,1.7,1.3,3.3,2,5c0.5-0.3,0.9-0.6,1.4-0.9c0.1-1.3,0.2-2.6,0.3-3.9c0.4,0,0.9,0.1,1.3,0.1
		c-0.2,3.9-0.4,7.9-0.5,11.8c-0.3,0-0.5-0.1-0.8-0.1c-1.4-3.6-2.9-7.3-4.3-10.9C257.7,338,258,337.6,258.2,337.3z"/>
	<path d="M237.9,330.3c4.6-1.6,9.2,0.1,10.5,3.8c0,0,0.2-0.1,0.2-0.1c-3.5-1-7-1.9-10.6-2.9C238,330.8,238,330.6,237.9,330.3z"/>
	<path class="st0" d="M296,222.6c-2.4-0.1-5,0.1-7.3-0.5c-5.5-1.5-3.5-5.6-2.8-9.2c0.9-4.4,5.3-6,12.2-4.8c4.5,0.8,8.4,5.2,7.8,8.7
		C305.3,221.3,302.9,222.8,296,222.6z M300,217.7c-7.4-3.8-9.4-3.4-11.4,1.5C292.2,218.7,295.8,218.2,300,217.7z"/>
	<path d="M211.9,329c3.7,1,7.4,1.5,11.2,1c-1.3,0.9-2.6,1.9-4,2.8c-1.7,1.1-3.4,2.2-5.2,3.3C213.3,333.7,212.6,331.3,211.9,329z"/>
	<path d="M249.3,371.9c-2,0.6-4.1,1.2-6.1,1.8c-1.9,0.6-8.6-2.8-8.7-4.8c0-0.7,1.8-2.3,2.6-2.2c4.8,0.6,9.6,1.6,14.9,2.5
		c-0.9,1.4-1.6,2.5-2.3,3.6C249.6,372.5,249.4,372.2,249.3,371.9z"/>
	<path d="M243,343.8c2.1,0.4,4.2,1,6.3,1.2c4.3,0.6,6.5,3.3,7.8,7.1c-3.2-1.8-6.5-3.5-9.7-5.3C245.8,346,244.4,344.8,243,343.8z"/>
	<path d="M239.2,399.7c-4.1-0.2-7.3-0.4-10.6-0.7C230.2,394.9,231.9,394.9,239.2,399.7z"/>
	<path d="M328.5,280.8c2.4,0,4.8,0.3,7.1-0.1c1.3-0.2,2.4-1.6,4.2-2.8c2.1,0.9,4.6,7.3,8.2,0c2.4,3.9,4.3,7.2,9.6,5.3
		c2-0.7,5.2,1.3,7.5,2.7c0.9,0.6,0.9,3,0.7,4.5c-0.1,0.7-1.9,1-4.1,2.1c1.9-5.3,1.2-8.2-4.2-9c0.5,1.4,0.8,2.2,1.4,3.8
		c-10.1-4.3-20-6-30.6-4.4C328.4,282.2,328.5,281.5,328.5,280.8z"/>
	<path d="M315.7,281.4c0.5-1.4,0.7-3.7,1.6-4.1c5-1.8,10.1-3.2,15.3-4.5c3-0.7,6.1-0.9,9.2-1.5c1.3-0.2,2.5-0.8,3.7-1.1
		c2.4,2.7,5.1,5.6,7.7,8.5c-3.7-1.8-7.2-4.6-10.8-4.9c-3.8-0.3-7.8,1.9-11.8,2.9c-3.3,0.8-6.7,1.2-10,2.1c-1.8,0.5-3.3,1.7-5,2.6
		L315.7,281.4z"/>
	<path d="M315.5,281.5c3.4,1.7,7.5,2.6,10,5.1c5.8,6.1,11.6,10.1,20.5,7.6c2.3-0.7,5.1,0.3,7.6,1.4c-3.1,0.3-6.3,0.4-9.3,1.1
		c-6.8,1.5-12.2-0.2-16.9-5.5c-3.3-3.8-7.7-6.6-11.7-9.8C315.7,281.4,315.5,281.5,315.5,281.5z"/>
	<path d="M329.6,284c3.3,1.3,6.5,2.8,9.8,4c1.2,0.4,2.7,0.1,4.1,0.3c3.7,0.4,7.4,0.9,10.8,2c-4.5,0.2-9.2,1.3-13.5,0.4
		c-4.1-0.8-7.8-3.6-11.7-5.5C329.4,284.9,329.5,284.5,329.6,284z"/>
	<path d="M388.9,290.4c4.7-1.8,9-1.4,12.1,2.6c2.6,3.3,4.9,6.9,8.1,9.7C401.5,300.9,399.1,288.3,388.9,290.4z"/>
	<path d="M366.5,315.4c7,3.9,14,7.8,21.1,11.7c-0.2,0.4-0.5,0.8-0.7,1.2c-7-3.9-14-7.8-21-11.7C366.1,316.2,366.3,315.8,366.5,315.4
		z"/>
	<path d="M398.9,286.2c6-0.7,11.6,0.4,15.1,5.8C409,290.1,403.8,288.1,398.9,286.2z"/>
	<path d="M300,217.7c-4.2,0.6-7.8,1-11.4,1.5C290.6,214.2,292.6,213.9,300,217.7z"/>
</g>
</svg>
